Amiamie-ItalicRound.ufo
<glyph name="quotedbl" format="2">
	<advance width="357"/>
	<unicode hex="0022"/>
	<note>
		quotedbl
	</note>
	<outline>
		<contour>
			<point x="211" y="482"/>
			<point x="216" y="500" type="curve" smooth="yes"/>
			<point x="262" y="679" type="line" smooth="yes"/>
			<point x="270" y="710"/>
			<point x="248" y="741"/>
			<point x="215" y="741" type="curve" smooth="yes"/>
			<point x="190" y="741"/>
			<point x="170" y="724"/>
			<point x="166" y="700" type="curve" smooth="yes"/>
			<point x="134" y="517" type="line" smooth="yes"/>
			<point x="130" y="491"/>
			<point x="150" y="469"/>
			<point x="175" y="469" type="curve" smooth="yes"/>
			<point x="195" y="469"/>
		</contour>
		<contour>
			<point x="364" y="482"/>
			<point x="369" y="500" type="curve" smooth="yes"/>
			<point x="415" y="679" type="line" smooth="yes"/>
			<point x="423" y="710"/>
			<point x="400" y="741"/>
			<point x="367" y="741" type="curve" smooth="yes"/>
			<point x="342" y="741"/>
			<point x="322" y="723"/>
			<point x="318" y="699" type="curve" smooth="yes"/>
			<point x="287" y="517" type="line" smooth="yes"/>
			<point x="283" y="491"/>
			<point x="303" y="468"/>
			<point x="328" y="468" type="curve" smooth="yes"/>
			<point x="348" y="468"/>
		</contour>
	</outline>
</glyph>
<glyph name="dollar" format="2">
	<advance width="601"/>
	<unicode hex="0024"/>
	<note>
		dollar
	</note>
	<outline>
		<contour>
			<point x="532" y="183" type="curve" smooth="yes"/>
			<point x="555" y="291"/>
			<point x="511" y="354"/>
			<point x="369" y="402" type="curve"/>
			<point x="415" y="620" type="line"/>
			<point x="456" y="611"/>
			<point x="477" y="586"/>
			<point x="482" y="546" type="curve" smooth="yes"/>
			<point x="486" y="518"/>
			<point x="510" y="498"/>
			<point x="538" y="498" type="curve" smooth="yes"/>
			<point x="572" y="498"/>
			<point x="598" y="530"/>
			<point x="593" y="563" type="curve" smooth="yes"/>
			<point x="581" y="640"/>
			<point x="532" y="693"/>
			<point x="433" y="703" type="curve"/>
			<point x="442" y="745" type="line" smooth="yes"/>
			<point x="446" y="765"/>
			<point x="430" y="785"/>
			<point x="409" y="785" type="curve" smooth="yes"/>
			<point x="393" y="785"/>
			<point x="380" y="775"/>
			<point x="377" y="759" type="curve" smooth="yes"/>
			<point x="365" y="702" type="line"/>
			<point x="252" y="690"/>
			<point x="152" y="624"/>
			<point x="127" y="506" type="curve" smooth="yes"/>
			<point x="103" y="391"/>
			<point x="167" y="339"/>
			<point x="280" y="303" type="curve"/>
			<point x="231" y="71" type="line"/>
			<point x="186" y="80"/>
			<point x="157" y="106"/>
			<point x="148" y="149" type="curve" smooth="yes"/>
			<point x="143" y="175"/>
			<point x="119" y="196"/>
			<point x="91" y="196" type="curve" smooth="yes"/>
			<point x="56" y="196"/>
			<point x="28" y="164"/>
			<point x="32" y="130" type="curve" smooth="yes"/>
			<point x="43" y="44"/>
			<point x="109" y="-5"/>
			<point x="213" y="-13" type="curve"/>
			<point x="204" y="-55" type="line" smooth="yes"/>
			<point x="200" y="-75"/>
			<point x="216" y="-95"/>
			<point x="237" y="-95" type="curve" smooth="yes"/>
			<point x="253" y="-95"/>
			<point x="266" y="-85"/>
			<point x="269" y="-69" type="curve" smooth="yes"/>
			<point x="281" y="-12" type="line"/>
			<point x="403" y="0"/>
			<point x="507" y="69"/>
		</contour>
		<contour>
			<point x="240" y="520" type="curve" smooth="yes"/>
			<point x="252" y="577"/>
			<point x="293" y="611"/>
			<point x="347" y="620" type="curve"/>
			<point x="304" y="414" type="line"/>
			<point x="250" y="433"/>
			<point x="228" y="461"/>
		</contour>
		<contour>
			<point x="299" y="70" type="curve"/>
			<point x="345" y="289" type="line"/>
			<point x="414" y="263"/>
			<point x="428" y="224"/>
			<point x="417" y="173" type="curve" smooth="yes"/>
			<point x="404" y="110"/>
			<point x="359" y="78"/>
		</contour>
	</outline>
</glyph>
<glyph name="ampersand" format="2">
	<advance width="663"/>
	<unicode hex="0026"/>
	<note>
		ampersand
	</note>
	<outline>
		<contour>
			<point x="643" y="394"/>
			<point x="619" y="394" type="curve" smooth="yes"/>
			<point x="572" y="394" type="line"/>
			<point x="581" y="437" type="line" smooth="yes"/>
			<point x="588" y="471"/>
			<point x="563" y="502"/>
			<point x="529" y="502" type="curve" smooth="yes"/>
			<point x="503" y="502"/>
			<point x="481" y="485"/>
			<point x="476" y="460" type="curve" smooth="yes"/>
			<point x="462" y="394" type="line"/>
			<point x="413" y="394" type="line" smooth="yes"/>
			<point x="392" y="394"/>
			<point x="370" y="394"/>
			<point x="353" y="395" type="curve" smooth="yes"/>
			<point x="288" y="398"/>
			<point x="244" y="425"/>
			<point x="262" y="508" type="curve" smooth="yes"/>
			<point x="277" y="578"/>
			<point x="332" y="620"/>
			<point x="415" y="620" type="curve" smooth="yes"/>
			<point x="446" y="620"/>
			<point x="469" y="619"/>
			<point x="495" y="616" type="curve" smooth="yes"/>
			<point x="520" y="613"/>
			<point x="544" y="632"/>
			<point x="544" y="658" type="curve" smooth="yes"/>
			<point x="544" y="680"/>
			<point x="527" y="698"/>
			<point x="506" y="700" type="curve" smooth="yes"/>
			<point x="484" y="703"/>
			<point x="462" y="704"/>
			<point x="434" y="704" type="curve" smooth="yes"/>
			<point x="284" y="704"/>
			<point x="168" y="627"/>
			<point x="142" y="507" type="curve" smooth="yes"/>
			<point x="126" y="428"/>
			<point x="167" y="372"/>
			<point x="238" y="352" type="curve"/>
			<point x="135" y="332"/>
			<point x="58" y="262"/>
			<point x="40" y="174" type="curve" smooth="yes"/>
			<point x="9" y="28"/>
			<point x="115" y="-14"/>
			<point x="276" y="-14" type="curve" smooth="yes"/>
			<point x="335" y="-14"/>
			<point x="391" y="-9"/>
			<point x="444" y="0" type="curve" smooth="yes"/>
			<point x="476" y="5"/>
			<point x="494" y="23"/>
			<point x="501" y="56" type="curve" smooth="yes"/>
			<point x="554" y="306" type="line"/>
			<point x="619" y="306" type="line" smooth="yes"/>
			<point x="643" y="306"/>
			<point x="663" y="326"/>
			<point x="663" y="350" type="curve" smooth="yes"/>
			<point x="663" y="374"/>
		</contour>
		<contour>
			<point x="162" y="190" type="curve" smooth="yes"/>
			<point x="175" y="250"/>
			<point x="228" y="296"/>
			<point x="332" y="305" type="curve" smooth="yes"/>
			<point x="352" y="306"/>
			<point x="369" y="306"/>
			<point x="391" y="306" type="curve" smooth="yes"/>
			<point x="444" y="306" type="line"/>
			<point x="395" y="78" type="line"/>
			<point x="359" y="72"/>
			<point x="334" y="70"/>
			<point x="296" y="70" type="curve" smooth="yes"/>
			<point x="188" y="70"/>
			<point x="143" y="101"/>
		</contour>
	</outline>
</glyph>
<glyph name="quotesingle" format="2">
	<advance width="187"/>
	<unicode hex="0027"/>
	<note>
		quotesingle
	</note>
	<outline>
		<contour>
			<point x="179" y="482"/>
			<point x="184" y="500" type="curve" smooth="yes"/>
			<point x="230" y="679" type="line" smooth="yes"/>
			<point x="238" y="710"/>
			<point x="216" y="741"/>
			<point x="183" y="741" type="curve" smooth="yes"/>
			<point x="158" y="741"/>
			<point x="138" y="724"/>
			<point x="134" y="700" type="curve" smooth="yes"/>
			<point x="102" y="517" type="line" smooth="yes"/>
			<point x="98" y="491"/>
			<point x="118" y="469"/>
			<point x="143" y="469" type="curve" smooth="yes"/>
			<point x="163" y="469"/>
		</contour>
	</outline>
</glyph>
<glyph name="parenright" format="2">
	<advance width="336"/>
	<unicode hex="0029"/>
	<note>
		parenright
	</note>
	<outline>
		<contour>
			<point x="150" y="764"/>
			<point x="156" y="744" type="curve" smooth="yes"/>
			<point x="195" y="623"/>
			<point x="202" y="489"/>
			<point x="172" y="350" type="curve" smooth="yes"/>
			<point x="142" y="211"/>
			<point x="78" y="77"/>
			<point x="-9" y="-44" type="curve" smooth="yes"/>
			<point x="-12" y="-49"/>
			<point x="-14" y="-53"/>
			<point x="-14" y="-59" type="curve" smooth="yes"/>
			<point x="-14" y="-74"/>
			<point x="-2" y="-86"/>
			<point x="12" y="-86" type="curve" smooth="yes"/>
			<point x="20" y="-86"/>
			<point x="27" y="-81"/>
			<point x="32" y="-76" type="curve" smooth="yes"/>
			<point x="133" y="39"/>
			<point x="211" y="189"/>
			<point x="245" y="350" type="curve" smooth="yes"/>
			<point x="278" y="507"/>
			<point x="266" y="653"/>
			<point x="215" y="767" type="curve" smooth="yes"/>
			<point x="210" y="778"/>
			<point x="199" y="786"/>
			<point x="186" y="786" type="curve" smooth="yes"/>
			<point x="165" y="786"/>
		</contour>
	</outline>
</glyph>
<glyph name="plus" format="2">
	<advance width="601"/>
	<unicode hex="002B"/>
	<note>
		plus
	</note>
	<outline>
		<contour>
			<point x="339" y="284" type="line"/>
			<point x="498" y="284" type="line" smooth="yes"/>
			<point x="515" y="284"/>
			<point x="530" y="298"/>
			<point x="530" y="316" type="curve" smooth="yes"/>
			<point x="530" y="334"/>
			<point x="515" y="348"/>
			<point x="498" y="348" type="curve" smooth="yes"/>
			<point x="353" y="348" type="line"/>
			<point x="389" y="516" type="line" smooth="yes"/>
			<point x="393" y="537"/>
			<point x="377" y="557"/>
			<point x="356" y="557" type="curve" smooth="yes"/>
			<point x="339" y="557"/>
			<point x="325" y="546"/>
			<point x="322" y="530" type="curve" smooth="yes"/>
			<point x="284" y="348" type="line"/>
			<point x="125" y="348" type="line" smooth="yes"/>
			<point x="108" y="348"/>
			<point x="93" y="334"/>
			<point x="93" y="316" type="curve" smooth="yes"/>
			<point x="93" y="298"/>
			<point x="108" y="284"/>
			<point x="125" y="284" type="curve" smooth="yes"/>
			<point x="270" y="284" type="line"/>
			<point x="235" y="118" type="line" smooth="yes"/>
			<point x="231" y="97"/>
			<point x="246" y="77"/>
			<point x="268" y="77" type="curve" smooth="yes"/>
			<point x="284" y="77"/>
			<point x="298" y="88"/>
			<point x="301" y="104" type="curve" smooth="yes"/>
		</contour>
	</outline>
</glyph>
<glyph name="one" format="2">
	<advance width="601"/>
	<unicode hex="0031"/>
	<note>
		one
	</note>
	<outline>
		<contour>
			<point x="384" y="37" type="curve" smooth="yes"/>
			<point x="511" y="639" type="line" smooth="yes"/>
			<point x="518" y="673"/>
			<point x="488" y="701"/>
			<point x="457" y="695" type="curve" smooth="yes"/>
			<point x="427" y="689"/>
			<point x="398" y="682"/>
			<point x="364" y="664" type="curve" smooth="yes"/>
			<point x="203" y="577" type="line" smooth="yes"/>
			<point x="190" y="570"/>
			<point x="181" y="556"/>
			<point x="181" y="539" type="curve" smooth="yes"/>
			<point x="181" y="515"/>
			<point x="200" y="496"/>
			<point x="224" y="496" type="curve" smooth="yes"/>
			<point x="231" y="496"/>
			<point x="237" y="498"/>
			<point x="243" y="501" type="curve" smooth="yes"/>
			<point x="388" y="575" type="line"/>
			<point x="279" y="59" type="line" smooth="yes"/>
			<point x="272" y="25"/>
			<point x="297" y="-5"/>
			<point x="331" y="-5" type="curve" smooth="yes"/>
			<point x="357" y="-5"/>
			<point x="379" y="12"/>
		</contour>
	</outline>
</glyph>
<glyph name="three" format="2">
	<advance width="601"/>
	<unicode hex="0033"/>
	<note>
		three
	</note>
	<outline>
		<contour>
			<point x="432" y="366" type="curve"/>
			<point x="515" y="388"/>
			<point x="575" y="447"/>
			<point x="592" y="527" type="curve" smooth="yes"/>
			<point x="613" y="629"/>
			<point x="550" y="704"/>
			<point x="412" y="704" type="curve" smooth="yes"/>
			<point x="280" y="704"/>
			<point x="184" y="638"/>
			<point x="137" y="538" type="curve" smooth="yes"/>
			<point x="124" y="510"/>
			<point x="125" y="482"/>
			<point x="152" y="467" type="curve" smooth="yes"/>
			<point x="162" y="462"/>
			<point x="174" y="459"/>
			<point x="187" y="459" type="curve" smooth="yes"/>
			<point x="193" y="459"/>
			<point x="197" y="460"/>
			<point x="201" y="463" type="curve" smooth="yes"/>
			<point x="211" y="468"/>
			<point x="219" y="479"/>
			<point x="230" y="502" type="curve" smooth="yes"/>
			<point x="235" y="511"/>
			<point x="239" y="520"/>
			<point x="244" y="531" type="curve" smooth="yes"/>
			<point x="273" y="588"/>
			<point x="324" y="620"/>
			<point x="382" y="620" type="curve" smooth="yes"/>
			<point x="449" y="620"/>
			<point x="483" y="577"/>
			<point x="470" y="514" type="curve" smooth="yes"/>
			<point x="456" y="449"/>
			<point x="406" y="406"/>
			<point x="344" y="394" type="curve" smooth="yes"/>
			<point x="318" y="390"/>
			<point x="295" y="393"/>
			<point x="281" y="371" type="curve" smooth="yes"/>
			<point x="277" y="365"/>
			<point x="275" y="358"/>
			<point x="275" y="350" type="curve" smooth="yes"/>
			<point x="275" y="343"/>
			<point x="276" y="335"/>
			<point x="278" y="327" type="curve" smooth="yes"/>
			<point x="283" y="312"/>
			<point x="304" y="311"/>
			<point x="335" y="305" type="curve" smooth="yes"/>
			<point x="404" y="294"/>
			<point x="430" y="254"/>
			<point x="417" y="190" type="curve" smooth="yes"/>
			<point x="401" y="116"/>
			<point x="337" y="70"/>
			<point x="258" y="70" type="curve" smooth="yes"/>
			<point x="194" y="70"/>
			<point x="149" y="99"/>
			<point x="140" y="158" type="curve" smooth="yes"/>
			<point x="135" y="186"/>
			<point x="135" y="211"/>
			<point x="109" y="224" type="curve" smooth="yes"/>
			<point x="100" y="228"/>
			<point x="90" y="230"/>
			<point x="80" y="230" type="curve" smooth="yes"/>
			<point x="68" y="230"/>
			<point x="59" y="226"/>
			<point x="51" y="220" type="curve" smooth="yes"/>
			<point x="32" y="207"/>
			<point x="27" y="187"/>
			<point x="27" y="158" type="curve" smooth="yes"/>
			<point x="29" y="40"/>
			<point x="107" y="-14"/>
			<point x="235" y="-14" type="curve" smooth="yes"/>
			<point x="379" y="-14"/>
			<point x="510" y="66"/>
			<point x="537" y="195" type="curve" smooth="yes"/>
			<point x="556" y="286"/>
			<point x="517" y="344"/>
		</contour>
	</outline>
</glyph>
<glyph name="nine" format="2">
	<advance width="601"/>
	<unicode hex="0039"/>
	<note>
		nine
	</note>
	<outline>
		<contour>
			<point x="394" y="704" type="curve" smooth="yes"/>
			<point x="253" y="704"/>
			<point x="122" y="608"/>
			<point x="89" y="455" type="curve" smooth="yes"/>
			<point x="61" y="323"/>
			<point x="121" y="225"/>
			<point x="268" y="225" type="curve" smooth="yes"/>
			<point x="306" y="225"/>
			<point x="339" y="232"/>
			<point x="371" y="248" type="curve" smooth="yes"/>
			<point x="395" y="261"/>
			<point x="408" y="274"/>
			<point x="425" y="295" type="curve" smooth="yes"/>
			<point x="453" y="329" type="line"/>
			<point x="406" y="143"/>
			<point x="333" y="70"/>
			<point x="247" y="70" type="curve" smooth="yes"/>
			<point x="196" y="70"/>
			<point x="167" y="92"/>
			<point x="157" y="136" type="curve" smooth="yes"/>
			<point x="151" y="165"/>
			<point x="149" y="189"/>
			<point x="122" y="200" type="curve" smooth="yes"/>
			<point x="113" y="204"/>
			<point x="103" y="206"/>
			<point x="93" y="206" type="curve" smooth="yes"/>
			<point x="82" y="206"/>
			<point x="71" y="203"/>
			<point x="62" y="198" type="curve" smooth="yes"/>
			<point x="42" y="185"/>
			<point x="35" y="165"/>
			<point x="37" y="136" type="curve" smooth="yes"/>
			<point x="41" y="43"/>
			<point x="108" y="-14"/>
			<point x="221" y="-14" type="curve" smooth="yes"/>
			<point x="373" y="-14"/>
			<point x="521" y="105"/>
			<point x="578" y="373" type="curve" smooth="yes"/>
			<point x="627" y="605"/>
			<point x="557" y="704"/>
		</contour>
		<contour>
			<point x="311" y="309" type="curve" smooth="yes"/>
			<point x="218" y="309"/>
			<point x="192" y="380"/>
			<point x="211" y="468" type="curve" smooth="yes"/>
			<point x="230" y="557"/>
			<point x="297" y="620"/>
			<point x="377" y="620" type="curve" smooth="yes"/>
			<point x="456" y="620"/>
			<point x="494" y="554"/>
			<point x="476" y="466" type="curve" smooth="yes"/>
			<point x="454" y="363"/>
			<point x="382" y="309"/>
		</contour>
	</outline>
</glyph>
<glyph name="semicolon" format="2">
	<advance width="232"/>
	<unicode hex="003B"/>
	<note>
		semicolon
	</note>
	<outline>
		<contour>
			<point x="-7" y="-106" type="curve" smooth="yes"/>
			<point x="101" y="69" type="line" smooth="yes"/>
			<point x="119" y="99"/>
			<point x="122" y="131"/>
			<point x="91" y="145" type="curve" smooth="yes"/>
			<point x="81" y="150"/>
			<point x="70" y="152"/>
			<point x="58" y="152" type="curve" smooth="yes"/>
			<point x="27" y="152"/>
			<point x="18" y="125"/>
			<point x="5" y="100" type="curve" smooth="yes"/>
			<point x="-81" y="-63" type="line" smooth="yes"/>
			<point x="-84" y="-69"/>
			<point x="-86" y="-76"/>
			<point x="-86" y="-83" type="curve" smooth="yes"/>
			<point x="-86" y="-107"/>
			<point x="-67" y="-127"/>
			<point x="-43" y="-127" type="curve" smooth="yes"/>
			<point x="-28" y="-127"/>
			<point x="-14" y="-118"/>
		</contour>
		<contour>
			<point x="122" y="399"/>
			<point x="162" y="399" type="curve" smooth="yes"/>
			<point x="180" y="399"/>
			<point x="193" y="416"/>
			<point x="200" y="450" type="curve" smooth="yes"/>
			<point x="210" y="495" type="line" smooth="yes"/>
			<point x="217" y="527"/>
			<point x="188" y="556"/>
			<point x="157" y="550" type="curve" smooth="yes"/>
			<point x="119" y="542"/>
			<point x="89" y="510"/>
			<point x="89" y="472" type="curve" smooth="yes"/>
			<point x="89" y="432"/>
		</contour>
	</outline>
</glyph>
<glyph name="equal" format="2">
	<advance width="601"/>
	<unicode hex="003D"/>
	<note>
		equal
	</note>
	<outline>
		<contour>
			<point x="141" y="384" type="curve" smooth="yes"/>
			<point x="524" y="384" type="line" smooth="yes"/>
			<point x="541" y="384"/>
			<point x="556" y="398"/>
			<point x="556" y="416" type="curve" smooth="yes"/>
			<point x="556" y="434"/>
			<point x="541" y="448"/>
			<point x="524" y="448" type="curve" smooth="yes"/>
			<point x="141" y="448" type="line" smooth="yes"/>
			<point x="124" y="448"/>
			<point x="109" y="434"/>
			<point x="109" y="416" type="curve" smooth="yes"/>
			<point x="109" y="398"/>
			<point x="124" y="384"/>
		</contour>
		<contour>
			<point x="99" y="184" type="curve" smooth="yes"/>
			<point x="481" y="184" type="line" smooth="yes"/>
			<point x="498" y="184"/>
			<point x="513" y="198"/>
			<point x="513" y="216" type="curve" smooth="yes"/>
			<point x="513" y="234"/>
			<point x="498" y="248"/>
			<point x="481" y="248" type="curve" smooth="yes"/>
			<point x="99" y="248" type="line" smooth="yes"/>
			<point x="82" y="248"/>
			<point x="67" y="234"/>
			<point x="67" y="216" type="curve" smooth="yes"/>
			<point x="67" y="198"/>
			<point x="82" y="184"/>
		</contour>
	</outline>
</glyph>
<glyph name="question" format="2">
	<advance width="522"/>
	<unicode hex="003F"/>
	<note>
		question
	</note>
	<outline>
		<contour>
			<point x="362" y="704" type="curve" smooth="yes"/>
			<point x="252" y="704"/>
			<point x="159" y="651"/>
			<point x="110" y="560" type="curve" smooth="yes"/>
			<point x="106" y="552"/>
			<point x="104" y="544"/>
			<point x="104" y="535" type="curve" smooth="yes"/>
			<point x="104" y="506"/>
			<point x="128" y="483"/>
			<point x="156" y="483" type="curve" smooth="yes"/>
			<point x="178" y="483"/>
			<point x="198" y="497"/>
			<point x="205" y="516" type="curve" smooth="yes"/>
			<point x="232" y="586"/>
			<point x="280" y="620"/>
			<point x="339" y="620" type="curve" smooth="yes"/>
			<point x="405" y="620"/>
			<point x="434" y="579"/>
			<point x="420" y="515" type="curve" smooth="yes"/>
			<point x="409" y="461"/>
			<point x="379" y="423"/>
			<point x="296" y="348" type="curve" smooth="yes"/>
			<point x="256" y="312"/>
			<point x="230" y="284"/>
			<point x="212" y="251" type="curve" smooth="yes"/>
			<point x="208" y="245"/>
			<point x="207" y="237"/>
			<point x="207" y="229" type="curve" smooth="yes"/>
			<point x="207" y="203"/>
			<point x="227" y="182"/>
			<point x="253" y="182" type="curve" smooth="yes"/>
			<point x="273" y="182"/>
			<point x="289" y="194"/>
			<point x="296" y="212" type="curve" smooth="yes"/>
			<point x="311" y="249"/>
			<point x="336" y="275"/>
			<point x="393" y="320" type="curve" smooth="yes"/>
			<point x="478" y="388"/>
			<point x="524" y="446"/>
			<point x="540" y="519" type="curve" smooth="yes"/>
			<point x="563" y="627"/>
			<point x="501" y="704"/>
		</contour>
		<contour>
			<point x="169" y="9"/>
			<point x="191" y="-4" type="curve" smooth="yes"/>
			<point x="215" y="-18"/>
			<point x="241" y="-11"/>
			<point x="258" y="11" type="curve" smooth="yes"/>
			<point x="269" y="26"/>
			<point x="276" y="44"/>
			<point x="276" y="64" type="curve" smooth="yes"/>
			<point x="276" y="83"/>
			<point x="269" y="100"/>
			<point x="257" y="113" type="curve" smooth="yes"/>
			<point x="238" y="135"/>
			<point x="210" y="138"/>
			<point x="187" y="120" type="curve" smooth="yes"/>
			<point x="168" y="106"/>
			<point x="155" y="84"/>
			<point x="155" y="59" type="curve" smooth="yes"/>
			<point x="155" y="33"/>
		</contour>
	</outline>
</glyph>
<glyph name="I" format="2">
	<advance width="277"/>
	<unicode hex="0049"/>
	<note>
		I
	</note>
	<outline>
		<contour>
			<point x="152" y="12"/>
			<point x="157" y="37" type="curve" smooth="yes"/>
			<point x="282" y="631" type="line" smooth="yes"/>
			<point x="289" y="665"/>
			<point x="264" y="695"/>
			<point x="230" y="695" type="curve" smooth="yes"/>
			<point x="204" y="695"/>
			<point x="182" y="678"/>
			<point x="177" y="653" type="curve" smooth="yes"/>
			<point x="52" y="59" type="line" smooth="yes"/>
			<point x="45" y="25"/>
			<point x="70" y="-5"/>
			<point x="104" y="-5" type="curve" smooth="yes"/>
			<point x="130" y="-5"/>
		</contour>
	</outline>
</glyph>
<glyph name="P" format="2">
	<advance width="610"/>
	<unicode hex="0050"/>
	<note>
		P
	</note>
	<outline>
		<contour>
			<point x="504" y="686" type="curve" smooth="yes"/>
			<point x="473" y="690"/>
			<point x="448" y="690"/>
			<point x="411" y="690" type="curve" smooth="yes"/>
			<point x="237" y="690" type="line" smooth="yes"/>
			<point x="202" y="690"/>
			<point x="181" y="674"/>
			<point x="174" y="639" type="curve" smooth="yes"/>
			<point x="52" y="59" type="line" smooth="yes"/>
			<point x="45" y="25"/>
			<point x="70" y="-6"/>
			<point x="104" y="-6" type="curve" smooth="yes"/>
			<point x="130" y="-6"/>
			<point x="152" y="12"/>
			<point x="157" y="37" type="curve" smooth="yes"/>
			<point x="206" y="272" type="line"/>
			<point x="322" y="272" type="line" smooth="yes"/>
			<point x="359" y="272"/>
			<point x="384" y="272"/>
			<point x="417" y="276" type="curve" smooth="yes"/>
			<point x="520" y="289"/>
			<point x="617" y="359"/>
			<point x="643" y="481" type="curve" smooth="yes"/>
			<point x="669" y="603"/>
			<point x="610" y="672"/>
		</contour>
		<contour>
			<point x="415" y="365" type="curve" smooth="yes"/>
			<point x="397" y="362"/>
			<point x="372" y="361"/>
			<point x="344" y="361" type="curve" smooth="yes"/>
			<point x="225" y="361" type="line"/>
			<point x="276" y="601" type="line"/>
			<point x="395" y="601" type="line" smooth="yes"/>
			<point x="423" y="601"/>
			<point x="447" y="600"/>
			<point x="465" y="597" type="curve" smooth="yes"/>
			<point x="511" y="588"/>
			<point x="542" y="554"/>
			<point x="527" y="481" type="curve" smooth="yes"/>
			<point x="511" y="408"/>
			<point x="465" y="374"/>
		</contour>
	</outline>
</glyph>
<glyph name="Q" format="2">
	<advance width="748"/>
	<unicode hex="0051"/>
	<note>
		Q
	</note>
	<outline>
		<contour>
			<point x="557" y="87" type="curve"/>
			<point x="647" y="144"/>
			<point x="708" y="238"/>
			<point x="731" y="345" type="curve" smooth="yes"/>
			<point x="776" y="559"/>
			<point x="686" y="704"/>
			<point x="475" y="704" type="curve" smooth="yes"/>
			<point x="263" y="704"/>
			<point x="111" y="559"/>
			<point x="66" y="345" type="curve" smooth="yes"/>
			<point x="21" y="132"/>
			<point x="111" y="-14"/>
			<point x="323" y="-14" type="curve" smooth="yes"/>
			<point x="349" y="-14"/>
			<point x="372" y="-12"/>
			<point x="395" y="-7" type="curve" smooth="yes"/>
			<point x="424" y="-1"/>
			<point x="442" y="2"/>
			<point x="470" y="2" type="curve" smooth="yes"/>
			<point x="500" y="2"/>
			<point x="524" y="-4"/>
			<point x="564" y="-30" type="curve" smooth="yes"/>
			<point x="572" y="-36"/>
			<point x="583" y="-39"/>
			<point x="594" y="-39" type="curve" smooth="yes"/>
			<point x="623" y="-39"/>
			<point x="647" y="-15"/>
			<point x="647" y="15" type="curve" smooth="yes"/>
			<point x="647" y="34"/>
			<point x="637" y="51"/>
			<point x="623" y="60" type="curve" smooth="yes"/>
			<point x="602" y="74"/>
			<point x="581" y="83"/>
		</contour>
		<contour>
			<point x="184" y="345" type="curve" smooth="yes"/>
			<point x="221" y="517"/>
			<point x="322" y="620"/>
			<point x="457" y="620" type="curve" smooth="yes"/>
			<point x="591" y="620"/>
			<point x="650" y="517"/>
			<point x="613" y="345" type="curve" smooth="yes"/>
			<point x="577" y="174"/>
			<point x="475" y="70"/>
			<point x="341" y="70" type="curve" smooth="yes"/>
			<point x="206" y="70"/>
			<point x="148" y="174"/>
		</contour>
	</outline>
</glyph>
<glyph name="R" format="2">
	<advance width="635"/>
	<unicode hex="0052"/>
	<note>
		R
	</note>
	<outline>
		<contour>
			<point x="552" y="178" type="curve" smooth="yes"/>
			<point x="560" y="250"/>
			<point x="547" y="310"/>
			<point x="490" y="337" type="curve"/>
			<point x="568" y="359"/>
			<point x="634" y="412"/>
			<point x="653" y="502" type="curve" smooth="yes"/>
			<point x="678" y="620"/>
			<point x="615" y="673"/>
			<point x="517" y="686" type="curve" smooth="yes"/>
			<point x="485" y="690"/>
			<point x="460" y="690"/>
			<point x="423" y="690" type="curve" smooth="yes"/>
			<point x="237" y="690" type="line" smooth="yes"/>
			<point x="202" y="690"/>
			<point x="181" y="674"/>
			<point x="174" y="639" type="curve" smooth="yes"/>
			<point x="52" y="59" type="line" smooth="yes"/>
			<point x="45" y="25"/>
			<point x="70" y="-5"/>
			<point x="104" y="-5" type="curve" smooth="yes"/>
			<point x="130" y="-5"/>
			<point x="152" y="12"/>
			<point x="157" y="37" type="curve" smooth="yes"/>
			<point x="210" y="288" type="line"/>
			<point x="317" y="288" type="line" smooth="yes"/>
			<point x="334" y="288"/>
			<point x="351" y="288"/>
			<point x="368" y="287" type="curve" smooth="yes"/>
			<point x="430" y="283"/>
			<point x="447" y="237"/>
			<point x="441" y="164" type="curve" smooth="yes"/>
			<point x="435" y="115"/>
			<point x="433" y="80"/>
			<point x="435" y="47" type="curve" smooth="yes"/>
			<point x="436" y="18"/>
			<point x="461" y="-6"/>
			<point x="490" y="-6" type="curve" smooth="yes"/>
			<point x="523" y="-6"/>
			<point x="549" y="23"/>
			<point x="546" y="55" type="curve" smooth="yes"/>
			<point x="543" y="88"/>
			<point x="546" y="127"/>
		</contour>
		<contour>
			<point x="343" y="373" type="curve" smooth="yes"/>
			<point x="228" y="373" type="line"/>
			<point x="277" y="603" type="line"/>
			<point x="399" y="603" type="line" smooth="yes"/>
			<point x="427" y="603"/>
			<point x="445" y="602"/>
			<point x="462" y="599" type="curve" smooth="yes"/>
			<point x="519" y="591"/>
			<point x="550" y="561"/>
			<point x="534" y="488" type="curve" smooth="yes"/>
			<point x="519" y="415"/>
			<point x="467" y="381"/>
			<point x="405" y="375" type="curve" smooth="yes"/>
			<point x="388" y="373"/>
			<point x="371" y="373"/>
		</contour>
	</outline>
</glyph>
<glyph name="X" format="2">
	<advance width="648"/>
	<unicode hex="0058"/>
	<note>
		X
	</note>
	<outline>
		<contour>
			<point x="334" y="279" type="line"/>
			<point x="450" y="28" type="line" smooth="yes"/>
			<point x="459" y="9"/>
			<point x="479" y="-5"/>
			<point x="502" y="-5" type="curve" smooth="yes"/>
			<point x="533" y="-5"/>
			<point x="559" y="20"/>
			<point x="559" y="51" type="curve" smooth="yes"/>
			<point x="559" y="61"/>
			<point x="557" y="70"/>
			<point x="553" y="77" type="curve" smooth="yes"/>
			<point x="417" y="351" type="line"/>
			<point x="663" y="619" type="line" smooth="yes"/>
			<point x="697" y="656"/>
			<point x="689" y="690"/>
			<point x="646" y="690" type="curve" smooth="yes"/>
			<point x="616" y="690"/>
			<point x="595" y="681"/>
			<point x="575" y="658" type="curve" smooth="yes"/>
			<point x="369" y="420" type="line"/>
			<point x="268" y="661" type="line" smooth="yes"/>
			<point x="260" y="681"/>
			<point x="240" y="696"/>
			<point x="216" y="696" type="curve" smooth="yes"/>
			<point x="185" y="696"/>
			<point x="159" y="670"/>
			<point x="159" y="639" type="curve" smooth="yes"/>
			<point x="159" y="630"/>
			<point x="161" y="623"/>
			<point x="164" y="615" type="curve" smooth="yes"/>
			<point x="287" y="348" type="line"/>
			<point x="32" y="71" type="line" smooth="yes"/>
			<point x="-2" y="34"/>
			<point x="7" y="0"/>
			<point x="52" y="0" type="curve" smooth="yes"/>
			<point x="82" y="0"/>
			<point x="104" y="10"/>
			<point x="123" y="33" type="curve" smooth="yes"/>
		</contour>
	</outline>
</glyph>
<glyph name="Z" format="2">
	<advance width="605"/>
	<unicode hex="005A"/>
	<note>
		Z
	</note>
	<outline>
		<contour>
			<point x="519" y="88"/>
			<point x="495" y="88" type="curve" smooth="yes"/>
			<point x="141" y="88" type="line"/>
			<point x="644" y="600" type="line" smooth="yes"/>
			<point x="653" y="610"/>
			<point x="659" y="623"/>
			<point x="659" y="637" type="curve" smooth="yes"/>
			<point x="659" y="666"/>
			<point x="636" y="690"/>
			<point x="607" y="690" type="curve" smooth="yes"/>
			<point x="196" y="690" type="line" smooth="yes"/>
			<point x="172" y="690"/>
			<point x="152" y="671"/>
			<point x="152" y="647" type="curve" smooth="yes"/>
			<point x="152" y="622"/>
			<point x="172" y="603"/>
			<point x="196" y="603" type="curve" smooth="yes"/>
			<point x="520" y="603" type="line"/>
			<point x="13" y="87" type="line" smooth="yes"/>
			<point x="4" y="77"/>
			<point x="-1" y="65"/>
			<point x="-1" y="51" type="curve" smooth="yes"/>
			<point x="-1" y="23"/>
			<point x="22" y="0"/>
			<point x="50" y="0" type="curve" smooth="yes"/>
			<point x="495" y="0" type="line" smooth="yes"/>
			<point x="519" y="0"/>
			<point x="539" y="20"/>
			<point x="539" y="44" type="curve" smooth="yes"/>
			<point x="539" y="68"/>
		</contour>
	</outline>
</glyph>
<glyph name="backslash" format="2">
	<advance width="314"/>
	<unicode hex="005C"/>
	<note>
		backslash
	</note>
	<outline>
		<contour>
			<point x="255" y="-16"/>
			<point x="252" y="5" type="curve" smooth="yes"/>
			<point x="168" y="694" type="line" smooth="yes"/>
			<point x="166" y="712"/>
			<point x="151" y="726"/>
			<point x="132" y="726" type="curve" smooth="yes"/>
			<point x="111" y="726"/>
			<point x="93" y="706"/>
			<point x="96" y="685" type="curve" smooth="yes"/>
			<point x="180" y="-4" type="line" smooth="yes"/>
			<point x="182" y="-22"/>
			<point x="197" y="-36"/>
			<point x="216" y="-36" type="curve" smooth="yes"/>
			<point x="237" y="-36"/>
		</contour>
	</outline>
</glyph>
<glyph name="bracketright" format="2">
	<advance width="324"/>
	<unicode hex="005D"/>
	<note>
		bracketright
	</note>
	<outline>
		<contour>
			<point x="-5" y="-80" type="curve" smooth="yes"/>
			<point x="98" y="-80" type="line" smooth="yes"/>
			<point x="133" y="-80"/>
			<point x="154" y="-64"/>
			<point x="161" y="-29" type="curve" smooth="yes"/>
			<point x="319" y="717" type="line" smooth="yes"/>
			<point x="327" y="756"/>
			<point x="307" y="780"/>
			<point x="267" y="780" type="curve" smooth="yes"/>
			<point x="163" y="780" type="line" smooth="yes"/>
			<point x="145" y="780"/>
			<point x="130" y="765"/>
			<point x="130" y="747" type="curve" smooth="yes"/>
			<point x="130" y="729"/>
			<point x="145" y="714"/>
			<point x="163" y="714" type="curve" smooth="yes"/>
			<point x="250" y="714" type="line"/>
			<point x="96" y="-14" type="line"/>
			<point x="-5" y="-14" type="line" smooth="yes"/>
			<point x="-23" y="-14"/>
			<point x="-38" y="-29"/>
			<point x="-38" y="-47" type="curve" smooth="yes"/>
			<point x="-38" y="-65"/>
			<point x="-23" y="-80"/>
		</contour>
	</outline>
</glyph>
<glyph name="asciicircum" format="2">
	<advance width="601"/>
	<unicode hex="005E"/>
	<note>
		asciicircum
	</note>
	<outline>
		<contour>
			<point x="362" y="550" type="line"/>
			<point x="419" y="241" type="line" smooth="yes"/>
			<point x="422" y="224"/>
			<point x="438" y="210"/>
			<point x="457" y="210" type="curve" smooth="yes"/>
			<point x="481" y="210"/>
			<point x="499" y="233"/>
			<point x="494" y="256" type="curve" smooth="yes"/>
			<point x="423" y="578" type="line" smooth="yes"/>
			<point x="418" y="603"/>
			<point x="396" y="622"/>
			<point x="369" y="622" type="curve" smooth="yes"/>
			<point x="349" y="622"/>
			<point x="332" y="612"/>
			<point x="322" y="596" type="curve" smooth="yes"/>
			<point x="105" y="261" type="line" smooth="yes"/>
			<point x="102" y="256"/>
			<point x="100" y="250"/>
			<point x="100" y="243" type="curve" smooth="yes"/>
			<point x="100" y="224"/>
			<point x="114" y="210"/>
			<point x="133" y="210" type="curve" smooth="yes"/>
			<point x="145" y="210"/>
			<point x="155" y="216"/>
			<point x="161" y="225" type="curve" smooth="yes"/>
		</contour>
	</outline>
</glyph>
<glyph name="underscore" format="2">
	<advance width="500"/>
	<unicode hex="005F"/>
	<note>
		underscore
	</note>
	<outline>
		<contour>
			<point x="10" y="-87" type="curve" smooth="yes"/>
			<point x="354" y="-87" type="line" smooth="yes"/>
			<point x="372" y="-87"/>
			<point x="387" y="-72"/>
			<point x="387" y="-54" type="curve" smooth="yes"/>
			<point x="387" y="-36"/>
			<point x="372" y="-21"/>
			<point x="354" y="-21" type="curve" smooth="yes"/>
			<point x="10" y="-21" type="line" smooth="yes"/>
			<point x="-8" y="-21"/>
			<point x="-23" y="-36"/>
			<point x="-23" y="-54" type="curve" smooth="yes"/>
			<point x="-23" y="-72"/>
			<point x="-8" y="-87"/>
		</contour>
	</outline>
</glyph>
<glyph name="grave" format="2">
	<advance width="300"/>
	<unicode hex="0060"/>
	<note>
		grave
	</note>
	<outline>
		<contour>
			<point x="245" y="605" type="curve" smooth="yes"/>
			<point x="245" y="611" type="line" smooth="yes"/>
			<point x="248" y="638"/>
			<point x="236" y="664"/>
			<point x="217" y="681" type="curve" smooth="yes"/>
			<point x="197" y="699"/>
			<point x="170" y="703"/>
			<point x="154" y="682" type="curve" smooth="yes"/>
			<point x="149" y="676"/>
			<point x="146" y="667"/>
			<point x="146" y="658" type="curve" smooth="yes"/>
			<point x="148" y="632"/>
			<point x="161" y="608"/>
			<point x="181" y="591" type="curve" smooth="yes"/>
			<point x="202" y="574"/>
			<point x="232" y="568"/>
			<point x="242" y="592" type="curve" smooth="yes"/>
			<point x="244" y="596"/>
			<point x="245" y="600"/>
		</contour>
	</outline>
</glyph>
<glyph name="f" format="2">
	<advance width="312"/>
	<unicode hex="0066"/>
	<note>
		f
	</note>
	<outline>
		<contour>
			<point x="265" y="618" type="curve" smooth="yes"/>
			<point x="277" y="654"/>
			<point x="312" y="671"/>
			<point x="361" y="669" type="curve" smooth="yes"/>
			<point x="384" y="668"/>
			<point x="405" y="687"/>
			<point x="405" y="711" type="curve" smooth="yes"/>
			<point x="405" y="734"/>
			<point x="387" y="753"/>
			<point x="365" y="754" type="curve" smooth="yes"/>
			<point x="348" y="754" type="line" smooth="yes"/>
			<point x="248" y="754"/>
			<point x="183" y="706"/>
			<point x="156" y="624" type="curve" smooth="yes"/>
			<point x="150" y="606"/>
			<point x="145" y="580"/>
			<point x="141" y="561" type="curve" smooth="yes"/>
			<point x="134" y="527" type="line"/>
			<point x="102" y="527" type="line" smooth="yes"/>
			<point x="81" y="527"/>
			<point x="64" y="510"/>
			<point x="64" y="488" type="curve" smooth="yes"/>
			<point x="64" y="467"/>
			<point x="81" y="450"/>
			<point x="102" y="450" type="curve" smooth="yes"/>
			<point x="117" y="450" type="line"/>
			<point x="34" y="59" type="line" smooth="yes"/>
			<point x="27" y="25"/>
			<point x="53" y="-6"/>
			<point x="87" y="-6" type="curve" smooth="yes"/>
			<point x="112" y="-6"/>
			<point x="134" y="12"/>
			<point x="139" y="37" type="curve" smooth="yes"/>
			<point x="226" y="450" type="line"/>
			<point x="310" y="450" type="line" smooth="yes"/>
			<point x="331" y="450"/>
			<point x="348" y="467"/>
			<point x="348" y="488" type="curve" smooth="yes"/>
			<point x="348" y="510"/>
			<point x="331" y="527"/>
			<point x="310" y="527" type="curve" smooth="yes"/>
			<point x="243" y="527" type="line"/>
			<point x="251" y="567" type="line" smooth="yes"/>
			<point x="254" y="582"/>
			<point x="260" y="604"/>
		</contour>
	</outline>
</glyph>
<glyph name="i" format="2">
	<advance width="251"/>
	<unicode hex="0069"/>
	<note>
		i
	</note>
	<outline>
		<contour>
			<point x="126" y="12"/>
			<point x="131" y="37" type="curve" smooth="yes"/>
			<point x="223" y="472" type="line" smooth="yes"/>
			<point x="230" y="506"/>
			<point x="205" y="536"/>
			<point x="171" y="536" type="curve" smooth="yes"/>
			<point x="145" y="536"/>
			<point x="123" y="519"/>
			<point x="118" y="494" type="curve" smooth="yes"/>
			<point x="26" y="59" type="line" smooth="yes"/>
			<point x="19" y="25"/>
			<point x="44" y="-5"/>
			<point x="78" y="-5" type="curve" smooth="yes"/>
			<point x="104" y="-5"/>
		</contour>
		<contour>
			<point x="176" y="589"/>
			<point x="211" y="589" type="curve" smooth="yes"/>
			<point x="236" y="589"/>
			<point x="253" y="605"/>
			<point x="260" y="640" type="curve" smooth="yes"/>
			<point x="264" y="661" type="line" smooth="yes"/>
			<point x="272" y="699"/>
			<point x="237" y="729"/>
			<point x="203" y="720" type="curve" smooth="yes"/>
			<point x="172" y="712"/>
			<point x="147" y="685"/>
			<point x="147" y="652" type="curve" smooth="yes"/>
			<point x="147" y="617"/>
		</contour>
	</outline>
</glyph>
<glyph name="j" format="2">
	<advance width="245"/>
	<unicode hex="006A"/>
	<note>
		j
	</note>
	<outline>
		<contour>
			<point x="111" y="-31" type="curve" smooth="yes"/>
			<point x="218" y="472" type="line" smooth="yes"/>
			<point x="225" y="506"/>
			<point x="200" y="536"/>
			<point x="166" y="536" type="curve" smooth="yes"/>
			<point x="141" y="536"/>
			<point x="119" y="518"/>
			<point x="114" y="494" type="curve" smooth="yes"/>
			<point x="1" y="-34" type="line" smooth="yes"/>
			<point x="-2" y="-49"/>
			<point x="-5" y="-65"/>
			<point x="-10" y="-79" type="curve" smooth="yes"/>
			<point x="-20" y="-108"/>
			<point x="-39" y="-123"/>
			<point x="-78" y="-125" type="curve" smooth="yes"/>
			<point x="-100" y="-126"/>
			<point x="-119" y="-145"/>
			<point x="-119" y="-168" type="curve" smooth="yes"/>
			<point x="-119" y="-191"/>
			<point x="-100" y="-210"/>
			<point x="-77" y="-210" type="curve" smooth="yes"/>
			<point x="23" y="-210"/>
			<point x="73" y="-168"/>
			<point x="95" y="-95" type="curve" smooth="yes"/>
			<point x="100" y="-77"/>
			<point x="107" y="-51"/>
		</contour>
		<contour>
			<point x="171" y="591"/>
			<point x="206" y="591" type="curve" smooth="yes"/>
			<point x="231" y="591"/>
			<point x="248" y="607"/>
			<point x="255" y="642" type="curve" smooth="yes"/>
			<point x="259" y="663" type="line" smooth="yes"/>
			<point x="267" y="701"/>
			<point x="232" y="731"/>
			<point x="198" y="722" type="curve" smooth="yes"/>
			<point x="167" y="714"/>
			<point x="142" y="687"/>
			<point x="142" y="654" type="curve" smooth="yes"/>
			<point x="142" y="619"/>
		</contour>
	</outline>
</glyph>
<glyph name="l" format="2">
	<advance width="262"/>
	<unicode hex="006C"/>
	<note>
		l
	</note>
	<outline>
		<contour>
			<point x="153" y="162" type="curve" smooth="yes"/>
			<point x="262" y="675" type="line" smooth="yes"/>
			<point x="269" y="709"/>
			<point x="244" y="740"/>
			<point x="210" y="740" type="curve" smooth="yes"/>
			<point x="184" y="740"/>
			<point x="162" y="723"/>
			<point x="157" y="698" type="curve" smooth="yes"/>
			<point x="42" y="159" type="line" smooth="yes"/>
			<point x="36" y="127"/>
			<point x="31" y="103"/>
			<point x="27" y="83" type="curve" smooth="yes"/>
			<point x="17" y="15"/>
			<point x="51" y="-6"/>
			<point x="109" y="-6" type="curve" smooth="yes"/>
			<point x="125" y="-6"/>
			<point x="140" y="-5"/>
			<point x="157" y="-4" type="curve" smooth="yes"/>
			<point x="178" y="-3"/>
			<point x="195" y="15"/>
			<point x="195" y="36" type="curve" smooth="yes"/>
			<point x="195" y="56"/>
			<point x="182" y="73"/>
			<point x="164" y="77" type="curve" smooth="yes"/>
			<point x="145" y="81"/>
			<point x="140" y="92"/>
			<point x="143" y="112" type="curve" smooth="yes"/>
			<point x="146" y="128"/>
			<point x="149" y="144"/>
		</contour>
	</outline>
</glyph>
<glyph name="m" format="2">
	<advance width="883"/>
	<unicode hex="006D"/>
	<note>
		m
	</note>
	<outline>
		<contour>
			<point x="845" y="415" type="curve" smooth="yes"/>
			<point x="848" y="488"/>
			<point x="805" y="545"/>
			<point x="707" y="545" type="curve" smooth="yes"/>
			<point x="674" y="545"/>
			<point x="645" y="541"/>
			<point x="619" y="530" type="curve" smooth="yes"/>
			<point x="594" y="520"/>
			<point x="581" y="508"/>
			<point x="563" y="488" type="curve" smooth="yes"/>
			<point x="523" y="444" type="line"/>
			<point x="516" y="503"/>
			<point x="472" y="545"/>
			<point x="388" y="545" type="curve" smooth="yes"/>
			<point x="355" y="545"/>
			<point x="326" y="541"/>
			<point x="300" y="531" type="curve" smooth="yes"/>
			<point x="275" y="521"/>
			<point x="261" y="506"/>
			<point x="245" y="485" type="curve" smooth="yes"/>
			<point x="219" y="452" type="line"/>
			<point x="223" y="471" type="line" smooth="yes"/>
			<point x="230" y="505"/>
			<point x="205" y="537"/>
			<point x="171" y="537" type="curve" smooth="yes"/>
			<point x="145" y="537"/>
			<point x="123" y="519"/>
			<point x="118" y="494" type="curve" smooth="yes"/>
			<point x="26" y="59" type="line" smooth="yes"/>
			<point x="19" y="25"/>
			<point x="44" y="-5"/>
			<point x="78" y="-5" type="curve" smooth="yes"/>
			<point x="104" y="-5"/>
			<point x="126" y="12"/>
			<point x="131" y="37" type="curve" smooth="yes"/>
			<point x="179" y="267" type="line" smooth="yes"/>
			<point x="210" y="411"/>
			<point x="263" y="464"/>
			<point x="328" y="464" type="curve" smooth="yes"/>
			<point x="385" y="464"/>
			<point x="413" y="434"/>
			<point x="409" y="377" type="curve" smooth="yes"/>
			<point x="406" y="350"/>
			<point x="401" y="321"/>
			<point x="392" y="281" type="curve" smooth="yes"/>
			<point x="345" y="59" type="line" smooth="yes"/>
			<point x="338" y="25"/>
			<point x="364" y="-5"/>
			<point x="398" y="-5" type="curve" smooth="yes"/>
			<point x="423" y="-5"/>
			<point x="445" y="12"/>
			<point x="450" y="37" type="curve" smooth="yes"/>
			<point x="498" y="267" type="line" smooth="yes"/>
			<point x="529" y="411"/>
			<point x="583" y="464"/>
			<point x="647" y="464" type="curve" smooth="yes"/>
			<point x="704" y="464"/>
			<point x="733" y="434"/>
			<point x="728" y="377" type="curve" smooth="yes"/>
			<point x="725" y="350"/>
			<point x="720" y="321"/>
			<point x="711" y="281" type="curve" smooth="yes"/>
			<point x="664" y="59" type="line" smooth="yes"/>
			<point x="657" y="25"/>
			<point x="683" y="-5"/>
			<point x="717" y="-5" type="curve" smooth="yes"/>
			<point x="743" y="-5"/>
			<point x="765" y="12"/>
			<point x="770" y="37" type="curve" smooth="yes"/>
			<point x="830" y="321" type="line" smooth="yes"/>
			<point x="839" y="364"/>
			<point x="843" y="388"/>
		</contour>
	</outline>
</glyph>
<glyph name="p" format="2">
	<advance width="626"/>
	<unicode hex="0070"/>
	<note>
		p
	</note>
	<outline>
		<contour>
			<point x="418" y="545" type="curve" smooth="yes"/>
			<point x="376" y="545"/>
			<point x="330" y="536"/>
			<point x="296" y="520" type="curve" smooth="yes"/>
			<point x="276" y="510"/>
			<point x="263" y="498"/>
			<point x="246" y="479" type="curve" smooth="yes"/>
			<point x="218" y="448" type="line"/>
			<point x="223" y="471" type="line" smooth="yes"/>
			<point x="230" y="505"/>
			<point x="205" y="537"/>
			<point x="171" y="537" type="curve" smooth="yes"/>
			<point x="145" y="537"/>
			<point x="123" y="519"/>
			<point x="118" y="494" type="curve" smooth="yes"/>
			<point x="-16" y="-137" type="line" smooth="yes"/>
			<point x="-23" y="-171"/>
			<point x="2" y="-202"/>
			<point x="36" y="-202" type="curve" smooth="yes"/>
			<point x="62" y="-202"/>
			<point x="84" y="-184"/>
			<point x="89" y="-159" type="curve" smooth="yes"/>
			<point x="138" y="72" type="line"/>
			<point x="150" y="46" type="line" smooth="yes"/>
			<point x="159" y="26"/>
			<point x="169" y="10"/>
			<point x="195" y="0" type="curve" smooth="yes"/>
			<point x="220" y="-9"/>
			<point x="252" y="-14"/>
			<point x="281" y="-14" type="curve" smooth="yes"/>
			<point x="418" y="-14"/>
			<point x="558" y="80"/>
			<point x="599" y="275" type="curve" smooth="yes"/>
			<point x="632" y="430"/>
			<point x="570" y="545"/>
		</contour>
		<contour>
			<point x="285" y="66" type="curve" smooth="yes"/>
			<point x="215" y="66"/>
			<point x="147" y="114"/>
			<point x="175" y="244" type="curve" smooth="yes"/>
			<point x="180" y="271" type="line" smooth="yes"/>
			<point x="210" y="413"/>
			<point x="293" y="465"/>
			<point x="375" y="465" type="curve" smooth="yes"/>
			<point x="471" y="465"/>
			<point x="505" y="380"/>
			<point x="481" y="265" type="curve" smooth="yes"/>
			<point x="453" y="133"/>
			<point x="373" y="66"/>
		</contour>
	</outline>
</glyph>
<glyph name="r" format="2">
	<advance width="353"/>
	<unicode hex="0072"/>
	<note>
		r
	</note>
	<outline>
		<contour>
			<point x="328" y="538" type="curve" smooth="yes"/>
			<point x="310" y="532" type="line" smooth="yes"/>
			<point x="284" y="521"/>
			<point x="271" y="507"/>
			<point x="254" y="486" type="curve" smooth="yes"/>
			<point x="216" y="441" type="line"/>
			<point x="223" y="471" type="line" smooth="yes"/>
			<point x="230" y="505"/>
			<point x="205" y="537"/>
			<point x="171" y="537" type="curve" smooth="yes"/>
			<point x="145" y="537"/>
			<point x="123" y="519"/>
			<point x="118" y="494" type="curve" smooth="yes"/>
			<point x="26" y="59" type="line" smooth="yes"/>
			<point x="19" y="25"/>
			<point x="44" y="-5"/>
			<point x="78" y="-5" type="curve" smooth="yes"/>
			<point x="104" y="-5"/>
			<point x="126" y="12"/>
			<point x="131" y="37" type="curve" smooth="yes"/>
			<point x="181" y="276" type="line" smooth="yes"/>
			<point x="206" y="392"/>
			<point x="266" y="446"/>
			<point x="353" y="451" type="curve" smooth="yes"/>
			<point x="377" y="452"/>
			<point x="397" y="473"/>
			<point x="397" y="499" type="curve" smooth="yes"/>
			<point x="397" y="509"/>
			<point x="394" y="519"/>
			<point x="388" y="527" type="curve" smooth="yes"/>
			<point x="376" y="544"/>
			<point x="354" y="546"/>
		</contour>
	</outline>
</glyph>
<glyph name="s" format="2">
	<advance width="476"/>
	<unicode hex="0073"/>
	<note>
		s
	</note>
	<outline>
		<contour>
			<point x="300" y="545" type="curve" smooth="yes"/>
			<point x="182" y="545"/>
			<point x="91" y="485"/>
			<point x="70" y="386" type="curve" smooth="yes"/>
			<point x="50" y="293"/>
			<point x="113" y="252"/>
			<point x="205" y="227" type="curve" smooth="yes"/>
			<point x="290" y="203"/>
			<point x="321" y="178"/>
			<point x="311" y="132" type="curve" smooth="yes"/>
			<point x="301" y="86"/>
			<point x="255" y="64"/>
			<point x="204" y="64" type="curve" smooth="yes"/>
			<point x="161" y="64"/>
			<point x="128" y="81"/>
			<point x="116" y="123" type="curve" smooth="yes"/>
			<point x="109" y="148"/>
			<point x="87" y="165"/>
			<point x="61" y="165" type="curve" smooth="yes"/>
			<point x="29" y="165"/>
			<point x="3" y="140"/>
			<point x="3" y="108" type="curve" smooth="yes"/>
			<point x="3" y="103"/>
			<point x="4" y="98"/>
			<point x="5" y="94" type="curve" smooth="yes"/>
			<point x="25" y="19"/>
			<point x="91" y="-14"/>
			<point x="184" y="-14" type="curve" smooth="yes"/>
			<point x="300" y="-14"/>
			<point x="402" y="37"/>
			<point x="423" y="140" type="curve" smooth="yes"/>
			<point x="443" y="234"/>
			<point x="392" y="280"/>
			<point x="283" y="310" type="curve" smooth="yes"/>
			<point x="208" y="331"/>
			<point x="173" y="351"/>
			<point x="183" y="399" type="curve" smooth="yes"/>
			<point x="192" y="439"/>
			<point x="223" y="468"/>
			<point x="275" y="468" type="curve" smooth="yes"/>
			<point x="315" y="468"/>
			<point x="340" y="450"/>
			<point x="349" y="415" type="curve" smooth="yes"/>
			<point x="356" y="390"/>
			<point x="378" y="373"/>
			<point x="405" y="373" type="curve" smooth="yes"/>
			<point x="436" y="373"/>
			<point x="462" y="398"/>
			<point x="462" y="430" type="curve" smooth="yes"/>
			<point x="462" y="436"/>
			<point x="461" y="441"/>
			<point x="460" y="446" type="curve" smooth="yes"/>
			<point x="443" y="507"/>
			<point x="390" y="545"/>
		</contour>
	</outline>
</glyph>
<glyph name="braceright" format="2">
	<advance width="335"/>
	<unicode hex="007D"/>
	<note>
		braceright
	</note>
	<outline>
		<contour>
			<point x="270" y="384"/>
			<point x="255" y="389" type="curve" smooth="yes"/>
			<point x="218" y="400"/>
			<point x="211" y="424"/>
			<point x="217" y="455" type="curve" smooth="yes"/>
			<point x="223" y="482"/>
			<point x="232" y="509"/>
			<point x="250" y="560" type="curve" smooth="yes"/>
			<point x="274" y="626"/>
			<point x="280" y="647"/>
			<point x="286" y="672" type="curve" smooth="yes"/>
			<point x="303" y="753"/>
			<point x="262" y="780"/>
			<point x="172" y="780" type="curve" smooth="yes"/>
			<point x="154" y="780"/>
			<point x="139" y="765"/>
			<point x="139" y="747" type="curve" smooth="yes"/>
			<point x="139" y="741"/>
			<point x="140" y="735"/>
			<point x="142" y="729" type="curve" smooth="yes"/>
			<point x="146" y="717"/>
			<point x="167" y="720"/>
			<point x="198" y="708" type="curve" smooth="yes"/>
			<point x="216" y="701"/>
			<point x="220" y="687"/>
			<point x="216" y="667" type="curve" smooth="yes"/>
			<point x="212" y="647"/>
			<point x="207" y="632"/>
			<point x="185" y="570" type="curve" smooth="yes"/>
			<point x="162" y="506"/>
			<point x="152" y="479"/>
			<point x="147" y="452" type="curve" smooth="yes"/>
			<point x="135" y="396"/>
			<point x="158" y="358"/>
			<point x="210" y="349" type="curve"/>
			<point x="153" y="340"/>
			<point x="116" y="305"/>
			<point x="103" y="248" type="curve" smooth="yes"/>
			<point x="98" y="221"/>
			<point x="96" y="194"/>
			<point x="91" y="130" type="curve" smooth="yes"/>
			<point x="87" y="69"/>
			<point x="86" y="54"/>
			<point x="82" y="33" type="curve" smooth="yes"/>
			<point x="77" y="9"/>
			<point x="64" y="-5"/>
			<point x="34" y="-11" type="curve" smooth="yes"/>
			<point x="8" y="-16"/>
			<point x="-19" y="-12"/>
			<point x="-27" y="-36" type="curve" smooth="yes"/>
			<point x="-28" y="-40"/>
			<point x="-29" y="-43"/>
			<point x="-29" y="-47" type="curve" smooth="yes"/>
			<point x="-29" y="-54"/>
			<point x="-27" y="-61"/>
			<point x="-24" y="-66" type="curve" smooth="yes"/>
			<point x="-17" y="-79"/>
			<point x="1" y="-81"/>
			<point x="30" y="-78" type="curve" smooth="yes"/>
			<point x="95" y="-70"/>
			<point x="134" y="-40"/>
			<point x="149" y="29" type="curve" smooth="yes"/>
			<point x="154" y="53"/>
			<point x="156" y="74"/>
			<point x="160" y="140" type="curve" smooth="yes"/>
			<point x="164" y="191"/>
			<point x="167" y="218"/>
			<point x="173" y="245" type="curve" smooth="yes"/>
			<point x="180" y="280"/>
			<point x="200" y="305"/>
			<point x="250" y="313" type="curve" smooth="yes"/>
			<point x="268" y="316"/>
			<point x="282" y="332"/>
			<point x="282" y="351" type="curve" smooth="yes"/>
			<point x="282" y="369"/>
		</contour>
	</outline>
</glyph>
<glyph name="asciitilde" format="2">
	<advance width="601"/>
	<unicode hex="007E"/>
	<note>
		asciitilde
	</note>
	<outline>
		<contour>
			<point x="476" y="365"/>
			<point x="472" y="351" type="curve" smooth="yes"/>
			<point x="460" y="312"/>
			<point x="444" y="293"/>
			<point x="413" y="293" type="curve" smooth="yes"/>
			<point x="386" y="293"/>
			<point x="362" y="307"/>
			<point x="327" y="328" type="curve" smooth="yes"/>
			<point x="282" y="355"/>
			<point x="258" y="369"/>
			<point x="217" y="369" type="curve" smooth="yes"/>
			<point x="151" y="369"/>
			<point x="106" y="333"/>
			<point x="82" y="259" type="curve" smooth="yes"/>
			<point x="76" y="241"/>
			<point x="89" y="217"/>
			<point x="112" y="217" type="curve" smooth="yes"/>
			<point x="126" y="217"/>
			<point x="138" y="227"/>
			<point x="142" y="241" type="curve" smooth="yes"/>
			<point x="153" y="279"/>
			<point x="170" y="299"/>
			<point x="201" y="299" type="curve" smooth="yes"/>
			<point x="227" y="299"/>
			<point x="250" y="286"/>
			<point x="287" y="264" type="curve" smooth="yes"/>
			<point x="332" y="237"/>
			<point x="356" y="223"/>
			<point x="396" y="223" type="curve" smooth="yes"/>
			<point x="462" y="223"/>
			<point x="508" y="259"/>
			<point x="532" y="333" type="curve" smooth="yes"/>
			<point x="538" y="351"/>
			<point x="525" y="375"/>
			<point x="502" y="375" type="curve" smooth="yes"/>
			<point x="488" y="375"/>
		</contour>
	</outline>
</glyph>
<glyph name="cent" format="2">
	<advance width="586"/>
	<unicode hex="00A2"/>
	<note>
		cent
	</note>
	<outline>
		<contour>
			<point x="295" y="70" type="curve"/>
			<point x="378" y="461" type="line"/>
			<point x="415" y="453"/>
			<point x="441" y="429"/>
			<point x="449" y="384" type="curve" smooth="yes"/>
			<point x="454" y="358"/>
			<point x="477" y="340"/>
			<point x="503" y="340" type="curve" smooth="yes"/>
			<point x="538" y="340"/>
			<point x="563" y="371"/>
			<point x="558" y="404" type="curve" smooth="yes"/>
			<point x="545" y="483"/>
			<point x="489" y="535"/>
			<point x="395" y="543" type="curve"/>
			<point x="404" y="586" type="line" smooth="yes"/>
			<point x="408" y="606"/>
			<point x="392" y="626"/>
			<point x="371" y="626" type="curve" smooth="yes"/>
			<point x="355" y="626"/>
			<point x="342" y="615"/>
			<point x="339" y="599" type="curve" smooth="yes"/>
			<point x="327" y="541" type="line"/>
			<point x="203" y="522"/>
			<point x="87" y="424"/>
			<point x="53" y="263" type="curve" smooth="yes"/>
			<point x="15" y="88"/>
			<point x="87" y="-1"/>
			<point x="209" y="-13" type="curve"/>
			<point x="200" y="-55" type="line" smooth="yes"/>
			<point x="196" y="-75"/>
			<point x="212" y="-95"/>
			<point x="233" y="-95" type="curve" smooth="yes"/>
			<point x="249" y="-95"/>
			<point x="262" y="-85"/>
			<point x="265" y="-69" type="curve" smooth="yes"/>
			<point x="277" y="-12" type="line"/>
			<point x="360" y="-3"/>
			<point x="432" y="37"/>
			<point x="482" y="108" type="curve" smooth="yes"/>
			<point x="487" y="116"/>
			<point x="490" y="125"/>
			<point x="490" y="135" type="curve" smooth="yes"/>
			<point x="490" y="161"/>
			<point x="469" y="182"/>
			<point x="443" y="182" type="curve" smooth="yes"/>
			<point x="425" y="182"/>
			<point x="410" y="172"/>
			<point x="402" y="157" type="curve" smooth="yes"/>
			<point x="376" y="108"/>
			<point x="337" y="79"/>
		</contour>
		<contour>
			<point x="165" y="270" type="curve" smooth="yes"/>
			<point x="188" y="380"/>
			<point x="246" y="441"/>
			<point x="309" y="458" type="curve"/>
			<point x="227" y="71" type="line"/>
			<point x="172" y="88"/>
			<point x="139" y="149"/>
		</contour>
	</outline>
</glyph>
<glyph name="sterling" format="2">
	<advance width="601"/>
	<unicode hex="00A3"/>
	<note>
		sterling
	</note>
	<outline>
		<contour>
			<point x="477" y="88"/>
			<point x="453" y="88" type="curve" smooth="yes"/>
			<point x="165" y="88" type="line"/>
			<point x="227" y="118"/>
			<point x="265" y="160"/>
			<point x="278" y="224" type="curve" smooth="yes"/>
			<point x="284" y="253"/>
			<point x="286" y="279"/>
			<point x="282" y="310" type="curve"/>
			<point x="446" y="310" type="line" smooth="yes"/>
			<point x="463" y="310"/>
			<point x="478" y="324"/>
			<point x="478" y="342" type="curve" smooth="yes"/>
			<point x="478" y="360"/>
			<point x="463" y="374"/>
			<point x="446" y="374" type="curve" smooth="yes"/>
			<point x="270" y="374" type="line"/>
			<point x="257" y="433"/>
			<point x="254" y="462"/>
			<point x="264" y="511" type="curve" smooth="yes"/>
			<point x="276" y="566"/>
			<point x="320" y="620"/>
			<point x="389" y="620" type="curve" smooth="yes"/>
			<point x="438" y="620"/>
			<point x="465" y="597"/>
			<point x="472" y="549" type="curve" smooth="yes"/>
			<point x="476" y="521"/>
			<point x="500" y="498"/>
			<point x="529" y="498" type="curve" smooth="yes"/>
			<point x="565" y="498"/>
			<point x="591" y="528"/>
			<point x="588" y="562" type="curve" smooth="yes"/>
			<point x="579" y="647"/>
			<point x="524" y="704"/>
			<point x="409" y="704" type="curve" smooth="yes"/>
			<point x="282" y="704"/>
			<point x="169" y="622"/>
			<point x="142" y="496" type="curve" smooth="yes"/>
			<point x="132" y="450"/>
			<point x="136" y="416"/>
			<point x="145" y="374" type="curve"/>
			<point x="120" y="374" type="line" smooth="yes"/>
			<point x="103" y="374"/>
			<point x="88" y="360"/>
			<point x="88" y="342" type="curve" smooth="yes"/>
			<point x="88" y="324"/>
			<point x="103" y="310"/>
			<point x="120" y="310" type="curve" smooth="yes"/>
			<point x="161" y="310" type="line"/>
			<point x="168" y="272"/>
			<point x="169" y="245"/>
			<point x="161" y="208" type="curve" smooth="yes"/>
			<point x="150" y="157"/>
			<point x="118" y="107"/>
			<point x="46" y="85" type="curve" smooth="yes"/>
			<point x="28" y="80"/>
			<point x="15" y="63"/>
			<point x="15" y="43" type="curve" smooth="yes"/>
			<point x="15" y="19"/>
			<point x="35" y="0"/>
			<point x="59" y="0" type="curve" smooth="yes"/>
			<point x="453" y="0" type="line" smooth="yes"/>
			<point x="477" y="0"/>
			<point x="497" y="20"/>
			<point x="497" y="44" type="curve" smooth="yes"/>
			<point x="497" y="68"/>
		</contour>
	</outline>
</glyph>
<glyph name="section" format="2">
	<advance width="578"/>
	<unicode hex="00A7"/>
	<note>
		section
	</note>
	<outline>
		<contour>
			<point x="545" y="243" type="curve" smooth="yes"/>
			<point x="566" y="342"/>
			<point x="513" y="397"/>
			<point x="377" y="437" type="curve" smooth="yes"/>
			<point x="286" y="463"/>
			<point x="257" y="496"/>
			<point x="269" y="550" type="curve" smooth="yes"/>
			<point x="279" y="599"/>
			<point x="318" y="627"/>
			<point x="362" y="627" type="curve" smooth="yes"/>
			<point x="399" y="627"/>
			<point x="423" y="608"/>
			<point x="431" y="572" type="curve" smooth="yes"/>
			<point x="437" y="547"/>
			<point x="460" y="529"/>
			<point x="487" y="529" type="curve" smooth="yes"/>
			<point x="526" y="529"/>
			<point x="551" y="565"/>
			<point x="543" y="599" type="curve" smooth="yes"/>
			<point x="527" y="665"/>
			<point x="473" y="704"/>
			<point x="380" y="704" type="curve" smooth="yes"/>
			<point x="268" y="704"/>
			<point x="174" y="640"/>
			<point x="152" y="536" type="curve" smooth="yes"/>
			<point x="144" y="500"/>
			<point x="149" y="469"/>
			<point x="164" y="444" type="curve"/>
			<point x="100" y="417"/>
			<point x="52" y="367"/>
			<point x="36" y="295" type="curve" smooth="yes"/>
			<point x="14" y="192"/>
			<point x="83" y="135"/>
			<point x="192" y="105" type="curve" smooth="yes"/>
			<point x="305" y="74"/>
			<point x="328" y="36"/>
			<point x="317" y="-17" type="curve" smooth="yes"/>
			<point x="306" y="-70"/>
			<point x="262" y="-97"/>
			<point x="211" y="-97" type="curve" smooth="yes"/>
			<point x="168" y="-97"/>
			<point x="136" y="-78"/>
			<point x="123" y="-34" type="curve" smooth="yes"/>
			<point x="116" y="-9"/>
			<point x="93" y="8"/>
			<point x="67" y="8" type="curve" smooth="yes"/>
			<point x="27" y="8"/>
			<point x="2" y="-29"/>
			<point x="10" y="-64" type="curve" smooth="yes"/>
			<point x="29" y="-140"/>
			<point x="96" y="-174"/>
			<point x="190" y="-174" type="curve" smooth="yes"/>
			<point x="301" y="-174"/>
			<point x="410" y="-118"/>
			<point x="433" y="-8" type="curve" smooth="yes"/>
			<point x="442" y="36"/>
			<point x="437" y="70"/>
			<point x="420" y="98" type="curve"/>
			<point x="481" y="126"/>
			<point x="531" y="177"/>
		</contour>
		<contour>
			<point x="151" y="299" type="curve" smooth="yes"/>
			<point x="162" y="350"/>
			<point x="193" y="377"/>
			<point x="230" y="384" type="curve"/>
			<point x="255" y="370"/>
			<point x="284" y="359"/>
			<point x="315" y="349" type="curve" smooth="yes"/>
			<point x="406" y="319"/>
			<point x="441" y="288"/>
			<point x="429" y="232" type="curve" smooth="yes"/>
			<point x="421" y="196"/>
			<point x="392" y="166"/>
			<point x="352" y="154" type="curve"/>
			<point x="326" y="168"/>
			<point x="295" y="180"/>
			<point x="258" y="190" type="curve" smooth="yes"/>
			<point x="183" y="211"/>
			<point x="140" y="248"/>
		</contour>
	</outline>
</glyph>
<glyph name="guillemotleft" format="2">
	<advance width="592"/>
	<unicode hex="00AB"/>
	<note>
		guillemotleft
	</note>
	<outline>
		<contour>
			<point x="210" y="248" type="line"/>
			<point x="335" y="368" type="line" smooth="yes"/>
			<point x="341" y="374"/>
			<point x="344" y="381"/>
			<point x="344" y="389" type="curve" smooth="yes"/>
			<point x="344" y="406"/>
			<point x="330" y="420"/>
			<point x="314" y="420" type="curve" smooth="yes"/>
			<point x="306" y="420"/>
			<point x="298" y="416"/>
			<point x="293" y="411" type="curve" smooth="yes"/>
			<point x="161" y="284" type="line" smooth="yes"/>
			<point x="135" y="259"/>
			<point x="132" y="233"/>
			<point x="150" y="203" type="curve" smooth="yes"/>
			<point x="218" y="94" type="line" smooth="yes"/>
			<point x="224" y="84"/>
			<point x="236" y="76"/>
			<point x="249" y="76" type="curve" smooth="yes"/>
			<point x="270" y="76"/>
			<point x="286" y="93"/>
			<point x="286" y="114" type="curve" smooth="yes"/>
			<point x="286" y="121"/>
			<point x="284" y="127"/>
			<point x="281" y="133" type="curve" smooth="yes"/>
		</contour>
		<contour>
			<point x="397" y="248" type="line"/>
			<point x="522" y="368" type="line" smooth="yes"/>
			<point x="528" y="374"/>
			<point x="531" y="381"/>
			<point x="531" y="389" type="curve" smooth="yes"/>
			<point x="531" y="406"/>
			<point x="517" y="420"/>
			<point x="501" y="420" type="curve" smooth="yes"/>
			<point x="493" y="420"/>
			<point x="485" y="416"/>
			<point x="480" y="411" type="curve" smooth="yes"/>
			<point x="348" y="284" type="line" smooth="yes"/>
			<point x="322" y="259"/>
			<point x="319" y="233"/>
			<point x="337" y="203" type="curve" smooth="yes"/>
			<point x="405" y="94" type="line" smooth="yes"/>
			<point x="411" y="84"/>
			<point x="423" y="76"/>
			<point x="436" y="76" type="curve" smooth="yes"/>
			<point x="457" y="76"/>
			<point x="473" y="93"/>
			<point x="473" y="114" type="curve" smooth="yes"/>
			<point x="473" y="121"/>
			<point x="471" y="127"/>
			<point x="468" y="133" type="curve" smooth="yes"/>
		</contour>
	</outline>
</glyph>
<glyph name="logicalnot" format="2">
	<advance width="601"/>
	<unicode hex="00AC"/>
	<note>
		logicalnot
	</note>
	<outline>
		<contour>
			<point x="473" y="206"/>
			<point x="476" y="222" type="curve" smooth="yes"/>
			<point x="498" y="325" type="line" smooth="yes"/>
			<point x="506" y="364"/>
			<point x="486" y="388"/>
			<point x="446" y="388" type="curve" smooth="yes"/>
			<point x="152" y="388" type="line" smooth="yes"/>
			<point x="134" y="388"/>
			<point x="119" y="373"/>
			<point x="119" y="355" type="curve" smooth="yes"/>
			<point x="119" y="337"/>
			<point x="134" y="322"/>
			<point x="152" y="322" type="curve" smooth="yes"/>
			<point x="428" y="322" type="line"/>
			<point x="410" y="236" type="line" smooth="yes"/>
			<point x="406" y="215"/>
			<point x="421" y="195"/>
			<point x="443" y="195" type="curve" smooth="yes"/>
			<point x="459" y="195"/>
		</contour>
	</outline>
</glyph>
<glyph name="macron" format="2">
	<advance width="300"/>
	<unicode hex="00AF"/>
	<note>
		macron
	</note>
	<outline>
		<contour>
			<point x="128" y="600" type="curve" smooth="yes"/>
			<point x="329" y="600" type="line" smooth="yes"/>
			<point x="346" y="600"/>
			<point x="361" y="614"/>
			<point x="361" y="632" type="curve" smooth="yes"/>
			<point x="361" y="649"/>
			<point x="346" y="663"/>
			<point x="329" y="663" type="curve" smooth="yes"/>
			<point x="128" y="663" type="line" smooth="yes"/>
			<point x="111" y="663"/>
			<point x="96" y="649"/>
			<point x="96" y="631" type="curve" smooth="yes"/>
			<point x="96" y="614"/>
			<point x="111" y="600"/>
		</contour>
	</outline>
</glyph>
<glyph name="degree" format="2">
	<advance width="304"/>
	<unicode hex="00B0"/>
	<note>
		degree
	</note>
	<outline>
		<contour>
			<point x="245" y="704" type="curve" smooth="yes"/>
			<point x="171" y="704"/>
			<point x="109" y="654"/>
			<point x="93" y="581" type="curve" smooth="yes"/>
			<point x="78" y="508"/>
			<point x="119" y="458"/>
			<point x="193" y="458" type="curve" smooth="yes"/>
			<point x="267" y="458"/>
			<point x="330" y="508"/>
			<point x="345" y="581" type="curve" smooth="yes"/>
			<point x="361" y="654"/>
			<point x="319" y="704"/>
		</contour>
		<contour>
			<point x="232" y="640" type="curve" smooth="yes"/>
			<point x="263" y="640"/>
			<point x="283" y="616"/>
			<point x="275" y="581" type="curve" smooth="yes"/>
			<point x="268" y="546"/>
			<point x="238" y="522"/>
			<point x="207" y="522" type="curve" smooth="yes"/>
			<point x="175" y="522"/>
			<point x="156" y="546"/>
			<point x="163" y="581" type="curve" smooth="yes"/>
			<point x="171" y="616"/>
			<point x="200" y="640"/>
		</contour>
	</outline>
</glyph>
<glyph name="plusminus" format="2">
	<advance width="601"/>
	<unicode hex="00B1"/>
	<note>
		plusminus
	</note>
	<outline>
		<contour>
			<point x="491" y="352" type="curve" smooth="yes"/>
			<point x="353" y="352" type="line"/>
			<point x="381" y="484" type="line" smooth="yes"/>
			<point x="385" y="505"/>
			<point x="370" y="525"/>
			<point x="348" y="525" type="curve" smooth="yes"/>
			<point x="332" y="525"/>
			<point x="318" y="514"/>
			<point x="315" y="498" type="curve" smooth="yes"/>
			<point x="284" y="352" type="line"/>
			<point x="132" y="352" type="line" smooth="yes"/>
			<point x="114" y="352"/>
			<point x="99" y="337"/>
			<point x="99" y="319" type="curve" smooth="yes"/>
			<point x="99" y="301"/>
			<point x="114" y="286"/>
			<point x="132" y="286" type="curve" smooth="yes"/>
			<point x="270" y="286" type="line"/>
			<point x="241" y="150" type="line" smooth="yes"/>
			<point x="237" y="129"/>
			<point x="253" y="109"/>
			<point x="274" y="109" type="curve" smooth="yes"/>
			<point x="291" y="109"/>
			<point x="304" y="120"/>
			<point x="307" y="136" type="curve" smooth="yes"/>
			<point x="339" y="286" type="line"/>
			<point x="491" y="286" type="line" smooth="yes"/>
			<point x="509" y="286"/>
			<point x="524" y="301"/>
			<point x="524" y="319" type="curve" smooth="yes"/>
			<point x="524" y="337"/>
			<point x="509" y="352"/>
		</contour>
		<contour>
			<point x="71" y="0" type="curve" smooth="yes"/>
			<point x="431" y="0" type="line" smooth="yes"/>
			<point x="448" y="0"/>
			<point x="463" y="14"/>
			<point x="463" y="32" type="curve" smooth="yes"/>
			<point x="463" y="50"/>
			<point x="448" y="64"/>
			<point x="431" y="64" type="curve" smooth="yes"/>
			<point x="71" y="64" type="line" smooth="yes"/>
			<point x="54" y="64"/>
			<point x="39" y="50"/>
			<point x="39" y="32" type="curve" smooth="yes"/>
			<point x="39" y="14"/>
			<point x="54" y="0"/>
		</contour>
	</outline>
</glyph>
<glyph name="acute" format="2">
	<advance width="300"/>
	<unicode hex="00B4"/>
	<note>
		acute
	</note>
	<outline>
		<contour>
			<point x="241" y="575"/>
			<point x="245" y="579" type="curve" smooth="yes"/>
			<point x="313" y="640" type="line" smooth="yes"/>
			<point x="319" y="646"/>
			<point x="324" y="655"/>
			<point x="324" y="665" type="curve" smooth="yes"/>
			<point x="324" y="683"/>
			<point x="309" y="697"/>
			<point x="291" y="697" type="curve" smooth="yes"/>
			<point x="281" y="697"/>
			<point x="272" y="693"/>
			<point x="266" y="685" type="curve" smooth="yes"/>
			<point x="208" y="615" type="line" smooth="yes"/>
			<point x="205" y="611"/>
			<point x="202" y="605"/>
			<point x="202" y="598" type="curve" smooth="yes"/>
			<point x="202" y="584"/>
			<point x="214" y="572"/>
			<point x="228" y="572" type="curve" smooth="yes"/>
			<point x="235" y="572"/>
		</contour>
	</outline>
</glyph>
<glyph name="paragraph" format="2">
	<advance width="579"/>
	<unicode hex="00B6"/>
	<note>
		paragraph
	</note>
	<outline>
		<contour>
			<point x="431" y="-89" type="curve" smooth="yes"/>
			<point x="583" y="626" type="line" smooth="yes"/>
			<point x="591" y="666"/>
			<point x="572" y="690"/>
			<point x="532" y="690" type="curve" smooth="yes"/>
			<point x="346" y="690" type="line" smooth="yes"/>
			<point x="328" y="690"/>
			<point x="307" y="690"/>
			<point x="290" y="689" type="curve" smooth="yes"/>
			<point x="187" y="683"/>
			<point x="114" y="600"/>
			<point x="94" y="505" type="curve" smooth="yes"/>
			<point x="74" y="410"/>
			<point x="111" y="327"/>
			<point x="212" y="321" type="curve" smooth="yes"/>
			<point x="229" y="320"/>
			<point x="250" y="320"/>
			<point x="268" y="320" type="curve" smooth="yes"/>
			<point x="285" y="320" type="line"/>
			<point x="200" y="-75" type="line" smooth="yes"/>
			<point x="196" y="-95"/>
			<point x="212" y="-115"/>
			<point x="233" y="-115" type="curve" smooth="yes"/>
			<point x="249" y="-115"/>
			<point x="262" y="-104"/>
			<point x="265" y="-89" type="curve" smooth="yes"/>
			<point x="417" y="624" type="line"/>
			<point x="515" y="624" type="line"/>
			<point x="366" y="-75" type="line" smooth="yes"/>
			<point x="362" y="-95"/>
			<point x="378" y="-115"/>
			<point x="399" y="-115" type="curve" smooth="yes"/>
			<point x="415" y="-115"/>
			<point x="428" y="-104"/>
		</contour>
	</outline>
</glyph>
<glyph name="periodcentered" format="2">
	<advance width="222"/>
	<unicode hex="00B7"/>
	<note>
		periodcentered
	</note>
	<outline>
		<contour>
			<point x="76" y="232"/>
			<point x="116" y="232" type="curve" smooth="yes"/>
			<point x="124" y="232" type="line" smooth="yes"/>
			<point x="164" y="232"/>
			<point x="197" y="265"/>
			<point x="197" y="305" type="curve" smooth="yes"/>
			<point x="197" y="345"/>
			<point x="164" y="378"/>
			<point x="124" y="378" type="curve" smooth="yes"/>
			<point x="116" y="378" type="line" smooth="yes"/>
			<point x="76" y="378"/>
			<point x="43" y="345"/>
			<point x="43" y="305" type="curve" smooth="yes"/>
			<point x="43" y="265"/>
		</contour>
	</outline>
</glyph>
<glyph name="cedilla" format="2">
	<advance width="300"/>
	<unicode hex="00B8"/>
	<note>
		cedilla
	</note>
	<outline>
		<contour>
			<point x="96" y="-41" type="curve"/>
			<point x="116" y="-13"/>
			<point x="113" y="9"/>
			<point x="89" y="9" type="curve" smooth="yes"/>
			<point x="63" y="9"/>
			<point x="41" y="-12"/>
			<point x="41" y="-39" type="curve" smooth="yes"/>
			<point x="41" y="-59"/>
			<point x="54" y="-78"/>
			<point x="72" y="-85" type="curve" smooth="yes"/>
			<point x="91" y="-92"/>
			<point x="96" y="-105"/>
			<point x="93" y="-122" type="curve" smooth="yes"/>
			<point x="88" y="-146"/>
			<point x="64" y="-161"/>
			<point x="22" y="-161" type="curve" smooth="yes"/>
			<point x="11" y="-161"/>
			<point x="1" y="-160"/>
			<point x="-10" y="-158" type="curve" smooth="yes"/>
			<point x="-25" y="-155"/>
			<point x="-41" y="-167"/>
			<point x="-41" y="-183" type="curve" smooth="yes"/>
			<point x="-41" y="-195"/>
			<point x="-32" y="-206"/>
			<point x="-20" y="-208" type="curve" smooth="yes"/>
			<point x="-10" y="-209"/>
			<point x="0" y="-210"/>
			<point x="10" y="-210" type="curve" smooth="yes"/>
			<point x="88" y="-210"/>
			<point x="150" y="-181"/>
			<point x="163" y="-122" type="curve" smooth="yes"/>
			<point x="173" y="-76"/>
			<point x="149" y="-48"/>
		</contour>
	</outline>
</glyph>
<glyph name="guillemotright" format="2">
	<advance width="584"/>
	<unicode hex="00BB"/>
	<note>
		guillemotright
	</note>
	<outline>
		<contour>
			<point x="105" y="85" type="curve" smooth="yes"/>
			<point x="237" y="212" type="line" smooth="yes"/>
			<point x="262" y="237"/>
			<point x="265" y="263"/>
			<point x="247" y="293" type="curve" smooth="yes"/>
			<point x="181" y="402" type="line" smooth="yes"/>
			<point x="175" y="412"/>
			<point x="162" y="419"/>
			<point x="149" y="419" type="curve" smooth="yes"/>
			<point x="128" y="419"/>
			<point x="112" y="403"/>
			<point x="112" y="382" type="curve" smooth="yes"/>
			<point x="112" y="375"/>
			<point x="114" y="369"/>
			<point x="117" y="363" type="curve" smooth="yes"/>
			<point x="187" y="248" type="line"/>
			<point x="63" y="128" type="line" smooth="yes"/>
			<point x="57" y="122"/>
			<point x="54" y="115"/>
			<point x="54" y="107" type="curve" smooth="yes"/>
			<point x="54" y="90"/>
			<point x="67" y="76"/>
			<point x="84" y="76" type="curve" smooth="yes"/>
			<point x="92" y="76"/>
			<point x="99" y="79"/>
		</contour>
		<contour>
			<point x="292" y="85" type="curve" smooth="yes"/>
			<point x="424" y="212" type="line" smooth="yes"/>
			<point x="449" y="237"/>
			<point x="452" y="263"/>
			<point x="434" y="293" type="curve" smooth="yes"/>
			<point x="368" y="402" type="line" smooth="yes"/>
			<point x="362" y="412"/>
			<point x="349" y="419"/>
			<point x="336" y="419" type="curve" smooth="yes"/>
			<point x="315" y="419"/>
			<point x="299" y="403"/>
			<point x="299" y="382" type="curve" smooth="yes"/>
			<point x="299" y="375"/>
			<point x="301" y="369"/>
			<point x="304" y="363" type="curve" smooth="yes"/>
			<point x="374" y="248" type="line"/>
			<point x="250" y="128" type="line" smooth="yes"/>
			<point x="244" y="122"/>
			<point x="241" y="115"/>
			<point x="241" y="107" type="curve" smooth="yes"/>
			<point x="241" y="90"/>
			<point x="254" y="76"/>
			<point x="271" y="76" type="curve" smooth="yes"/>
			<point x="279" y="76"/>
			<point x="286" y="79"/>
		</contour>
	</outline>
</glyph>
<glyph name="questiondown" format="2">
	<advance width="508"/>
	<unicode hex="00BF"/>
	<note>
		questiondown
	</note>
	<outline>
		<contour>
			<point x="186" y="-173" type="curve" smooth="yes"/>
			<point x="296" y="-173"/>
			<point x="389" y="-120"/>
			<point x="438" y="-29" type="curve" smooth="yes"/>
			<point x="442" y="-21"/>
			<point x="445" y="-13"/>
			<point x="445" y="-4" type="curve" smooth="yes"/>
			<point x="445" y="25"/>
			<point x="421" y="48"/>
			<point x="392" y="48" type="curve" smooth="yes"/>
			<point x="370" y="48"/>
			<point x="352" y="35"/>
			<point x="344" y="15" type="curve" smooth="yes"/>
			<point x="316" y="-55"/>
			<point x="268" y="-89"/>
			<point x="209" y="-89" type="curve" smooth="yes"/>
			<point x="143" y="-89"/>
			<point x="114" y="-48"/>
			<point x="128" y="16" type="curve" smooth="yes"/>
			<point x="140" y="70"/>
			<point x="170" y="108"/>
			<point x="253" y="183" type="curve" smooth="yes"/>
			<point x="293" y="220"/>
			<point x="318" y="248"/>
			<point x="336" y="281" type="curve" smooth="yes"/>
			<point x="339" y="287"/>
			<point x="342" y="295"/>
			<point x="342" y="303" type="curve" smooth="yes"/>
			<point x="342" y="329"/>
			<point x="321" y="350"/>
			<point x="295" y="350" type="curve" smooth="yes"/>
			<point x="276" y="350"/>
			<point x="259" y="338"/>
			<point x="252" y="321" type="curve" smooth="yes"/>
			<point x="237" y="283"/>
			<point x="212" y="256"/>
			<point x="156" y="211" type="curve" smooth="yes"/>
			<point x="70" y="144"/>
			<point x="24" y="85"/>
			<point x="8" y="13" type="curve" smooth="yes"/>
			<point x="-15" y="-96"/>
			<point x="47" y="-173"/>
		</contour>
		<contour>
			<point x="298" y="421"/>
			<point x="320" y="408" type="curve" smooth="yes"/>
			<point x="344" y="394"/>
			<point x="370" y="401"/>
			<point x="387" y="423" type="curve" smooth="yes"/>
			<point x="398" y="438"/>
			<point x="405" y="456"/>
			<point x="405" y="476" type="curve" smooth="yes"/>
			<point x="405" y="495"/>
			<point x="398" y="512"/>
			<point x="386" y="525" type="curve" smooth="yes"/>
			<point x="367" y="547"/>
			<point x="339" y="550"/>
			<point x="316" y="532" type="curve" smooth="yes"/>
			<point x="297" y="518"/>
			<point x="284" y="496"/>
			<point x="284" y="471" type="curve" smooth="yes"/>
			<point x="284" y="445"/>
		</contour>
	</outline>
</glyph>
<glyph name="Agrave" format="2">
	<advance width="656"/>
	<unicode hex="00C0"/>
	<note>
		Agrave
	</note>
	<outline>
		<contour>
			<point x="389" y="759"/>
			<point x="399" y="750" type="curve" smooth="yes"/>
			<point x="419" y="731"/>
			<point x="449" y="737"/>
			<point x="461" y="762" type="curve" smooth="yes"/>
			<point x="465" y="770"/>
			<point x="467" y="778"/>
			<point x="467" y="787" type="curve" smooth="yes"/>
			<point x="467" y="798"/>
			<point x="464" y="809"/>
			<point x="458" y="817" type="curve" smooth="yes"/>
			<point x="445" y="837"/>
			<point x="419" y="843"/>
			<point x="399" y="824" type="curve" smooth="yes"/>
			<point x="389" y="815"/>
			<point x="383" y="801"/>
			<point x="383" y="787" type="curve" smooth="yes"/>
			<point x="383" y="773"/>
		</contour>
		<contour>
			<point x="207" y="228" type="line"/>
			<point x="452" y="228" type="line"/>
			<point x="474" y="46" type="line" smooth="yes"/>
			<point x="477" y="17"/>
			<point x="502" y="-5"/>
			<point x="532" y="-5" type="curve" smooth="yes"/>
			<point x="567" y="-5"/>
			<point x="595" y="26"/>
			<point x="590" y="61" type="curve" smooth="yes"/>
			<point x="510" y="636" type="line" smooth="yes"/>
			<point x="505" y="671"/>
			<point x="485" y="690"/>
			<point x="449" y="690" type="curve" smooth="yes"/>
			<point x="407" y="690" type="line" smooth="yes"/>
			<point x="375" y="690"/>
			<point x="354" y="677"/>
			<point x="338" y="650" type="curve" smooth="yes"/>
			<point x="7" y="70" type="line" smooth="yes"/>
			<point x="3" y="62"/>
			<point x="0" y="54"/>
			<point x="0" y="45" type="curve" smooth="yes"/>
			<point x="0" y="17"/>
			<point x="23" y="-5"/>
			<point x="51" y="-5" type="curve" smooth="yes"/>
			<point x="70" y="-5"/>
			<point x="87" y="6"/>
			<point x="95" y="21" type="curve" smooth="yes"/>
		</contour>
		<contour>
			<point x="442" y="315" type="line"/>
			<point x="255" y="315" type="line"/>
			<point x="411" y="599" type="line"/>
		</contour>
	</outline>
</glyph>
<glyph name="Aacute" format="2">
	<advance width="656"/>
	<unicode hex="00C1"/>
	<note>
		Aacute
	</note>
	<outline>
		<contour>
			<point x="467" y="733"/>
			<point x="471" y="737" type="curve" smooth="yes"/>
			<point x="529" y="787" type="line" smooth="yes"/>
			<point x="536" y="793"/>
			<point x="541" y="802"/>
			<point x="541" y="811" type="curve" smooth="yes"/>
			<point x="541" y="829"/>
			<point x="526" y="844"/>
			<point x="509" y="844" type="curve" smooth="yes"/>
			<point x="499" y="844"/>
			<point x="490" y="839"/>
			<point x="484" y="832" type="curve" smooth="yes"/>
			<point x="434" y="773" type="line" smooth="yes"/>
			<point x="431" y="769"/>
			<point x="428" y="762"/>
			<point x="428" y="756" type="curve" smooth="yes"/>
			<point x="428" y="742"/>
			<point x="440" y="731"/>
			<point x="454" y="731" type="curve" smooth="yes"/>
			<point x="460" y="731"/>
		</contour>
		<contour>
			<point x="207" y="228" type="line"/>
			<point x="452" y="228" type="line"/>
			<point x="474" y="46" type="line" smooth="yes"/>
			<point x="477" y="17"/>
			<point x="502" y="-5"/>
			<point x="532" y="-5" type="curve" smooth="yes"/>
			<point x="567" y="-5"/>
			<point x="595" y="26"/>
			<point x="590" y="61" type="curve" smooth="yes"/>
			<point x="510" y="636" type="line" smooth="yes"/>
			<point x="505" y="671"/>
			<point x="485" y="690"/>
			<point x="449" y="690" type="curve" smooth="yes"/>
			<point x="407" y="690" type="line" smooth="yes"/>
			<point x="375" y="690"/>
			<point x="354" y="677"/>
			<point x="338" y="650" type="curve" smooth="yes"/>
			<point x="7" y="70" type="line" smooth="yes"/>
			<point x="3" y="62"/>
			<point x="0" y="54"/>
			<point x="0" y="45" type="curve" smooth="yes"/>
			<point x="0" y="17"/>
			<point x="23" y="-5"/>
			<point x="51" y="-5" type="curve" smooth="yes"/>
			<point x="70" y="-5"/>
			<point x="87" y="6"/>
			<point x="95" y="21" type="curve" smooth="yes"/>
		</contour>
		<contour>
			<point x="442" y="315" type="line"/>
			<point x="255" y="315" type="line"/>
			<point x="411" y="599" type="line"/>
		</contour>
	</outline>
</glyph>
<glyph name="Ccedilla" format="2">
	<advance width="708"/>
	<unicode hex="00C7"/>
	<note>
		Ccedilla
	</note>
	<outline>
		<contour>
			<point x="570" y="259"/>
			<point x="565" y="254" type="curve" smooth="yes"/>
			<point x="546" y="234"/>
			<point x="540" y="215"/>
			<point x="528" y="192" type="curve" smooth="yes"/>
			<point x="488" y="117"/>
			<point x="422" y="70"/>
			<point x="331" y="70" type="curve" smooth="yes"/>
			<point x="209" y="70"/>
			<point x="149" y="176"/>
			<point x="185" y="347" type="curve" smooth="yes"/>
			<point x="220" y="510"/>
			<point x="324" y="620"/>
			<point x="452" y="620" type="curve" smooth="yes"/>
			<point x="540" y="620"/>
			<point x="586" y="578"/>
			<point x="597" y="508" type="curve" smooth="yes"/>
			<point x="602" y="480"/>
			<point x="605" y="455"/>
			<point x="632" y="444" type="curve" smooth="yes"/>
			<point x="640" y="441"/>
			<point x="648" y="439"/>
			<point x="657" y="439" type="curve" smooth="yes"/>
			<point x="668" y="439"/>
			<point x="678" y="442"/>
			<point x="687" y="447" type="curve" smooth="yes"/>
			<point x="706" y="459"/>
			<point x="712" y="479"/>
			<point x="712" y="508" type="curve" smooth="yes"/>
			<point x="709" y="623"/>
			<point x="634" y="704"/>
			<point x="472" y="704" type="curve" smooth="yes"/>
			<point x="278" y="704"/>
			<point x="111" y="559"/>
			<point x="65" y="342" type="curve" smooth="yes"/>
			<point x="24" y="149"/>
			<point x="97" y="11"/>
			<point x="261" y="-11" type="curve"/>
			<point x="235" y="-46" type="line" smooth="yes"/>
			<point x="219" y="-68"/>
			<point x="236" y="-71"/>
			<point x="276" y="-85" type="curve" smooth="yes"/>
			<point x="295" y="-92"/>
			<point x="300" y="-104"/>
			<point x="297" y="-122" type="curve" smooth="yes"/>
			<point x="292" y="-146"/>
			<point x="268" y="-161"/>
			<point x="226" y="-161" type="curve" smooth="yes"/>
			<point x="215" y="-161"/>
			<point x="205" y="-160"/>
			<point x="194" y="-158" type="curve" smooth="yes"/>
			<point x="179" y="-155"/>
			<point x="163" y="-167"/>
			<point x="163" y="-183" type="curve" smooth="yes"/>
			<point x="163" y="-195"/>
			<point x="172" y="-206"/>
			<point x="184" y="-208" type="curve" smooth="yes"/>
			<point x="194" y="-209"/>
			<point x="204" y="-210"/>
			<point x="214" y="-210" type="curve" smooth="yes"/>
			<point x="292" y="-210"/>
			<point x="354" y="-181"/>
			<point x="367" y="-122" type="curve" smooth="yes"/>
			<point x="377" y="-76"/>
			<point x="353" y="-48"/>
			<point x="300" y="-41" type="curve"/>
			<point x="320" y="-14" type="line"/>
			<point x="475" y="-10"/>
			<point x="585" y="72"/>
			<point x="637" y="183" type="curve" smooth="yes"/>
			<point x="650" y="211"/>
			<point x="649" y="239"/>
			<point x="622" y="254" type="curve" smooth="yes"/>
			<point x="611" y="260"/>
			<point x="599" y="263"/>
			<point x="586" y="263" type="curve" smooth="yes"/>
			<point x="577" y="263"/>
		</contour>
	</outline>
</glyph>
<glyph name="Igrave" format="2">
	<advance width="277"/>
	<unicode hex="00CC"/>
	<note>
		Igrave
	</note>
	<outline>
		<contour>
			<point x="274" y="771"/>
			<point x="273" y="775" type="curve"/>
			<point x="255" y="819" type="line" smooth="yes"/>
			<point x="250" y="833"/>
			<point x="236" y="844"/>
			<point x="220" y="844" type="curve" smooth="yes"/>
			<point x="199" y="844"/>
			<point x="181" y="826"/>
			<point x="181" y="805" type="curve" smooth="yes"/>
			<point x="181" y="801"/>
			<point x="182" y="797"/>
			<point x="183" y="792" type="curve" smooth="yes"/>
			<point x="187" y="774"/>
			<point x="197" y="758"/>
			<point x="211" y="747" type="curve" smooth="yes"/>
			<point x="232" y="730"/>
			<point x="260" y="726"/>
			<point x="272" y="748" type="curve" smooth="yes"/>
			<point x="275" y="753"/>
			<point x="276" y="758"/>
			<point x="276" y="763" type="curve" smooth="yes"/>
			<point x="276" y="767"/>
		</contour>
		<contour>
			<point x="152" y="12"/>
			<point x="157" y="37" type="curve" smooth="yes"/>
			<point x="282" y="631" type="line" smooth="yes"/>
			<point x="289" y="665"/>
			<point x="264" y="695"/>
			<point x="230" y="695" type="curve" smooth="yes"/>
			<point x="204" y="695"/>
			<point x="182" y="678"/>
			<point x="177" y="653" type="curve" smooth="yes"/>
			<point x="52" y="59" type="line" smooth="yes"/>
			<point x="45" y="25"/>
			<point x="70" y="-5"/>
			<point x="104" y="-5" type="curve" smooth="yes"/>
			<point x="130" y="-5"/>
		</contour>
	</outline>
</glyph>
<glyph name="Ntilde" format="2">
	<advance width="737"/>
	<unicode hex="00D1"/>
	<note>
		Ntilde
	</note>
	<outline>
		<contour>
			<point x="441" y="835" type="curve" smooth="yes"/>
			<point x="409" y="835"/>
			<point x="385" y="820"/>
			<point x="370" y="776" type="curve" smooth="yes"/>
			<point x="365" y="762"/>
			<point x="375" y="742"/>
			<point x="394" y="742" type="curve" smooth="yes"/>
			<point x="405" y="742"/>
			<point x="414" y="748"/>
			<point x="418" y="758" type="curve" smooth="yes"/>
			<point x="422" y="768"/>
			<point x="428" y="771"/>
			<point x="435" y="771" type="curve" smooth="yes"/>
			<point x="444" y="771"/>
			<point x="454" y="767"/>
			<point x="476" y="759" type="curve" smooth="yes"/>
			<point x="504" y="748"/>
			<point x="519" y="744"/>
			<point x="540" y="744" type="curve" smooth="yes"/>
			<point x="573" y="744"/>
			<point x="596" y="759"/>
			<point x="611" y="803" type="curve" smooth="yes"/>
			<point x="616" y="817"/>
			<point x="606" y="837"/>
			<point x="587" y="837" type="curve" smooth="yes"/>
			<point x="576" y="837"/>
			<point x="567" y="831"/>
			<point x="563" y="821" type="curve" smooth="yes"/>
			<point x="559" y="811"/>
			<point x="554" y="808"/>
			<point x="546" y="808" type="curve" smooth="yes"/>
			<point x="538" y="808"/>
			<point x="527" y="812"/>
			<point x="505" y="820" type="curve" smooth="yes"/>
			<point x="478" y="831"/>
			<point x="463" y="835"/>
		</contour>
		<contour>
			<point x="501" y="0" type="curve" smooth="yes"/>
			<point x="557" y="0" type="line" smooth="yes"/>
			<point x="592" y="0"/>
			<point x="613" y="16"/>
			<point x="620" y="51" type="curve" smooth="yes"/>
			<point x="742" y="632" type="line" smooth="yes"/>
			<point x="749" y="665"/>
			<point x="724" y="696"/>
			<point x="690" y="696" type="curve" smooth="yes"/>
			<point x="665" y="696"/>
			<point x="643" y="678"/>
			<point x="638" y="654" type="curve" smooth="yes"/>
			<point x="576" y="358" type="line" smooth="yes"/>
			<point x="561" y="287"/>
			<point x="542" y="195"/>
			<point x="528" y="117" type="curve"/>
			<point x="356" y="643" type="line" smooth="yes"/>
			<point x="346" y="675"/>
			<point x="324" y="690"/>
			<point x="290" y="690" type="curve" smooth="yes"/>
			<point x="237" y="690" type="line" smooth="yes"/>
			<point x="202" y="690"/>
			<point x="181" y="674"/>
			<point x="174" y="639" type="curve" smooth="yes"/>
			<point x="52" y="59" type="line" smooth="yes"/>
			<point x="45" y="25"/>
			<point x="70" y="-6"/>
			<point x="104" y="-6" type="curve" smooth="yes"/>
			<point x="130" y="-6"/>
			<point x="152" y="12"/>
			<point x="157" y="37" type="curve" smooth="yes"/>
			<point x="219" y="330" type="line" smooth="yes"/>
			<point x="234" y="401"/>
			<point x="252" y="490"/>
			<point x="266" y="569" type="curve"/>
			<point x="436" y="48" type="line" smooth="yes"/>
			<point x="446" y="16"/>
			<point x="467" y="0"/>
		</contour>
	</outline>
</glyph>
<glyph name="Ograve" format="2">
	<advance width="750"/>
	<unicode hex="00D2"/>
	<note>
		Ograve
	</note>
	<outline>
		<contour>
			<point x="429" y="759"/>
			<point x="439" y="750" type="curve" smooth="yes"/>
			<point x="459" y="731"/>
			<point x="489" y="737"/>
			<point x="501" y="762" type="curve" smooth="yes"/>
			<point x="505" y="770"/>
			<point x="507" y="778"/>
			<point x="507" y="787" type="curve" smooth="yes"/>
			<point x="507" y="798"/>
			<point x="504" y="809"/>
			<point x="498" y="817" type="curve" smooth="yes"/>
			<point x="485" y="837"/>
			<point x="459" y="843"/>
			<point x="439" y="824" type="curve" smooth="yes"/>
			<point x="429" y="815"/>
			<point x="423" y="801"/>
			<point x="423" y="787" type="curve" smooth="yes"/>
			<point x="423" y="773"/>
		</contour>
		<contour>
			<point x="475" y="704" type="curve" smooth="yes"/>
			<point x="263" y="704"/>
			<point x="111" y="559"/>
			<point x="66" y="345" type="curve" smooth="yes"/>
			<point x="21" y="132"/>
			<point x="111" y="-14"/>
			<point x="323" y="-14" type="curve" smooth="yes"/>
			<point x="534" y="-14"/>
			<point x="686" y="132"/>
			<point x="731" y="345" type="curve" smooth="yes"/>
			<point x="776" y="559"/>
			<point x="686" y="704"/>
		</contour>
		<contour>
			<point x="341" y="70" type="curve" smooth="yes"/>
			<point x="206" y="70"/>
			<point x="148" y="174"/>
			<point x="184" y="345" type="curve" smooth="yes"/>
			<point x="221" y="517"/>
			<point x="322" y="620"/>
			<point x="457" y="620" type="curve" smooth="yes"/>
			<point x="591" y="620"/>
			<point x="650" y="517"/>
			<point x="613" y="345" type="curve" smooth="yes"/>
			<point x="577" y="174"/>
			<point x="475" y="70"/>
		</contour>
	</outline>
</glyph>
<glyph name="multiply" format="2">
	<advance width="601"/>
	<unicode hex="00D7"/>
	<note>
		multiply
	</note>
	<outline>
		<contour>
			<point x="452" y="201" type="curve" smooth="yes"/>
			<point x="360" y="318" type="line"/>
			<point x="513" y="444" type="line" smooth="yes"/>
			<point x="519" y="449"/>
			<point x="524" y="459"/>
			<point x="524" y="468" type="curve" smooth="yes"/>
			<point x="524" y="485"/>
			<point x="511" y="499"/>
			<point x="494" y="499" type="curve" smooth="yes"/>
			<point x="486" y="499"/>
			<point x="480" y="497"/>
			<point x="474" y="492" type="curve" smooth="yes"/>
			<point x="321" y="366" type="line"/>
			<point x="230" y="482" type="line" smooth="yes"/>
			<point x="223" y="491"/>
			<point x="213" y="496"/>
			<point x="201" y="496" type="curve" smooth="yes"/>
			<point x="180" y="496"/>
			<point x="163" y="479"/>
			<point x="163" y="458" type="curve" smooth="yes"/>
			<point x="163" y="450"/>
			<point x="166" y="442"/>
			<point x="171" y="435" type="curve" smooth="yes"/>
			<point x="263" y="318" type="line"/>
			<point x="110" y="192" type="line" smooth="yes"/>
			<point x="104" y="187"/>
			<point x="99" y="177"/>
			<point x="99" y="168" type="curve" smooth="yes"/>
			<point x="99" y="151"/>
			<point x="112" y="137"/>
			<point x="129" y="137" type="curve" smooth="yes"/>
			<point x="137" y="137"/>
			<point x="143" y="139"/>
			<point x="149" y="144" type="curve" smooth="yes"/>
			<point x="301" y="270" type="line"/>
			<point x="392" y="154" type="line" smooth="yes"/>
			<point x="399" y="145"/>
			<point x="410" y="140"/>
			<point x="422" y="140" type="curve" smooth="yes"/>
			<point x="443" y="140"/>
			<point x="460" y="157"/>
			<point x="460" y="178" type="curve" smooth="yes"/>
			<point x="460" y="186"/>
			<point x="457" y="194"/>
		</contour>
	</outline>
</glyph>
<glyph name="Oslash" format="2">
	<advance width="756"/>
	<unicode hex="00D8"/>
	<note>
		Oslash
	</note>
	<outline>
		<contour>
			<point x="723" y="570" type="curve"/>
			<point x="785" y="621" type="line" smooth="yes"/>
			<point x="791" y="626"/>
			<point x="796" y="636"/>
			<point x="796" y="645" type="curve" smooth="yes"/>
			<point x="796" y="662"/>
			<point x="783" y="676"/>
			<point x="766" y="676" type="curve" smooth="yes"/>
			<point x="758" y="676"/>
			<point x="752" y="674"/>
			<point x="746" y="669" type="curve" smooth="yes"/>
			<point x="690" y="622" type="line"/>
			<point x="645" y="674"/>
			<point x="574" y="704"/>
			<point x="478" y="704" type="curve" smooth="yes"/>
			<point x="267" y="704"/>
			<point x="114" y="559"/>
			<point x="69" y="345" type="curve" smooth="yes"/>
			<point x="50" y="257"/>
			<point x="55" y="180"/>
			<point x="81" y="120" type="curve"/>
			<point x="19" y="69" type="line" smooth="yes"/>
			<point x="13" y="64"/>
			<point x="8" y="54"/>
			<point x="8" y="45" type="curve" smooth="yes"/>
			<point x="8" y="28"/>
			<point x="21" y="14"/>
			<point x="38" y="14" type="curve" smooth="yes"/>
			<point x="46" y="14"/>
			<point x="52" y="16"/>
			<point x="58" y="21" type="curve" smooth="yes"/>
			<point x="114" y="68" type="line"/>
			<point x="159" y="16"/>
			<point x="231" y="-14"/>
			<point x="326" y="-14" type="curve" smooth="yes"/>
			<point x="537" y="-14"/>
			<point x="690" y="132"/>
			<point x="735" y="345" type="curve" smooth="yes"/>
			<point x="754" y="434"/>
			<point x="749" y="510"/>
		</contour>
		<contour>
			<point x="187" y="345" type="curve" smooth="yes"/>
			<point x="224" y="517"/>
			<point x="325" y="620"/>
			<point x="460" y="620" type="curve" smooth="yes"/>
			<point x="526" y="620"/>
			<point x="574" y="595"/>
			<point x="601" y="549" type="curve"/>
			<point x="181" y="202" type="line"/>
			<point x="173" y="242"/>
			<point x="175" y="290"/>
		</contour>
		<contour>
			<point x="617" y="345" type="curve" smooth="yes"/>
			<point x="581" y="174"/>
			<point x="479" y="70"/>
			<point x="344" y="70" type="curve" smooth="yes"/>
			<point x="278" y="70"/>
			<point x="230" y="95"/>
			<point x="203" y="141" type="curve"/>
			<point x="623" y="488" type="line"/>
			<point x="631" y="448"/>
			<point x="629" y="400"/>
		</contour>
	</outline>
</glyph>
<glyph name="Uacute" format="2">
	<advance width="691"/>
	<unicode hex="00DA"/>
	<note>
		Uacute
	</note>
	<outline>
		<contour>
			<point x="483" y="733"/>
			<point x="487" y="737" type="curve" smooth="yes"/>
			<point x="545" y="787" type="line" smooth="yes"/>
			<point x="552" y="793"/>
			<point x="557" y="802"/>
			<point x="557" y="811" type="curve" smooth="yes"/>
			<point x="557" y="829"/>
			<point x="542" y="844"/>
			<point x="525" y="844" type="curve" smooth="yes"/>
			<point x="515" y="844"/>
			<point x="506" y="839"/>
			<point x="500" y="832" type="curve" smooth="yes"/>
			<point x="450" y="773" type="line" smooth="yes"/>
			<point x="447" y="769"/>
			<point x="444" y="762"/>
			<point x="444" y="756" type="curve" smooth="yes"/>
			<point x="444" y="742"/>
			<point x="456" y="731"/>
			<point x="470" y="731" type="curve" smooth="yes"/>
			<point x="476" y="731"/>
		</contour>
		<contour>
			<point x="629" y="267" type="curve" smooth="yes"/>
			<point x="706" y="631" type="line" smooth="yes"/>
			<point x="713" y="665"/>
			<point x="688" y="696"/>
			<point x="654" y="696" type="curve" smooth="yes"/>
			<point x="629" y="696"/>
			<point x="607" y="678"/>
			<point x="602" y="653" type="curve" smooth="yes"/>
			<point x="520" y="265" type="line" smooth="yes"/>
			<point x="516" y="244"/>
			<point x="511" y="225"/>
			<point x="506" y="209" type="curve" smooth="yes"/>
			<point x="481" y="126"/>
			<point x="417" y="70"/>
			<point x="317" y="70" type="curve" smooth="yes"/>
			<point x="218" y="70"/>
			<point x="176" y="126"/>
			<point x="187" y="209" type="curve" smooth="yes"/>
			<point x="188" y="225"/>
			<point x="193" y="244"/>
			<point x="197" y="265" type="curve" smooth="yes"/>
			<point x="275" y="631" type="line" smooth="yes"/>
			<point x="282" y="665"/>
			<point x="256" y="695"/>
			<point x="222" y="695" type="curve" smooth="yes"/>
			<point x="197" y="695"/>
			<point x="175" y="678"/>
			<point x="170" y="653" type="curve" smooth="yes"/>
			<point x="88" y="267" type="line" smooth="yes"/>
			<point x="83" y="242"/>
			<point x="79" y="222"/>
			<point x="75" y="196" type="curve" smooth="yes"/>
			<point x="60" y="81"/>
			<point x="119" y="-14"/>
			<point x="299" y="-14" type="curve" smooth="yes"/>
			<point x="479" y="-14"/>
			<point x="578" y="81"/>
			<point x="612" y="196" type="curve" smooth="yes"/>
			<point x="620" y="222"/>
			<point x="624" y="242"/>
		</contour>
	</outline>
</glyph>
<glyph name="Udieresis" format="2">
	<advance width="691"/>
	<unicode hex="00DC"/>
	<note>
		Udieresis
	</note>
	<outline>
		<contour>
			<point x="629" y="267" type="curve" smooth="yes"/>
			<point x="706" y="631" type="line" smooth="yes"/>
			<point x="713" y="665"/>
			<point x="688" y="696"/>
			<point x="654" y="696" type="curve" smooth="yes"/>
			<point x="629" y="696"/>
			<point x="607" y="678"/>
			<point x="602" y="653" type="curve" smooth="yes"/>
			<point x="520" y="265" type="line" smooth="yes"/>
			<point x="516" y="244"/>
			<point x="511" y="225"/>
			<point x="506" y="209" type="curve" smooth="yes"/>
			<point x="481" y="126"/>
			<point x="417" y="70"/>
			<point x="317" y="70" type="curve" smooth="yes"/>
			<point x="218" y="70"/>
			<point x="176" y="126"/>
			<point x="187" y="209" type="curve" smooth="yes"/>
			<point x="188" y="225"/>
			<point x="193" y="244"/>
			<point x="197" y="265" type="curve" smooth="yes"/>
			<point x="275" y="631" type="line" smooth="yes"/>
			<point x="282" y="665"/>
			<point x="256" y="695"/>
			<point x="222" y="695" type="curve" smooth="yes"/>
			<point x="197" y="695"/>
			<point x="175" y="678"/>
			<point x="170" y="653" type="curve" smooth="yes"/>
			<point x="88" y="267" type="line" smooth="yes"/>
			<point x="83" y="242"/>
			<point x="79" y="222"/>
			<point x="75" y="196" type="curve" smooth="yes"/>
			<point x="60" y="81"/>
			<point x="119" y="-14"/>
			<point x="299" y="-14" type="curve" smooth="yes"/>
			<point x="479" y="-14"/>
			<point x="578" y="81"/>
			<point x="612" y="196" type="curve" smooth="yes"/>
			<point x="620" y="222"/>
			<point x="624" y="242"/>
		</contour>
		<contour>
			<point x="358" y="733"/>
			<point x="387" y="733" type="curve" smooth="yes"/>
			<point x="400" y="733" type="line" smooth="yes"/>
			<point x="430" y="733"/>
			<point x="454" y="760"/>
			<point x="450" y="791" type="curve" smooth="yes"/>
			<point x="446" y="820"/>
			<point x="423" y="844"/>
			<point x="393" y="844" type="curve" smooth="yes"/>
			<point x="384" y="844"/>
			<point x="376" y="842"/>
			<point x="369" y="838" type="curve" smooth="yes"/>
			<point x="349" y="828"/>
			<point x="334" y="809"/>
			<point x="334" y="786" type="curve" smooth="yes"/>
			<point x="334" y="757"/>
		</contour>
		<contour>
			<point x="513" y="733"/>
			<point x="542" y="733" type="curve" smooth="yes"/>
			<point x="555" y="733" type="line" smooth="yes"/>
			<point x="585" y="733"/>
			<point x="609" y="760"/>
			<point x="605" y="791" type="curve" smooth="yes"/>
			<point x="601" y="820"/>
			<point x="578" y="844"/>
			<point x="548" y="844" type="curve" smooth="yes"/>
			<point x="539" y="844"/>
			<point x="531" y="842"/>
			<point x="524" y="838" type="curve" smooth="yes"/>
			<point x="504" y="828"/>
			<point x="489" y="809"/>
			<point x="489" y="786" type="curve" smooth="yes"/>
			<point x="489" y="757"/>
		</contour>
	</outline>
</glyph>
<glyph name="Thorn" format="2">
	<advance width="636"/>
	<unicode hex="00DE"/>
	<note>
		Thorn
	</note>
	<outline>
		<contour>
			<point x="492" y="598" type="curve" smooth="yes"/>
			<point x="461" y="602"/>
			<point x="436" y="602"/>
			<point x="399" y="602" type="curve" smooth="yes"/>
			<point x="277" y="602" type="line"/>
			<point x="283" y="631" type="line" smooth="yes"/>
			<point x="290" y="665"/>
			<point x="264" y="695"/>
			<point x="230" y="695" type="curve" smooth="yes"/>
			<point x="204" y="695"/>
			<point x="182" y="678"/>
			<point x="177" y="653" type="curve" smooth="yes"/>
			<point x="52" y="59" type="line" smooth="yes"/>
			<point x="45" y="25"/>
			<point x="70" y="-6"/>
			<point x="104" y="-6" type="curve" smooth="yes"/>
			<point x="130" y="-6"/>
			<point x="152" y="12"/>
			<point x="157" y="37" type="curve" smooth="yes"/>
			<point x="192" y="202" type="line"/>
			<point x="314" y="202" type="line" smooth="yes"/>
			<point x="351" y="202"/>
			<point x="376" y="202"/>
			<point x="408" y="206" type="curve" smooth="yes"/>
			<point x="511" y="219"/>
			<point x="601" y="285"/>
			<point x="626" y="403" type="curve" smooth="yes"/>
			<point x="651" y="521"/>
			<point x="589" y="585"/>
		</contour>
		<contour>
			<point x="398" y="295" type="curve" smooth="yes"/>
			<point x="380" y="292"/>
			<point x="356" y="291"/>
			<point x="328" y="291" type="curve" smooth="yes"/>
			<point x="211" y="291" type="line"/>
			<point x="258" y="513" type="line"/>
			<point x="375" y="513" type="line" smooth="yes"/>
			<point x="403" y="513"/>
			<point x="427" y="512"/>
			<point x="444" y="509" type="curve" smooth="yes"/>
			<point x="490" y="500"/>
			<point x="525" y="470"/>
			<point x="510" y="402" type="curve" smooth="yes"/>
			<point x="495" y="333"/>
			<point x="448" y="304"/>
		</contour>
	</outline>
</glyph>
<glyph name="agrave" format="2">
	<advance width="545"/>
	<unicode hex="00E0"/>
	<note>
		agrave
	</note>
	<outline>
		<contour>
			<point x="273" y="636" type="curve" smooth="yes"/>
			<point x="280" y="626" type="line" smooth="yes"/>
			<point x="301" y="595"/>
			<point x="341" y="582"/>
			<point x="355" y="617" type="curve" smooth="yes"/>
			<point x="357" y="624"/>
			<point x="359" y="632"/>
			<point x="359" y="640" type="curve" smooth="yes"/>
			<point x="359" y="659"/>
			<point x="351" y="673"/>
			<point x="338" y="683" type="curve" smooth="yes"/>
			<point x="318" y="699"/>
			<point x="291" y="703"/>
			<point x="275" y="682" type="curve" smooth="yes"/>
			<point x="270" y="676"/>
			<point x="267" y="667"/>
			<point x="267" y="658" type="curve" smooth="yes"/>
			<point x="267" y="650"/>
			<point x="269" y="642"/>
		</contour>
		<contour>
			<point x="325" y="77" type="line"/>
			<point x="323" y="53" type="line" smooth="yes"/>
			<point x="321" y="22"/>
			<point x="346" y="-5"/>
			<point x="378" y="-5" type="curve" smooth="yes"/>
			<point x="406" y="-5"/>
			<point x="429" y="17"/>
			<point x="432" y="44" type="curve" smooth="yes"/>
			<point x="436" y="80"/>
			<point x="440" y="106"/>
			<point x="446" y="135" type="curve" smooth="yes"/>
			<point x="486" y="322" type="line" smooth="yes"/>
			<point x="491" y="347"/>
			<point x="496" y="375"/>
			<point x="499" y="397" type="curve" smooth="yes"/>
			<point x="509" y="487"/>
			<point x="468" y="545"/>
			<point x="331" y="545" type="curve" smooth="yes"/>
			<point x="239" y="545"/>
			<point x="157" y="506"/>
			<point x="110" y="434" type="curve" smooth="yes"/>
			<point x="105" y="426"/>
			<point x="102" y="417"/>
			<point x="102" y="407" type="curve" smooth="yes"/>
			<point x="102" y="379"/>
			<point x="124" y="357"/>
			<point x="152" y="357" type="curve" smooth="yes"/>
			<point x="173" y="357"/>
			<point x="189" y="370"/>
			<point x="197" y="387" type="curve" smooth="yes"/>
			<point x="220" y="439"/>
			<point x="258" y="465"/>
			<point x="312" y="465" type="curve" smooth="yes"/>
			<point x="375" y="465"/>
			<point x="395" y="435"/>
			<point x="389" y="392" type="curve" smooth="yes"/>
			<point x="387" y="372"/>
			<point x="383" y="354"/>
			<point x="379" y="334" type="curve" smooth="yes"/>
			<point x="376" y="321" type="line"/>
			<point x="342" y="321" type="line" smooth="yes"/>
			<point x="141" y="321"/>
			<point x="33" y="257"/>
			<point x="8" y="139" type="curve" smooth="yes"/>
			<point x="-13" y="40"/>
			<point x="53" y="-14"/>
			<point x="147" y="-14" type="curve" smooth="yes"/>
			<point x="184" y="-14"/>
			<point x="220" y="-9"/>
			<point x="252" y="3" type="curve" smooth="yes"/>
			<point x="278" y="13"/>
			<point x="292" y="28"/>
			<point x="307" y="51" type="curve" smooth="yes"/>
		</contour>
		<contour>
			<point x="204" y="66" type="curve" smooth="yes"/>
			<point x="146" y="66"/>
			<point x="114" y="92"/>
			<point x="126" y="148" type="curve" smooth="yes"/>
			<point x="143" y="229"/>
			<point x="234" y="258"/>
			<point x="360" y="248" type="curve"/>
			<point x="350" y="199" type="line" smooth="yes"/>
			<point x="332" y="113"/>
			<point x="273" y="66"/>
		</contour>
	</outline>
</glyph>
<glyph name="idieresis" format="2">
	<advance width="251"/>
	<unicode hex="00EF"/>
	<note>
		idieresis
	</note>
	<outline>
		<contour>
			<point x="126" y="12"/>
			<point x="131" y="37" type="curve" smooth="yes"/>
			<point x="223" y="472" type="line" smooth="yes"/>
			<point x="230" y="506"/>
			<point x="205" y="536"/>
			<point x="171" y="536" type="curve" smooth="yes"/>
			<point x="145" y="536"/>
			<point x="123" y="519"/>
			<point x="118" y="494" type="curve" smooth="yes"/>
			<point x="26" y="59" type="line" smooth="yes"/>
			<point x="19" y="25"/>
			<point x="44" y="-5"/>
			<point x="78" y="-5" type="curve" smooth="yes"/>
			<point x="104" y="-5"/>
		</contour>
		<contour>
			<point x="92" y="582"/>
			<point x="121" y="582" type="curve" smooth="yes"/>
			<point x="134" y="582" type="line" smooth="yes"/>
			<point x="164" y="582"/>
			<point x="188" y="609"/>
			<point x="184" y="640" type="curve" smooth="yes"/>
			<point x="180" y="669"/>
			<point x="157" y="693"/>
			<point x="127" y="693" type="curve" smooth="yes"/>
			<point x="118" y="693"/>
			<point x="110" y="691"/>
			<point x="103" y="687" type="curve" smooth="yes"/>
			<point x="83" y="677"/>
			<point x="68" y="658"/>
			<point x="68" y="635" type="curve" smooth="yes"/>
			<point x="68" y="606"/>
		</contour>
		<contour>
			<point x="247" y="582"/>
			<point x="276" y="582" type="curve" smooth="yes"/>
			<point x="289" y="582" type="line" smooth="yes"/>
			<point x="319" y="582"/>
			<point x="343" y="609"/>
			<point x="339" y="640" type="curve" smooth="yes"/>
			<point x="335" y="669"/>
			<point x="312" y="693"/>
			<point x="282" y="693" type="curve" smooth="yes"/>
			<point x="273" y="693"/>
			<point x="265" y="691"/>
			<point x="258" y="687" type="curve" smooth="yes"/>
			<point x="238" y="677"/>
			<point x="223" y="658"/>
			<point x="223" y="635" type="curve" smooth="yes"/>
			<point x="223" y="606"/>
		</contour>
	</outline>
</glyph>
<glyph name="ograve" format="2">
	<advance width="595"/>
	<unicode hex="00F2"/>
	<note>
		ograve
	</note>
	<outline>
		<contour>
			<point x="300" y="636" type="curve" smooth="yes"/>
			<point x="307" y="626" type="line" smooth="yes"/>
			<point x="328" y="595"/>
			<point x="368" y="582"/>
			<point x="382" y="617" type="curve" smooth="yes"/>
			<point x="384" y="624"/>
			<point x="386" y="632"/>
			<point x="386" y="640" type="curve" smooth="yes"/>
			<point x="386" y="659"/>
			<point x="378" y="673"/>
			<point x="365" y="683" type="curve" smooth="yes"/>
			<point x="345" y="699"/>
			<point x="318" y="703"/>
			<point x="302" y="682" type="curve" smooth="yes"/>
			<point x="297" y="676"/>
			<point x="294" y="667"/>
			<point x="294" y="658" type="curve" smooth="yes"/>
			<point x="294" y="650"/>
			<point x="296" y="642"/>
		</contour>
		<contour>
			<point x="358" y="545" type="curve" smooth="yes"/>
			<point x="179" y="545"/>
			<point x="62" y="421"/>
			<point x="29" y="266" type="curve" smooth="yes"/>
			<point x="-4" y="111"/>
			<point x="60" y="-14"/>
			<point x="239" y="-14" type="curve" smooth="yes"/>
			<point x="417" y="-14"/>
			<point x="534" y="111"/>
			<point x="567" y="266" type="curve" smooth="yes"/>
			<point x="600" y="421"/>
			<point x="536" y="545"/>
		</contour>
		<contour>
			<point x="256" y="66" type="curve" smooth="yes"/>
			<point x="159" y="66"/>
			<point x="120" y="146"/>
			<point x="145" y="266" type="curve" smooth="yes"/>
			<point x="171" y="386"/>
			<point x="244" y="465"/>
			<point x="341" y="465" type="curve" smooth="yes"/>
			<point x="437" y="465"/>
			<point x="476" y="386"/>
			<point x="450" y="266" type="curve" smooth="yes"/>
			<point x="425" y="146"/>
			<point x="352" y="66"/>
		</contour>
	</outline>
</glyph>
<glyph name="ocircumflex" format="2">
	<advance width="595"/>
	<unicode hex="00F4"/>
	<note>
		ocircumflex
	</note>
	<outline>
		<contour>
			<point x="332" y="577"/>
			<point x="337" y="585" type="curve" smooth="yes"/>
			<point x="378" y="643" type="line"/>
			<point x="388" y="611" type="line" smooth="yes"/>
			<point x="390" y="605"/>
			<point x="392" y="599"/>
			<point x="393" y="594" type="curve" smooth="yes"/>
			<point x="397" y="583"/>
			<point x="426" y="574"/>
			<point x="446" y="604" type="curve" smooth="yes"/>
			<point x="451" y="612"/>
			<point x="454" y="622"/>
			<point x="454" y="633" type="curve" smooth="yes"/>
			<point x="454" y="645"/>
			<point x="450" y="657"/>
			<point x="443" y="666" type="curve" smooth="yes"/>
			<point x="429" y="685"/>
			<point x="408" y="698"/>
			<point x="384" y="698" type="curve" smooth="yes"/>
			<point x="364" y="698"/>
			<point x="345" y="688"/>
			<point x="334" y="674" type="curve" smooth="yes"/>
			<point x="291" y="619" type="line" smooth="yes"/>
			<point x="287" y="614"/>
			<point x="285" y="608"/>
			<point x="285" y="601" type="curve" smooth="yes"/>
			<point x="285" y="585"/>
			<point x="298" y="572"/>
			<point x="313" y="572" type="curve" smooth="yes"/>
			<point x="323" y="572"/>
		</contour>
		<contour>
			<point x="358" y="545" type="curve" smooth="yes"/>
			<point x="179" y="545"/>
			<point x="62" y="421"/>
			<point x="29" y="266" type="curve" smooth="yes"/>
			<point x="-4" y="111"/>
			<point x="60" y="-14"/>
			<point x="239" y="-14" type="curve" smooth="yes"/>
			<point x="417" y="-14"/>
			<point x="534" y="111"/>
			<point x="567" y="266" type="curve" smooth="yes"/>
			<point x="600" y="421"/>
			<point x="536" y="545"/>
		</contour>
		<contour>
			<point x="256" y="66" type="curve" smooth="yes"/>
			<point x="159" y="66"/>
			<point x="120" y="146"/>
			<point x="145" y="266" type="curve" smooth="yes"/>
			<point x="171" y="386"/>
			<point x="244" y="465"/>
			<point x="341" y="465" type="curve" smooth="yes"/>
			<point x="437" y="465"/>
			<point x="476" y="386"/>
			<point x="450" y="266" type="curve" smooth="yes"/>
			<point x="425" y="146"/>
			<point x="352" y="66"/>
		</contour>
	</outline>
</glyph>
<glyph name="odieresis" format="2">
	<advance width="595"/>
	<unicode hex="00F6"/>
	<note>
		odieresis
	</note>
	<outline>
		<contour>
			<point x="358" y="545" type="curve" smooth="yes"/>
			<point x="179" y="545"/>
			<point x="62" y="421"/>
			<point x="29" y="266" type="curve" smooth="yes"/>
			<point x="-4" y="111"/>
			<point x="60" y="-14"/>
			<point x="239" y="-14" type="curve" smooth="yes"/>
			<point x="417" y="-14"/>
			<point x="534" y="111"/>
			<point x="567" y="266" type="curve" smooth="yes"/>
			<point x="600" y="421"/>
			<point x="536" y="545"/>
		</contour>
		<contour>
			<point x="256" y="66" type="curve" smooth="yes"/>
			<point x="159" y="66"/>
			<point x="120" y="146"/>
			<point x="145" y="266" type="curve" smooth="yes"/>
			<point x="171" y="386"/>
			<point x="244" y="465"/>
			<point x="341" y="465" type="curve" smooth="yes"/>
			<point x="437" y="465"/>
			<point x="476" y="386"/>
			<point x="450" y="266" type="curve" smooth="yes"/>
			<point x="425" y="146"/>
			<point x="352" y="66"/>
		</contour>
		<contour>
			<point x="265" y="582"/>
			<point x="294" y="582" type="curve" smooth="yes"/>
			<point x="307" y="582" type="line" smooth="yes"/>
			<point x="337" y="582"/>
			<point x="361" y="609"/>
			<point x="357" y="640" type="curve" smooth="yes"/>
			<point x="353" y="669"/>
			<point x="330" y="693"/>
			<point x="300" y="693" type="curve" smooth="yes"/>
			<point x="291" y="693"/>
			<point x="283" y="691"/>
			<point x="276" y="687" type="curve" smooth="yes"/>
			<point x="256" y="677"/>
			<point x="241" y="658"/>
			<point x="241" y="635" type="curve" smooth="yes"/>
			<point x="241" y="606"/>
		</contour>
		<contour>
			<point x="420" y="582"/>
			<point x="449" y="582" type="curve" smooth="yes"/>
			<point x="462" y="582" type="line" smooth="yes"/>
			<point x="492" y="582"/>
			<point x="516" y="608"/>
			<point x="512" y="639" type="curve" smooth="yes"/>
			<point x="508" y="669"/>
			<point x="485" y="694"/>
			<point x="455" y="694" type="curve" smooth="yes"/>
			<point x="446" y="694"/>
			<point x="438" y="691"/>
			<point x="431" y="687" type="curve" smooth="yes"/>
			<point x="411" y="677"/>
			<point x="396" y="658"/>
			<point x="396" y="635" type="curve" smooth="yes"/>
			<point x="396" y="606"/>
		</contour>
	</outline>
</glyph>
<glyph name="divide" format="2">
	<advance width="601"/>
	<unicode hex="00F7"/>
	<note>
		divide
	</note>
	<outline>
		<contour>
			<point x="362" y="546" type="curve" smooth="yes"/>
			<point x="327" y="546"/>
			<point x="294" y="519"/>
			<point x="287" y="484" type="curve" smooth="yes"/>
			<point x="279" y="449"/>
			<point x="300" y="422"/>
			<point x="335" y="422" type="curve" smooth="yes"/>
			<point x="370" y="422"/>
			<point x="403" y="449"/>
			<point x="411" y="484" type="curve" smooth="yes"/>
			<point x="418" y="519"/>
			<point x="397" y="546"/>
		</contour>
		<contour>
			<point x="121" y="286" type="curve" smooth="yes"/>
			<point x="502" y="286" type="line" smooth="yes"/>
			<point x="520" y="286"/>
			<point x="535" y="301"/>
			<point x="535" y="319" type="curve" smooth="yes"/>
			<point x="535" y="337"/>
			<point x="520" y="352"/>
			<point x="502" y="352" type="curve" smooth="yes"/>
			<point x="121" y="352" type="line" smooth="yes"/>
			<point x="103" y="352"/>
			<point x="88" y="337"/>
			<point x="88" y="319" type="curve" smooth="yes"/>
			<point x="88" y="301"/>
			<point x="103" y="286"/>
		</contour>
		<contour>
			<point x="291" y="212" type="curve" smooth="yes"/>
			<point x="256" y="212"/>
			<point x="223" y="185"/>
			<point x="216" y="150" type="curve" smooth="yes"/>
			<point x="208" y="115"/>
			<point x="229" y="88"/>
			<point x="264" y="88" type="curve" smooth="yes"/>
			<point x="299" y="88"/>
			<point x="332" y="115"/>
			<point x="340" y="150" type="curve" smooth="yes"/>
			<point x="347" y="185"/>
			<point x="326" y="212"/>
		</contour>
	</outline>
</glyph>
<glyph name="ugrave" format="2">
	<advance width="604"/>
	<unicode hex="00F9"/>
	<note>
		ugrave
	</note>
	<outline>
		<contour>
			<point x="298" y="636" type="curve" smooth="yes"/>
			<point x="305" y="626" type="line" smooth="yes"/>
			<point x="326" y="595"/>
			<point x="366" y="582"/>
			<point x="380" y="617" type="curve" smooth="yes"/>
			<point x="382" y="624"/>
			<point x="384" y="632"/>
			<point x="384" y="640" type="curve" smooth="yes"/>
			<point x="384" y="659"/>
			<point x="376" y="673"/>
			<point x="363" y="683" type="curve" smooth="yes"/>
			<point x="343" y="699"/>
			<point x="316" y="703"/>
			<point x="300" y="682" type="curve" smooth="yes"/>
			<point x="295" y="676"/>
			<point x="292" y="667"/>
			<point x="292" y="658" type="curve" smooth="yes"/>
			<point x="292" y="650"/>
			<point x="294" y="642"/>
		</contour>
		<contour>
			<point x="484" y="37" type="curve" smooth="yes"/>
			<point x="576" y="472" type="line" smooth="yes"/>
			<point x="583" y="506"/>
			<point x="558" y="537"/>
			<point x="524" y="537" type="curve" smooth="yes"/>
			<point x="499" y="537"/>
			<point x="477" y="518"/>
			<point x="472" y="494" type="curve" smooth="yes"/>
			<point x="426" y="281" type="line" smooth="yes"/>
			<point x="394" y="127"/>
			<point x="323" y="68"/>
			<point x="246" y="68" type="curve" smooth="yes"/>
			<point x="178" y="68"/>
			<point x="148" y="106"/>
			<point x="153" y="164" type="curve" smooth="yes"/>
			<point x="155" y="191"/>
			<point x="160" y="220"/>
			<point x="164" y="237" type="curve" smooth="yes"/>
			<point x="214" y="472" type="line" smooth="yes"/>
			<point x="221" y="506"/>
			<point x="196" y="537"/>
			<point x="162" y="537" type="curve" smooth="yes"/>
			<point x="137" y="537"/>
			<point x="115" y="518"/>
			<point x="110" y="494" type="curve" smooth="yes"/>
			<point x="50" y="215" type="line" smooth="yes"/>
			<point x="41" y="172"/>
			<point x="37" y="148"/>
			<point x="35" y="121" type="curve" smooth="yes"/>
			<point x="32" y="48"/>
			<point x="83" y="-14"/>
			<point x="193" y="-14" type="curve" smooth="yes"/>
			<point x="234" y="-14"/>
			<point x="267" y="-9"/>
			<point x="303" y="7" type="curve" smooth="yes"/>
			<point x="327" y="19"/>
			<point x="341" y="33"/>
			<point x="357" y="54" type="curve" smooth="yes"/>
			<point x="386" y="91" type="line"/>
			<point x="379" y="59" type="line" smooth="yes"/>
			<point x="372" y="25"/>
			<point x="398" y="-5"/>
			<point x="432" y="-5" type="curve" smooth="yes"/>
			<point x="457" y="-5"/>
			<point x="479" y="12"/>
		</contour>
	</outline>
</glyph>
<glyph name="ucircumflex" format="2">
	<advance width="604"/>
	<unicode hex="00FB"/>
	<note>
		ucircumflex
	</note>
	<outline>
		<contour>
			<point x="330" y="577"/>
			<point x="335" y="585" type="curve" smooth="yes"/>
			<point x="376" y="643" type="line"/>
			<point x="386" y="611" type="line" smooth="yes"/>
			<point x="388" y="605"/>
			<point x="390" y="599"/>
			<point x="391" y="594" type="curve" smooth="yes"/>
			<point x="395" y="583"/>
			<point x="424" y="574"/>
			<point x="444" y="604" type="curve" smooth="yes"/>
			<point x="449" y="612"/>
			<point x="452" y="622"/>
			<point x="452" y="633" type="curve" smooth="yes"/>
			<point x="452" y="645"/>
			<point x="448" y="657"/>
			<point x="441" y="666" type="curve" smooth="yes"/>
			<point x="427" y="685"/>
			<point x="406" y="698"/>
			<point x="382" y="698" type="curve" smooth="yes"/>
			<point x="362" y="698"/>
			<point x="343" y="688"/>
			<point x="332" y="674" type="curve" smooth="yes"/>
			<point x="289" y="619" type="line" smooth="yes"/>
			<point x="285" y="614"/>
			<point x="283" y="608"/>
			<point x="283" y="601" type="curve" smooth="yes"/>
			<point x="283" y="585"/>
			<point x="296" y="572"/>
			<point x="311" y="572" type="curve" smooth="yes"/>
			<point x="321" y="572"/>
		</contour>
		<contour>
			<point x="484" y="37" type="curve" smooth="yes"/>
			<point x="576" y="472" type="line" smooth="yes"/>
			<point x="583" y="506"/>
			<point x="558" y="537"/>
			<point x="524" y="537" type="curve" smooth="yes"/>
			<point x="499" y="537"/>
			<point x="477" y="518"/>
			<point x="472" y="494" type="curve" smooth="yes"/>
			<point x="426" y="281" type="line" smooth="yes"/>
			<point x="394" y="127"/>
			<point x="323" y="68"/>
			<point x="246" y="68" type="curve" smooth="yes"/>
			<point x="178" y="68"/>
			<point x="148" y="106"/>
			<point x="153" y="164" type="curve" smooth="yes"/>
			<point x="155" y="191"/>
			<point x="160" y="220"/>
			<point x="164" y="237" type="curve" smooth="yes"/>
			<point x="214" y="472" type="line" smooth="yes"/>
			<point x="221" y="506"/>
			<point x="196" y="537"/>
			<point x="162" y="537" type="curve" smooth="yes"/>
			<point x="137" y="537"/>
			<point x="115" y="518"/>
			<point x="110" y="494" type="curve" smooth="yes"/>
			<point x="50" y="215" type="line" smooth="yes"/>
			<point x="41" y="172"/>
			<point x="37" y="148"/>
			<point x="35" y="121" type="curve" smooth="yes"/>
			<point x="32" y="48"/>
			<point x="83" y="-14"/>
			<point x="193" y="-14" type="curve" smooth="yes"/>
			<point x="234" y="-14"/>
			<point x="267" y="-9"/>
			<point x="303" y="7" type="curve" smooth="yes"/>
			<point x="327" y="19"/>
			<point x="341" y="33"/>
			<point x="357" y="54" type="curve" smooth="yes"/>
			<point x="386" y="91" type="line"/>
			<point x="379" y="59" type="line" smooth="yes"/>
			<point x="372" y="25"/>
			<point x="398" y="-5"/>
			<point x="432" y="-5" type="curve" smooth="yes"/>
			<point x="457" y="-5"/>
			<point x="479" y="12"/>
		</contour>
	</outline>
</glyph>
<glyph name="udieresis" format="2">
	<advance width="604"/>
	<unicode hex="00FC"/>
	<note>
		udieresis
	</note>
	<outline>
		<contour>
			<point x="484" y="37" type="curve" smooth="yes"/>
			<point x="576" y="472" type="line" smooth="yes"/>
			<point x="583" y="506"/>
			<point x="558" y="537"/>
			<point x="524" y="537" type="curve" smooth="yes"/>
			<point x="499" y="537"/>
			<point x="477" y="518"/>
			<point x="472" y="494" type="curve" smooth="yes"/>
			<point x="426" y="281" type="line" smooth="yes"/>
			<point x="394" y="127"/>
			<point x="323" y="68"/>
			<point x="246" y="68" type="curve" smooth="yes"/>
			<point x="178" y="68"/>
			<point x="148" y="106"/>
			<point x="153" y="164" type="curve" smooth="yes"/>
			<point x="155" y="191"/>
			<point x="160" y="220"/>
			<point x="164" y="237" type="curve" smooth="yes"/>
			<point x="214" y="472" type="line" smooth="yes"/>
			<point x="221" y="506"/>
			<point x="196" y="537"/>
			<point x="162" y="537" type="curve" smooth="yes"/>
			<point x="137" y="537"/>
			<point x="115" y="518"/>
			<point x="110" y="494" type="curve" smooth="yes"/>
			<point x="50" y="215" type="line" smooth="yes"/>
			<point x="41" y="172"/>
			<point x="37" y="148"/>
			<point x="35" y="121" type="curve" smooth="yes"/>
			<point x="32" y="48"/>
			<point x="83" y="-14"/>
			<point x="193" y="-14" type="curve" smooth="yes"/>
			<point x="234" y="-14"/>
			<point x="267" y="-9"/>
			<point x="303" y="7" type="curve" smooth="yes"/>
			<point x="327" y="19"/>
			<point x="341" y="33"/>
			<point x="357" y="54" type="curve" smooth="yes"/>
			<point x="386" y="91" type="line"/>
			<point x="379" y="59" type="line" smooth="yes"/>
			<point x="372" y="25"/>
			<point x="398" y="-5"/>
			<point x="432" y="-5" type="curve" smooth="yes"/>
			<point x="457" y="-5"/>
			<point x="479" y="12"/>
		</contour>
		<contour>
			<point x="255" y="592"/>
			<point x="277" y="583" type="curve" smooth="yes"/>
			<point x="283" y="581"/>
			<point x="290" y="579"/>
			<point x="297" y="579" type="curve" smooth="yes"/>
			<point x="321" y="579"/>
			<point x="341" y="596"/>
			<point x="346" y="619" type="curve" smooth="yes"/>
			<point x="349" y="631" type="line" smooth="yes"/>
			<point x="356" y="664"/>
			<point x="330" y="696"/>
			<point x="297" y="696" type="curve" smooth="yes"/>
			<point x="288" y="696"/>
			<point x="280" y="694"/>
			<point x="273" y="690" type="curve" smooth="yes"/>
			<point x="253" y="680"/>
			<point x="238" y="660"/>
			<point x="238" y="637" type="curve" smooth="yes"/>
			<point x="238" y="613"/>
		</contour>
		<contour>
			<point x="410" y="592"/>
			<point x="432" y="583" type="curve" smooth="yes"/>
			<point x="438" y="581"/>
			<point x="445" y="579"/>
			<point x="452" y="579" type="curve" smooth="yes"/>
			<point x="476" y="579"/>
			<point x="496" y="596"/>
			<point x="501" y="619" type="curve" smooth="yes"/>
			<point x="504" y="631" type="line" smooth="yes"/>
			<point x="511" y="664"/>
			<point x="485" y="696"/>
			<point x="452" y="696" type="curve" smooth="yes"/>
			<point x="443" y="696"/>
			<point x="435" y="694"/>
			<point x="428" y="690" type="curve" smooth="yes"/>
			<point x="408" y="680"/>
			<point x="393" y="660"/>
			<point x="393" y="637" type="curve" smooth="yes"/>
			<point x="393" y="613"/>
		</contour>
	</outline>
</glyph>
<glyph name="ydieresis" format="2">
	<advance width="537"/>
	<unicode hex="00FF"/>
	<note>
		ydieresis
	</note>
	<outline>
		<contour>
			<point x="254" y="-34" type="curve" smooth="yes"/>
			<point x="549" y="460" type="line" smooth="yes"/>
			<point x="553" y="467"/>
			<point x="556" y="476"/>
			<point x="556" y="486" type="curve" smooth="yes"/>
			<point x="556" y="514"/>
			<point x="533" y="537"/>
			<point x="505" y="537" type="curve" smooth="yes"/>
			<point x="486" y="537"/>
			<point x="469" y="526"/>
			<point x="461" y="510" type="curve" smooth="yes"/>
			<point x="231" y="82" type="line"/>
			<point x="186" y="484" type="line" smooth="yes"/>
			<point x="183" y="513"/>
			<point x="158" y="537"/>
			<point x="127" y="537" type="curve" smooth="yes"/>
			<point x="88" y="537"/>
			<point x="63" y="500"/>
			<point x="69" y="467" type="curve" smooth="yes"/>
			<point x="153" y="-25" type="line"/>
			<point x="141" y="-44" type="line" smooth="yes"/>
			<point x="102" y="-105"/>
			<point x="66" y="-127"/>
			<point x="16" y="-127" type="curve" smooth="yes"/>
			<point x="9" y="-127" type="line" smooth="yes"/>
			<point x="-14" y="-127"/>
			<point x="-33" y="-146"/>
			<point x="-33" y="-168" type="curve" smooth="yes"/>
			<point x="-33" y="-191"/>
			<point x="-14" y="-210"/>
			<point x="9" y="-210" type="curve" smooth="yes"/>
			<point x="15" y="-210" type="line" smooth="yes"/>
			<point x="111" y="-210"/>
			<point x="180" y="-160"/>
		</contour>
		<contour>
			<point x="228" y="587"/>
			<point x="250" y="578" type="curve" smooth="yes"/>
			<point x="256" y="576"/>
			<point x="263" y="574"/>
			<point x="270" y="574" type="curve" smooth="yes"/>
			<point x="294" y="574"/>
			<point x="314" y="591"/>
			<point x="319" y="614" type="curve" smooth="yes"/>
			<point x="322" y="626" type="line" smooth="yes"/>
			<point x="329" y="659"/>
			<point x="303" y="691"/>
			<point x="270" y="691" type="curve" smooth="yes"/>
			<point x="261" y="691"/>
			<point x="253" y="689"/>
			<point x="246" y="685" type="curve" smooth="yes"/>
			<point x="226" y="675"/>
			<point x="211" y="655"/>
			<point x="211" y="632" type="curve" smooth="yes"/>
			<point x="211" y="608"/>
		</contour>
		<contour>
			<point x="383" y="587"/>
			<point x="405" y="578" type="curve" smooth="yes"/>
			<point x="411" y="576"/>
			<point x="418" y="574"/>
			<point x="425" y="574" type="curve" smooth="yes"/>
			<point x="449" y="574"/>
			<point x="469" y="591"/>
			<point x="474" y="614" type="curve" smooth="yes"/>
			<point x="477" y="626" type="line" smooth="yes"/>
			<point x="484" y="659"/>
			<point x="458" y="690"/>
			<point x="425" y="690" type="curve" smooth="yes"/>
			<point x="416" y="690"/>
			<point x="408" y="689"/>
			<point x="401" y="685" type="curve" smooth="yes"/>
			<point x="381" y="675"/>
			<point x="366" y="655"/>
			<point x="366" y="632" type="curve" smooth="yes"/>
			<point x="366" y="608"/>
		</contour>
	</outline>
</glyph>
<glyph name="Abreve" format="2">
	<advance width="656"/>
	<unicode hex="0102"/>
	<note>
		Abreve
	</note>
	<outline>
		<contour>
			<point x="440" y="724" type="curve" smooth="yes"/>
			<point x="498" y="724"/>
			<point x="539" y="749"/>
			<point x="562" y="802" type="curve"/>
			<point x="563" y="806"/>
			<point x="564" y="810"/>
			<point x="564" y="814" type="curve" smooth="yes"/>
			<point x="564" y="830"/>
			<point x="551" y="844"/>
			<point x="534" y="844" type="curve" smooth="yes"/>
			<point x="521" y="844"/>
			<point x="510" y="836"/>
			<point x="506" y="825" type="curve" smooth="yes"/>
			<point x="496" y="798"/>
			<point x="477" y="786"/>
			<point x="453" y="786" type="curve" smooth="yes"/>
			<point x="432" y="786"/>
			<point x="418" y="795"/>
			<point x="415" y="816" type="curve" smooth="yes"/>
			<point x="413" y="832"/>
			<point x="399" y="844"/>
			<point x="382" y="844" type="curve" smooth="yes"/>
			<point x="365" y="844"/>
			<point x="351" y="831"/>
			<point x="350" y="813" type="curve" smooth="yes"/>
			<point x="346" y="752"/>
			<point x="378" y="724"/>
		</contour>
		<contour>
			<point x="207" y="228" type="line"/>
			<point x="452" y="228" type="line"/>
			<point x="474" y="46" type="line" smooth="yes"/>
			<point x="477" y="17"/>
			<point x="502" y="-5"/>
			<point x="532" y="-5" type="curve" smooth="yes"/>
			<point x="567" y="-5"/>
			<point x="595" y="26"/>
			<point x="590" y="61" type="curve" smooth="yes"/>
			<point x="510" y="636" type="line" smooth="yes"/>
			<point x="505" y="671"/>
			<point x="485" y="690"/>
			<point x="449" y="690" type="curve" smooth="yes"/>
			<point x="407" y="690" type="line" smooth="yes"/>
			<point x="375" y="690"/>
			<point x="354" y="677"/>
			<point x="338" y="650" type="curve" smooth="yes"/>
			<point x="7" y="70" type="line" smooth="yes"/>
			<point x="3" y="62"/>
			<point x="0" y="54"/>
			<point x="0" y="45" type="curve" smooth="yes"/>
			<point x="0" y="17"/>
			<point x="23" y="-5"/>
			<point x="51" y="-5" type="curve" smooth="yes"/>
			<point x="70" y="-5"/>
			<point x="87" y="6"/>
			<point x="95" y="21" type="curve" smooth="yes"/>
		</contour>
		<contour>
			<point x="442" y="315" type="line"/>
			<point x="255" y="315" type="line"/>
			<point x="411" y="599" type="line"/>
		</contour>
	</outline>
</glyph>
<glyph name="Aogonek" format="2">
	<advance width="656"/>
	<unicode hex="0104"/>
	<note>
		Aogonek
	</note>
	<outline>
		<contour>
			<point x="450" y="-107" type="curve" smooth="yes"/>
			<point x="462" y="-50"/>
			<point x="509" y="-7"/>
			<point x="555" y="0" type="curve"/>
			<point x="577" y="0" type="line" smooth="yes"/>
			<point x="590" y="0"/>
			<point x="594" y="22"/>
			<point x="589" y="62" type="curve" smooth="yes"/>
			<point x="510" y="636" type="line" smooth="yes"/>
			<point x="505" y="671"/>
			<point x="485" y="690"/>
			<point x="449" y="690" type="curve" smooth="yes"/>
			<point x="407" y="690" type="line" smooth="yes"/>
			<point x="375" y="690"/>
			<point x="354" y="677"/>
			<point x="338" y="650" type="curve" smooth="yes"/>
			<point x="7" y="70" type="line" smooth="yes"/>
			<point x="3" y="62"/>
			<point x="0" y="54"/>
			<point x="0" y="45" type="curve" smooth="yes"/>
			<point x="0" y="17"/>
			<point x="23" y="-5"/>
			<point x="51" y="-5" type="curve" smooth="yes"/>
			<point x="70" y="-5"/>
			<point x="87" y="6"/>
			<point x="95" y="21" type="curve" smooth="yes"/>
			<point x="207" y="228" type="line"/>
			<point x="452" y="228" type="line"/>
			<point x="478" y="10" type="line"/>
			<point x="418" y="-14"/>
			<point x="356" y="-67"/>
			<point x="341" y="-138" type="curve" smooth="yes"/>
			<point x="328" y="-201"/>
			<point x="363" y="-223"/>
			<point x="421" y="-223" type="curve" smooth="yes"/>
			<point x="458" y="-223"/>
			<point x="492" y="-214"/>
			<point x="524" y="-199" type="curve" smooth="yes"/>
			<point x="532" y="-195"/>
			<point x="537" y="-186"/>
			<point x="537" y="-177" type="curve" smooth="yes"/>
			<point x="537" y="-161"/>
			<point x="522" y="-150"/>
			<point x="507" y="-154" type="curve" smooth="yes"/>
			<point x="499" y="-156"/>
			<point x="491" y="-157"/>
			<point x="483" y="-157" type="curve" smooth="yes"/>
			<point x="456" y="-157"/>
			<point x="442" y="-144"/>
		</contour>
		<contour>
			<point x="442" y="315" type="line"/>
			<point x="255" y="315" type="line"/>
			<point x="411" y="599" type="line"/>
		</contour>
	</outline>
</glyph>
<glyph name="dcaron" format="2">
	<advance width="629"/>
	<unicode hex="010F"/>
	<note>
		dcaron
	</note>
	<outline>
		<contour>
			<point x="800" y="746" type="curve" smooth="yes"/>
			<point x="791" y="751"/>
			<point x="781" y="754"/>
			<point x="771" y="754" type="curve" smooth="yes"/>
			<point x="750" y="754"/>
			<point x="742" y="736"/>
			<point x="732" y="720" type="curve" smooth="yes"/>
			<point x="674" y="624" type="line" smooth="yes"/>
			<point x="671" y="620"/>
			<point x="670" y="614"/>
			<point x="670" y="608" type="curve" smooth="yes"/>
			<point x="670" y="591"/>
			<point x="684" y="577"/>
			<point x="700" y="577" type="curve" smooth="yes"/>
			<point x="711" y="577"/>
			<point x="720" y="583"/>
			<point x="725" y="590" type="curve" smooth="yes"/>
			<point x="789" y="680" type="line" smooth="yes"/>
			<point x="810" y="710"/>
			<point x="817" y="735"/>
		</contour>
		<contour>
			<point x="544" y="723"/>
			<point x="539" y="698" type="curve" smooth="yes"/>
			<point x="488" y="459" type="line"/>
			<point x="477" y="486" type="line" smooth="yes"/>
			<point x="469" y="506"/>
			<point x="458" y="521"/>
			<point x="432" y="531" type="curve" smooth="yes"/>
			<point x="407" y="540"/>
			<point x="375" y="545"/>
			<point x="346" y="545" type="curve" smooth="yes"/>
			<point x="209" y="545"/>
			<point x="69" y="451"/>
			<point x="27" y="257" type="curve" smooth="yes"/>
			<point x="-6" y="101"/>
			<point x="57" y="-14"/>
			<point x="209" y="-14" type="curve" smooth="yes"/>
			<point x="249" y="-14"/>
			<point x="291" y="-5"/>
			<point x="325" y="9" type="curve" smooth="yes"/>
			<point x="349" y="20"/>
			<point x="363" y="33"/>
			<point x="380" y="52" type="curve" smooth="yes"/>
			<point x="409" y="84" type="line"/>
			<point x="404" y="59" type="line" smooth="yes"/>
			<point x="397" y="25"/>
			<point x="422" y="-5"/>
			<point x="456" y="-5" type="curve" smooth="yes"/>
			<point x="482" y="-5"/>
			<point x="504" y="12"/>
			<point x="509" y="37" type="curve" smooth="yes"/>
			<point x="644" y="675" type="line" smooth="yes"/>
			<point x="651" y="709"/>
			<point x="626" y="740"/>
			<point x="592" y="740" type="curve" smooth="yes"/>
			<point x="566" y="740"/>
		</contour>
		<contour>
			<point x="251" y="66" type="curve" smooth="yes"/>
			<point x="156" y="66"/>
			<point x="121" y="151"/>
			<point x="145" y="266" type="curve" smooth="yes"/>
			<point x="173" y="398"/>
			<point x="254" y="465"/>
			<point x="341" y="465" type="curve" smooth="yes"/>
			<point x="412" y="465"/>
			<point x="479" y="417"/>
			<point x="452" y="288" type="curve" smooth="yes"/>
			<point x="446" y="260" type="line" smooth="yes"/>
			<point x="416" y="118"/>
			<point x="334" y="66"/>
		</contour>
	</outline>
</glyph>
<glyph name="dcroat" format="2">
	<advance width="632"/>
	<unicode hex="0111"/>
	<note>
		dcroat
	</note>
	<outline>
		<contour>
			<point x="626" y="590" type="line"/>
			<point x="648" y="590" type="line" smooth="yes"/>
			<point x="666" y="590"/>
			<point x="681" y="605"/>
			<point x="681" y="623" type="curve" smooth="yes"/>
			<point x="681" y="641"/>
			<point x="666" y="656"/>
			<point x="648" y="656" type="curve" smooth="yes"/>
			<point x="640" y="656" type="line"/>
			<point x="644" y="675" type="line" smooth="yes"/>
			<point x="651" y="709"/>
			<point x="626" y="741"/>
			<point x="592" y="741" type="curve" smooth="yes"/>
			<point x="566" y="741"/>
			<point x="544" y="723"/>
			<point x="539" y="698" type="curve" smooth="yes"/>
			<point x="530" y="656" type="line"/>
			<point x="434" y="656" type="line" smooth="yes"/>
			<point x="416" y="656"/>
			<point x="401" y="641"/>
			<point x="401" y="623" type="curve" smooth="yes"/>
			<point x="401" y="605"/>
			<point x="416" y="590"/>
			<point x="434" y="590" type="curve" smooth="yes"/>
			<point x="516" y="590" type="line"/>
			<point x="488" y="459" type="line"/>
			<point x="477" y="486" type="line" smooth="yes"/>
			<point x="469" y="506"/>
			<point x="458" y="521"/>
			<point x="432" y="531" type="curve" smooth="yes"/>
			<point x="407" y="540"/>
			<point x="375" y="545"/>
			<point x="346" y="545" type="curve" smooth="yes"/>
			<point x="209" y="545"/>
			<point x="69" y="451"/>
			<point x="27" y="257" type="curve" smooth="yes"/>
			<point x="-6" y="101"/>
			<point x="57" y="-14"/>
			<point x="209" y="-14" type="curve" smooth="yes"/>
			<point x="249" y="-14"/>
			<point x="291" y="-5"/>
			<point x="325" y="9" type="curve" smooth="yes"/>
			<point x="349" y="20"/>
			<point x="363" y="33"/>
			<point x="380" y="52" type="curve" smooth="yes"/>
			<point x="409" y="84" type="line"/>
			<point x="404" y="59" type="line" smooth="yes"/>
			<point x="397" y="25"/>
			<point x="422" y="-5"/>
			<point x="456" y="-5" type="curve" smooth="yes"/>
			<point x="482" y="-5"/>
			<point x="504" y="12"/>
			<point x="509" y="37" type="curve" smooth="yes"/>
		</contour>
		<contour>
			<point x="251" y="66" type="curve" smooth="yes"/>
			<point x="156" y="66"/>
			<point x="121" y="151"/>
			<point x="145" y="266" type="curve" smooth="yes"/>
			<point x="173" y="398"/>
			<point x="254" y="465"/>
			<point x="341" y="465" type="curve" smooth="yes"/>
			<point x="412" y="465"/>
			<point x="479" y="417"/>
			<point x="452" y="288" type="curve" smooth="yes"/>
			<point x="446" y="260" type="line" smooth="yes"/>
			<point x="416" y="118"/>
			<point x="334" y="66"/>
		</contour>
	</outline>
</glyph>
<glyph name="Emacron" format="2">
	<advance width="600"/>
	<unicode hex="0112"/>
	<note>
		Emacron
	</note>
	<outline>
		<contour>
			<point x="348" y="758" type="curve" smooth="yes"/>
			<point x="550" y="758" type="line" smooth="yes"/>
			<point x="567" y="758"/>
			<point x="581" y="772"/>
			<point x="581" y="790" type="curve" smooth="yes"/>
			<point x="581" y="807"/>
			<point x="567" y="821"/>
			<point x="550" y="821" type="curve" smooth="yes"/>
			<point x="348" y="821" type="line" smooth="yes"/>
			<point x="331" y="821"/>
			<point x="317" y="807"/>
			<point x="317" y="789" type="curve" smooth="yes"/>
			<point x="317" y="772"/>
			<point x="331" y="758"/>
		</contour>
		<contour>
			<point x="510" y="88"/>
			<point x="486" y="88" type="curve" smooth="yes"/>
			<point x="167" y="88" type="line"/>
			<point x="213" y="302" type="line"/>
			<point x="512" y="302" type="line" smooth="yes"/>
			<point x="536" y="302"/>
			<point x="556" y="321"/>
			<point x="556" y="346" type="curve" smooth="yes"/>
			<point x="556" y="370"/>
			<point x="536" y="389"/>
			<point x="512" y="389" type="curve" smooth="yes"/>
			<point x="231" y="389" type="line"/>
			<point x="277" y="603" type="line"/>
			<point x="604" y="603" type="line" smooth="yes"/>
			<point x="628" y="603"/>
			<point x="648" y="622"/>
			<point x="648" y="647" type="curve" smooth="yes"/>
			<point x="648" y="671"/>
			<point x="628" y="690"/>
			<point x="604" y="690" type="curve" smooth="yes"/>
			<point x="237" y="690" type="line" smooth="yes"/>
			<point x="202" y="690"/>
			<point x="181" y="674"/>
			<point x="174" y="639" type="curve" smooth="yes"/>
			<point x="52" y="63" type="line" smooth="yes"/>
			<point x="44" y="24"/>
			<point x="64" y="0"/>
			<point x="104" y="0" type="curve" smooth="yes"/>
			<point x="486" y="0" type="line" smooth="yes"/>
			<point x="510" y="0"/>
			<point x="530" y="20"/>
			<point x="530" y="44" type="curve" smooth="yes"/>
			<point x="530" y="68"/>
		</contour>
	</outline>
</glyph>
<glyph name="Edotaccent" format="2">
	<advance width="600"/>
	<unicode hex="0116"/>
	<note>
		Edotaccent
	</note>
	<outline>
		<contour>
			<point x="437" y="734" type="curve" smooth="yes"/>
			<point x="470" y="734"/>
			<point x="500" y="758"/>
			<point x="507" y="791" type="curve" smooth="yes"/>
			<point x="514" y="823"/>
			<point x="494" y="847"/>
			<point x="461" y="847" type="curve" smooth="yes"/>
			<point x="428" y="847"/>
			<point x="398" y="823"/>
			<point x="391" y="791" type="curve" smooth="yes"/>
			<point x="384" y="758"/>
			<point x="404" y="734"/>
		</contour>
		<contour>
			<point x="510" y="88"/>
			<point x="486" y="88" type="curve" smooth="yes"/>
			<point x="167" y="88" type="line"/>
			<point x="213" y="302" type="line"/>
			<point x="512" y="302" type="line" smooth="yes"/>
			<point x="536" y="302"/>
			<point x="556" y="321"/>
			<point x="556" y="346" type="curve" smooth="yes"/>
			<point x="556" y="370"/>
			<point x="536" y="389"/>
			<point x="512" y="389" type="curve" smooth="yes"/>
			<point x="231" y="389" type="line"/>
			<point x="277" y="603" type="line"/>
			<point x="604" y="603" type="line" smooth="yes"/>
			<point x="628" y="603"/>
			<point x="648" y="622"/>
			<point x="648" y="647" type="curve" smooth="yes"/>
			<point x="648" y="671"/>
			<point x="628" y="690"/>
			<point x="604" y="690" type="curve" smooth="yes"/>
			<point x="237" y="690" type="line" smooth="yes"/>
			<point x="202" y="690"/>
			<point x="181" y="674"/>
			<point x="174" y="639" type="curve" smooth="yes"/>
			<point x="52" y="63" type="line" smooth="yes"/>
			<point x="44" y="24"/>
			<point x="64" y="0"/>
			<point x="104" y="0" type="curve" smooth="yes"/>
			<point x="486" y="0" type="line" smooth="yes"/>
			<point x="510" y="0"/>
			<point x="530" y="20"/>
			<point x="530" y="44" type="curve" smooth="yes"/>
			<point x="530" y="68"/>
		</contour>
	</outline>
</glyph>
<glyph name="Eogonek" format="2">
	<advance width="600"/>
	<unicode hex="0118"/>
	<note>
		Eogonek
	</note>
	<outline>
		<contour>
			<point x="432" y="-157" type="curve" smooth="yes"/>
			<point x="405" y="-157"/>
			<point x="391" y="-144"/>
			<point x="399" y="-107" type="curve" smooth="yes"/>
			<point x="408" y="-64"/>
			<point x="437" y="-29"/>
			<point x="471" y="-11" type="curve" smooth="yes"/>
			<point x="494" y="1"/>
			<point x="518" y="1"/>
			<point x="529" y="24" type="curve"/>
			<point x="531" y="30"/>
			<point x="533" y="37"/>
			<point x="533" y="44" type="curve" smooth="yes"/>
			<point x="533" y="70"/>
			<point x="512" y="92"/>
			<point x="486" y="92" type="curve" smooth="yes"/>
			<point x="459" y="92"/>
			<point x="438" y="70"/>
			<point x="438" y="44" type="curve" smooth="yes"/>
			<point x="438" y="18"/>
			<point x="459" y="-4"/>
			<point x="486" y="-4" type="curve" smooth="yes"/>
			<point x="489" y="-4"/>
			<point x="488" y="19"/>
			<point x="486" y="42" type="curve" smooth="yes"/>
			<point x="485" y="72"/>
			<point x="465" y="88"/>
			<point x="428" y="88" type="curve" smooth="yes"/>
			<point x="167" y="88" type="line"/>
			<point x="213" y="302" type="line"/>
			<point x="512" y="302" type="line" smooth="yes"/>
			<point x="536" y="302"/>
			<point x="556" y="321"/>
			<point x="556" y="346" type="curve" smooth="yes"/>
			<point x="556" y="370"/>
			<point x="536" y="389"/>
			<point x="512" y="389" type="curve" smooth="yes"/>
			<point x="231" y="389" type="line"/>
			<point x="277" y="603" type="line"/>
			<point x="604" y="603" type="line" smooth="yes"/>
			<point x="628" y="603"/>
			<point x="648" y="622"/>
			<point x="648" y="647" type="curve" smooth="yes"/>
			<point x="648" y="671"/>
			<point x="628" y="690"/>
			<point x="604" y="690" type="curve" smooth="yes"/>
			<point x="237" y="690" type="line" smooth="yes"/>
			<point x="202" y="690"/>
			<point x="181" y="674"/>
			<point x="174" y="639" type="curve" smooth="yes"/>
			<point x="52" y="63" type="line" smooth="yes"/>
			<point x="44" y="24"/>
			<point x="64" y="0"/>
			<point x="104" y="0" type="curve" smooth="yes"/>
			<point x="406" y="0" type="line"/>
			<point x="353" y="-27"/>
			<point x="304" y="-75"/>
			<point x="290" y="-138" type="curve" smooth="yes"/>
			<point x="277" y="-201"/>
			<point x="312" y="-223"/>
			<point x="370" y="-223" type="curve" smooth="yes"/>
			<point x="407" y="-223"/>
			<point x="441" y="-214"/>
			<point x="473" y="-199" type="curve" smooth="yes"/>
			<point x="481" y="-195"/>
			<point x="486" y="-186"/>
			<point x="486" y="-177" type="curve" smooth="yes"/>
			<point x="486" y="-161"/>
			<point x="471" y="-150"/>
			<point x="456" y="-154" type="curve" smooth="yes"/>
			<point x="448" y="-156"/>
			<point x="440" y="-157"/>
		</contour>
	</outline>
</glyph>
<glyph name="eogonek" format="2">
	<advance width="562"/>
	<unicode hex="0119"/>
	<note>
		eogonek
	</note>
	<outline>
		<contour>
			<point x="535" y="316" type="curve" smooth="yes"/>
			<point x="551" y="448"/>
			<point x="490" y="545"/>
			<point x="349" y="545" type="curve" smooth="yes"/>
			<point x="196" y="545"/>
			<point x="64" y="432"/>
			<point x="29" y="264" type="curve" smooth="yes"/>
			<point x="-9" y="88"/>
			<point x="66" y="-2"/>
			<point x="193" y="-13" type="curve"/>
			<point x="150" y="-41"/>
			<point x="112" y="-84"/>
			<point x="100" y="-138" type="curve" smooth="yes"/>
			<point x="87" y="-201"/>
			<point x="122" y="-223"/>
			<point x="180" y="-223" type="curve" smooth="yes"/>
			<point x="217" y="-223"/>
			<point x="251" y="-214"/>
			<point x="283" y="-199" type="curve" smooth="yes"/>
			<point x="291" y="-195"/>
			<point x="296" y="-186"/>
			<point x="296" y="-177" type="curve" smooth="yes"/>
			<point x="296" y="-161"/>
			<point x="281" y="-150"/>
			<point x="266" y="-154" type="curve" smooth="yes"/>
			<point x="258" y="-156"/>
			<point x="250" y="-157"/>
			<point x="242" y="-157" type="curve" smooth="yes"/>
			<point x="215" y="-157"/>
			<point x="201" y="-144"/>
			<point x="209" y="-107" type="curve" smooth="yes"/>
			<point x="219" y="-58"/>
			<point x="255" y="-20"/>
			<point x="294" y="-5" type="curve"/>
			<point x="300" y="-4"/>
			<point x="306" y="-2"/>
			<point x="314" y="0" type="curve" smooth="yes"/>
			<point x="369" y="17"/>
			<point x="420" y="50"/>
			<point x="457" y="101" type="curve" smooth="yes"/>
			<point x="463" y="109"/>
			<point x="467" y="119"/>
			<point x="467" y="130" type="curve" smooth="yes"/>
			<point x="467" y="156"/>
			<point x="445" y="178"/>
			<point x="419" y="178" type="curve" smooth="yes"/>
			<point x="400" y="178"/>
			<point x="384" y="167"/>
			<point x="376" y="152" type="curve" smooth="yes"/>
			<point x="347" y="96"/>
			<point x="296" y="66"/>
			<point x="240" y="66" type="curve" smooth="yes"/>
			<point x="168" y="66"/>
			<point x="119" y="108"/>
			<point x="137" y="235" type="curve"/>
			<point x="467" y="235" type="line" smooth="yes"/>
			<point x="481" y="235"/>
			<point x="494" y="242"/>
			<point x="504" y="251" type="curve" smooth="yes"/>
			<point x="525" y="269"/>
			<point x="532" y="289"/>
		</contour>
		<contour>
			<point x="328" y="465" type="curve" smooth="yes"/>
			<point x="405" y="465"/>
			<point x="436" y="410"/>
			<point x="423" y="312" type="curve"/>
			<point x="154" y="312" type="line"/>
			<point x="188" y="414"/>
			<point x="253" y="465"/>
		</contour>
	</outline>
</glyph>
<glyph name="Gbreve" format="2">
	<advance width="722"/>
	<unicode hex="011E"/>
	<note>
		Gbreve
	</note>
	<outline>
		<contour>
			<point x="467" y="724" type="curve" smooth="yes"/>
			<point x="525" y="724"/>
			<point x="566" y="749"/>
			<point x="589" y="802" type="curve"/>
			<point x="590" y="806"/>
			<point x="591" y="810"/>
			<point x="591" y="814" type="curve" smooth="yes"/>
			<point x="591" y="830"/>
			<point x="578" y="844"/>
			<point x="561" y="844" type="curve" smooth="yes"/>
			<point x="548" y="844"/>
			<point x="537" y="836"/>
			<point x="533" y="825" type="curve" smooth="yes"/>
			<point x="523" y="798"/>
			<point x="504" y="786"/>
			<point x="480" y="786" type="curve" smooth="yes"/>
			<point x="459" y="786"/>
			<point x="445" y="795"/>
			<point x="442" y="816" type="curve" smooth="yes"/>
			<point x="440" y="832"/>
			<point x="426" y="844"/>
			<point x="409" y="844" type="curve" smooth="yes"/>
			<point x="392" y="844"/>
			<point x="378" y="831"/>
			<point x="377" y="813" type="curve" smooth="yes"/>
			<point x="373" y="752"/>
			<point x="405" y="724"/>
		</contour>
		<contour>
			<point x="614" y="342" type="curve" smooth="yes"/>
			<point x="448" y="342" type="line" smooth="yes"/>
			<point x="424" y="342"/>
			<point x="404" y="322"/>
			<point x="404" y="298" type="curve" smooth="yes"/>
			<point x="404" y="274"/>
			<point x="424" y="254"/>
			<point x="448" y="254" type="curve" smooth="yes"/>
			<point x="554" y="254" type="line"/>
			<point x="524" y="143"/>
			<point x="435" y="70"/>
			<point x="333" y="70" type="curve" smooth="yes"/>
			<point x="210" y="70"/>
			<point x="149" y="176"/>
			<point x="185" y="347" type="curve" smooth="yes"/>
			<point x="220" y="510"/>
			<point x="326" y="620"/>
			<point x="454" y="620" type="curve" smooth="yes"/>
			<point x="543" y="620"/>
			<point x="589" y="578"/>
			<point x="600" y="509" type="curve" smooth="yes"/>
			<point x="604" y="480"/>
			<point x="607" y="455"/>
			<point x="634" y="444" type="curve" smooth="yes"/>
			<point x="642" y="441"/>
			<point x="650" y="439"/>
			<point x="659" y="439" type="curve" smooth="yes"/>
			<point x="670" y="439"/>
			<point x="680" y="442"/>
			<point x="689" y="447" type="curve" smooth="yes"/>
			<point x="709" y="459"/>
			<point x="716" y="479"/>
			<point x="715" y="508" type="curve" smooth="yes"/>
			<point x="712" y="623"/>
			<point x="637" y="704"/>
			<point x="474" y="704" type="curve" smooth="yes"/>
			<point x="280" y="704"/>
			<point x="111" y="559"/>
			<point x="65" y="342" type="curve" smooth="yes"/>
			<point x="21" y="132"/>
			<point x="106" y="-14"/>
			<point x="303" y="-14" type="curve" smooth="yes"/>
			<point x="366" y="-14"/>
			<point x="418" y="1"/>
			<point x="462" y="29" type="curve" smooth="yes"/>
			<point x="484" y="43"/>
			<point x="495" y="58"/>
			<point x="510" y="79" type="curve" smooth="yes"/>
			<point x="536" y="117" type="line"/>
			<point x="524" y="48" type="line" smooth="yes"/>
			<point x="519" y="21"/>
			<point x="540" y="-6"/>
			<point x="569" y="-6" type="curve" smooth="yes"/>
			<point x="591" y="-6"/>
			<point x="609" y="11"/>
			<point x="613" y="31" type="curve" smooth="yes"/>
			<point x="666" y="279" type="line" smooth="yes"/>
			<point x="674" y="319"/>
			<point x="654" y="342"/>
		</contour>
	</outline>
</glyph>
<glyph name="Hbar" format="2">
	<advance width="740"/>
	<unicode hex="0126"/>
	<note>
		Hbar
	</note>
	<outline>
		<contour>
			<point x="717" y="497" type="line"/>
			<point x="736" y="497" type="line" smooth="yes"/>
			<point x="754" y="497"/>
			<point x="769" y="512"/>
			<point x="769" y="530" type="curve" smooth="yes"/>
			<point x="769" y="548"/>
			<point x="754" y="563"/>
			<point x="736" y="563" type="curve" smooth="yes"/>
			<point x="731" y="563" type="line"/>
			<point x="745" y="631" type="line" smooth="yes"/>
			<point x="752" y="665"/>
			<point x="727" y="696"/>
			<point x="693" y="696" type="curve" smooth="yes"/>
			<point x="668" y="696"/>
			<point x="646" y="678"/>
			<point x="641" y="653" type="curve" smooth="yes"/>
			<point x="622" y="563" type="line"/>
			<point x="268" y="563" type="line"/>
			<point x="282" y="631" type="line" smooth="yes"/>
			<point x="289" y="665"/>
			<point x="264" y="696"/>
			<point x="230" y="696" type="curve" smooth="yes"/>
			<point x="204" y="696"/>
			<point x="182" y="678"/>
			<point x="177" y="653" type="curve" smooth="yes"/>
			<point x="158" y="563" type="line"/>
			<point x="139" y="563" type="line" smooth="yes"/>
			<point x="121" y="563"/>
			<point x="106" y="548"/>
			<point x="106" y="530" type="curve" smooth="yes"/>
			<point x="106" y="512"/>
			<point x="121" y="497"/>
			<point x="139" y="497" type="curve" smooth="yes"/>
			<point x="144" y="497" type="line"/>
			<point x="52" y="59" type="line" smooth="yes"/>
			<point x="45" y="25"/>
			<point x="70" y="-6"/>
			<point x="104" y="-6" type="curve" smooth="yes"/>
			<point x="130" y="-6"/>
			<point x="152" y="12"/>
			<point x="157" y="37" type="curve" smooth="yes"/>
			<point x="211" y="294" type="line"/>
			<point x="565" y="294" type="line"/>
			<point x="515" y="59" type="line" smooth="yes"/>
			<point x="508" y="25"/>
			<point x="534" y="-6"/>
			<point x="568" y="-6" type="curve" smooth="yes"/>
			<point x="593" y="-6"/>
			<point x="615" y="12"/>
			<point x="620" y="37" type="curve" smooth="yes"/>
		</contour>
		<contour>
			<point x="254" y="497" type="line"/>
			<point x="608" y="497" type="line"/>
			<point x="584" y="383" type="line"/>
			<point x="230" y="383" type="line"/>
		</contour>
	</outline>
</glyph>
<glyph name="imacron" format="2">
	<advance width="251"/>
	<unicode hex="012B"/>
	<note>
		imacron
	</note>
	<outline>
		<contour>
			<point x="101" y="600" type="curve" smooth="yes"/>
			<point x="303" y="600" type="line" smooth="yes"/>
			<point x="320" y="600"/>
			<point x="335" y="614"/>
			<point x="335" y="632" type="curve" smooth="yes"/>
			<point x="335" y="649"/>
			<point x="320" y="663"/>
			<point x="303" y="663" type="curve" smooth="yes"/>
			<point x="101" y="663" type="line" smooth="yes"/>
			<point x="84" y="663"/>
			<point x="69" y="649"/>
			<point x="69" y="632" type="curve" smooth="yes"/>
			<point x="69" y="614"/>
			<point x="84" y="600"/>
		</contour>
		<contour>
			<point x="126" y="12"/>
			<point x="131" y="37" type="curve" smooth="yes"/>
			<point x="223" y="472" type="line" smooth="yes"/>
			<point x="230" y="506"/>
			<point x="205" y="536"/>
			<point x="171" y="536" type="curve" smooth="yes"/>
			<point x="145" y="536"/>
			<point x="123" y="519"/>
			<point x="118" y="494" type="curve" smooth="yes"/>
			<point x="26" y="59" type="line" smooth="yes"/>
			<point x="19" y="25"/>
			<point x="44" y="-5"/>
			<point x="78" y="-5" type="curve" smooth="yes"/>
			<point x="104" y="-5"/>
		</contour>
	</outline>
</glyph>
<glyph name="Iogonek" format="2">
	<advance width="277"/>
	<unicode hex="012E"/>
	<note>
		Iogonek
	</note>
	<outline>
		<contour>
			<point x="116" y="0" type="curve"/>
			<point x="138" y="0"/>
			<point x="153" y="16"/>
			<point x="160" y="51" type="curve" smooth="yes"/>
			<point x="282" y="631" type="line" smooth="yes"/>
			<point x="289" y="665"/>
			<point x="264" y="696"/>
			<point x="230" y="696" type="curve" smooth="yes"/>
			<point x="204" y="696"/>
			<point x="182" y="678"/>
			<point x="177" y="653" type="curve" smooth="yes"/>
			<point x="41" y="10" type="line"/>
			<point x="41" y="10"/>
			<point x="27" y="7"/>
			<point x="1" y="-9" type="curve" smooth="yes"/>
			<point x="-45" y="-37"/>
			<point x="-86" y="-82"/>
			<point x="-98" y="-138" type="curve" smooth="yes"/>
			<point x="-111" y="-201"/>
			<point x="-76" y="-223"/>
			<point x="-18" y="-223" type="curve" smooth="yes"/>
			<point x="19" y="-223"/>
			<point x="53" y="-214"/>
			<point x="85" y="-199" type="curve" smooth="yes"/>
			<point x="93" y="-195"/>
			<point x="98" y="-186"/>
			<point x="98" y="-177" type="curve" smooth="yes"/>
			<point x="98" y="-161"/>
			<point x="83" y="-150"/>
			<point x="68" y="-154" type="curve" smooth="yes"/>
			<point x="60" y="-156"/>
			<point x="52" y="-157"/>
			<point x="44" y="-157" type="curve" smooth="yes"/>
			<point x="17" y="-157"/>
			<point x="3" y="-144"/>
			<point x="11" y="-107" type="curve" smooth="yes"/>
			<point x="23" y="-50"/>
			<point x="70" y="-7"/>
		</contour>
	</outline>
</glyph>
<glyph name="IJ" format="2">
	<advance width="844"/>
	<unicode hex="0132"/>
	<note>
		IJ
	</note>
	<outline>
		<contour>
			<point x="152" y="12"/>
			<point x="157" y="37" type="curve" smooth="yes"/>
			<point x="282" y="631" type="line" smooth="yes"/>
			<point x="289" y="665"/>
			<point x="264" y="695"/>
			<point x="230" y="695" type="curve" smooth="yes"/>
			<point x="204" y="695"/>
			<point x="182" y="678"/>
			<point x="177" y="653" type="curve" smooth="yes"/>
			<point x="52" y="59" type="line" smooth="yes"/>
			<point x="45" y="25"/>
			<point x="70" y="-5"/>
			<point x="104" y="-5" type="curve" smooth="yes"/>
			<point x="130" y="-5"/>
		</contour>
		<contour>
			<point x="792" y="273" type="curve" smooth="yes"/>
			<point x="867" y="631" type="line" smooth="yes"/>
			<point x="874" y="665"/>
			<point x="849" y="695"/>
			<point x="815" y="695" type="curve" smooth="yes"/>
			<point x="789" y="695"/>
			<point x="767" y="678"/>
			<point x="762" y="653" type="curve" smooth="yes"/>
			<point x="681" y="268" type="line" smooth="yes"/>
			<point x="674" y="236"/>
			<point x="669" y="212"/>
			<point x="663" y="191" type="curve" smooth="yes"/>
			<point x="641" y="116"/>
			<point x="596" y="70"/>
			<point x="523" y="70" type="curve" smooth="yes"/>
			<point x="460" y="70"/>
			<point x="425" y="99"/>
			<point x="426" y="167" type="curve" smooth="yes"/>
			<point x="426" y="194"/>
			<point x="431" y="216"/>
			<point x="411" y="235" type="curve" smooth="yes"/>
			<point x="401" y="245"/>
			<point x="387" y="251"/>
			<point x="372" y="251" type="curve" smooth="yes"/>
			<point x="344" y="251"/>
			<point x="323" y="230"/>
			<point x="318" y="204" type="curve" smooth="yes"/>
			<point x="294" y="70"/>
			<point x="352" y="-14"/>
			<point x="495" y="-14" type="curve" smooth="yes"/>
			<point x="649" y="-14"/>
			<point x="738" y="67"/>
			<point x="770" y="184" type="curve" smooth="yes"/>
			<point x="781" y="223"/>
			<point x="786" y="245"/>
		</contour>
	</outline>
</glyph>
<glyph name="ij" format="2">
	<advance width="496"/>
	<unicode hex="0133"/>
	<note>
		ij
	</note>
	<outline>
		<contour>
			<point x="126" y="12"/>
			<point x="131" y="37" type="curve" smooth="yes"/>
			<point x="223" y="472" type="line" smooth="yes"/>
			<point x="230" y="506"/>
			<point x="205" y="536"/>
			<point x="171" y="536" type="curve" smooth="yes"/>
			<point x="145" y="536"/>
			<point x="123" y="519"/>
			<point x="118" y="494" type="curve" smooth="yes"/>
			<point x="26" y="59" type="line" smooth="yes"/>
			<point x="19" y="25"/>
			<point x="44" y="-5"/>
			<point x="78" y="-5" type="curve" smooth="yes"/>
			<point x="104" y="-5"/>
		</contour>
		<contour>
			<point x="362" y="-31" type="curve" smooth="yes"/>
			<point x="469" y="472" type="line" smooth="yes"/>
			<point x="476" y="506"/>
			<point x="451" y="536"/>
			<point x="417" y="536" type="curve" smooth="yes"/>
			<point x="392" y="536"/>
			<point x="370" y="518"/>
			<point x="365" y="494" type="curve" smooth="yes"/>
			<point x="252" y="-34" type="line" smooth="yes"/>
			<point x="249" y="-49"/>
			<point x="246" y="-65"/>
			<point x="241" y="-79" type="curve" smooth="yes"/>
			<point x="231" y="-108"/>
			<point x="212" y="-123"/>
			<point x="173" y="-125" type="curve" smooth="yes"/>
			<point x="151" y="-126"/>
			<point x="132" y="-145"/>
			<point x="132" y="-168" type="curve" smooth="yes"/>
			<point x="132" y="-191"/>
			<point x="151" y="-210"/>
			<point x="174" y="-210" type="curve" smooth="yes"/>
			<point x="274" y="-210"/>
			<point x="324" y="-168"/>
			<point x="346" y="-95" type="curve" smooth="yes"/>
			<point x="351" y="-77"/>
			<point x="358" y="-51"/>
		</contour>
		<contour>
			<point x="176" y="589"/>
			<point x="211" y="589" type="curve" smooth="yes"/>
			<point x="236" y="589"/>
			<point x="253" y="605"/>
			<point x="260" y="640" type="curve" smooth="yes"/>
			<point x="264" y="661" type="line" smooth="yes"/>
			<point x="272" y="699"/>
			<point x="237" y="729"/>
			<point x="203" y="720" type="curve" smooth="yes"/>
			<point x="172" y="712"/>
			<point x="147" y="685"/>
			<point x="147" y="652" type="curve" smooth="yes"/>
			<point x="147" y="617"/>
		</contour>
		<contour>
			<point x="423" y="589"/>
			<point x="458" y="589" type="curve" smooth="yes"/>
			<point x="483" y="589"/>
			<point x="500" y="605"/>
			<point x="507" y="640" type="curve" smooth="yes"/>
			<point x="511" y="661" type="line" smooth="yes"/>
			<point x="519" y="699"/>
			<point x="484" y="729"/>
			<point x="450" y="720" type="curve" smooth="yes"/>
			<point x="419" y="712"/>
			<point x="394" y="685"/>
			<point x="394" y="653" type="curve" smooth="yes"/>
			<point x="394" y="617"/>
		</contour>
	</outline>
</glyph>
<glyph name="uni0136" format="2">
	<advance width="643"/>
	<unicode hex="0136"/>
	<note>
		Kcommaaccent
	</note>
	<outline>
		<contour>
			<point x="529" y="89" type="curve" smooth="yes"/>
			<point x="365" y="356" type="line"/>
			<point x="665" y="619" type="line" smooth="yes"/>
			<point x="706" y="655"/>
			<point x="701" y="690"/>
			<point x="657" y="690" type="curve" smooth="yes"/>
			<point x="628" y="690"/>
			<point x="607" y="683"/>
			<point x="585" y="663" type="curve" smooth="yes"/>
			<point x="221" y="339" type="line"/>
			<point x="282" y="631" type="line" smooth="yes"/>
			<point x="289" y="665"/>
			<point x="264" y="695"/>
			<point x="230" y="695" type="curve" smooth="yes"/>
			<point x="204" y="695"/>
			<point x="182" y="678"/>
			<point x="177" y="653" type="curve" smooth="yes"/>
			<point x="52" y="59" type="line" smooth="yes"/>
			<point x="45" y="25"/>
			<point x="70" y="-5"/>
			<point x="104" y="-5" type="curve" smooth="yes"/>
			<point x="130" y="-5"/>
			<point x="152" y="12"/>
			<point x="157" y="37" type="curve" smooth="yes"/>
			<point x="196" y="222" type="line"/>
			<point x="271" y="288" type="line"/>
			<point x="422" y="26" type="line" smooth="yes"/>
			<point x="433" y="8"/>
			<point x="453" y="-6"/>
			<point x="476" y="-6" type="curve" smooth="yes"/>
			<point x="510" y="-6"/>
			<point x="538" y="22"/>
			<point x="538" y="57" type="curve" smooth="yes"/>
			<point x="538" y="69"/>
			<point x="535" y="79"/>
		</contour>
		<contour>
			<point x="246" y="-48"/>
			<point x="236" y="-64" type="curve" smooth="yes"/>
			<point x="178" y="-159" type="line" smooth="yes"/>
			<point x="175" y="-163"/>
			<point x="174" y="-169"/>
			<point x="174" y="-175" type="curve" smooth="yes"/>
			<point x="174" y="-192"/>
			<point x="188" y="-206"/>
			<point x="204" y="-206" type="curve" smooth="yes"/>
			<point x="215" y="-206"/>
			<point x="224" y="-200"/>
			<point x="229" y="-193" type="curve" smooth="yes"/>
			<point x="293" y="-104" type="line" smooth="yes"/>
			<point x="314" y="-74"/>
			<point x="317" y="-34"/>
			<point x="281" y="-29" type="curve"/>
			<point x="274" y="-29" type="line" smooth="yes"/>
			<point x="254" y="-29"/>
		</contour>
	</outline>
</glyph>
<glyph name="lacute" format="2">
	<advance width="262"/>
	<unicode hex="013A"/>
	<note>
		lacute
	</note>
	<outline>
		<contour>
			<point x="252" y="781"/>
			<point x="256" y="785" type="curve" smooth="yes"/>
			<point x="325" y="846" type="line" smooth="yes"/>
			<point x="331" y="852"/>
			<point x="336" y="861"/>
			<point x="336" y="871" type="curve" smooth="yes"/>
			<point x="336" y="889"/>
			<point x="321" y="904"/>
			<point x="303" y="904" type="curve" smooth="yes"/>
			<point x="293" y="904"/>
			<point x="284" y="900"/>
			<point x="278" y="892" type="curve" smooth="yes"/>
			<point x="219" y="821" type="line" smooth="yes"/>
			<point x="216" y="817"/>
			<point x="213" y="810"/>
			<point x="213" y="804" type="curve" smooth="yes"/>
			<point x="213" y="790"/>
			<point x="225" y="779"/>
			<point x="239" y="779" type="curve" smooth="yes"/>
			<point x="246" y="779"/>
		</contour>
		<contour>
			<point x="153" y="162" type="curve" smooth="yes"/>
			<point x="262" y="675" type="line" smooth="yes"/>
			<point x="269" y="709"/>
			<point x="244" y="740"/>
			<point x="210" y="740" type="curve" smooth="yes"/>
			<point x="184" y="740"/>
			<point x="162" y="723"/>
			<point x="157" y="698" type="curve" smooth="yes"/>
			<point x="42" y="159" type="line" smooth="yes"/>
			<point x="36" y="127"/>
			<point x="31" y="103"/>
			<point x="27" y="83" type="curve" smooth="yes"/>
			<point x="17" y="15"/>
			<point x="51" y="-6"/>
			<point x="109" y="-6" type="curve" smooth="yes"/>
			<point x="125" y="-6"/>
			<point x="140" y="-5"/>
			<point x="157" y="-4" type="curve" smooth="yes"/>
			<point x="178" y="-3"/>
			<point x="195" y="15"/>
			<point x="195" y="36" type="curve" smooth="yes"/>
			<point x="195" y="56"/>
			<point x="182" y="73"/>
			<point x="164" y="77" type="curve" smooth="yes"/>
			<point x="145" y="81"/>
			<point x="140" y="92"/>
			<point x="143" y="112" type="curve" smooth="yes"/>
			<point x="146" y="128"/>
			<point x="149" y="144"/>
		</contour>
	</outline>
</glyph>
<glyph name="uni013C" format="2">
	<advance width="262"/>
	<unicode hex="013C"/>
	<note>
		lcommaaccent
	</note>
	<outline>
		<contour>
			<point x="153" y="162" type="curve" smooth="yes"/>
			<point x="262" y="675" type="line" smooth="yes"/>
			<point x="269" y="709"/>
			<point x="244" y="740"/>
			<point x="210" y="740" type="curve" smooth="yes"/>
			<point x="184" y="740"/>
			<point x="162" y="723"/>
			<point x="157" y="698" type="curve" smooth="yes"/>
			<point x="42" y="159" type="line" smooth="yes"/>
			<point x="36" y="127"/>
			<point x="31" y="103"/>
			<point x="27" y="83" type="curve" smooth="yes"/>
			<point x="17" y="15"/>
			<point x="51" y="-6"/>
			<point x="109" y="-6" type="curve" smooth="yes"/>
			<point x="125" y="-6"/>
			<point x="140" y="-5"/>
			<point x="157" y="-4" type="curve" smooth="yes"/>
			<point x="178" y="-3"/>
			<point x="195" y="15"/>
			<point x="195" y="36" type="curve" smooth="yes"/>
			<point x="195" y="56"/>
			<point x="182" y="73"/>
			<point x="164" y="77" type="curve" smooth="yes"/>
			<point x="145" y="81"/>
			<point x="140" y="92"/>
			<point x="143" y="112" type="curve" smooth="yes"/>
			<point x="146" y="128"/>
			<point x="149" y="144"/>
		</contour>
		<contour>
			<point x="15" y="-193" type="curve" smooth="yes"/>
			<point x="79" y="-103" type="line" smooth="yes"/>
			<point x="100" y="-73"/>
			<point x="103" y="-34"/>
			<point x="67" y="-29" type="curve"/>
			<point x="61" y="-29" type="line" smooth="yes"/>
			<point x="40" y="-29"/>
			<point x="32" y="-48"/>
			<point x="22" y="-64" type="curve" smooth="yes"/>
			<point x="-35" y="-159" type="line" smooth="yes"/>
			<point x="-38" y="-163"/>
			<point x="-40" y="-169"/>
			<point x="-40" y="-175" type="curve" smooth="yes"/>
			<point x="-40" y="-192"/>
			<point x="-26" y="-205"/>
			<point x="-10" y="-205" type="curve" smooth="yes"/>
			<point x="1" y="-205"/>
			<point x="10" y="-200"/>
		</contour>
	</outline>
</glyph>
<glyph name="Lcaron" format="2">
	<advance width="588"/>
	<unicode hex="013D"/>
	<note>
		Lcaron
	</note>
	<outline>
		<contour>
			<point x="510" y="91"/>
			<point x="485" y="91" type="curve" smooth="yes"/>
			<point x="168" y="91" type="line"/>
			<point x="282" y="631" type="line" smooth="yes"/>
			<point x="289" y="665"/>
			<point x="264" y="696"/>
			<point x="230" y="696" type="curve" smooth="yes"/>
			<point x="204" y="696"/>
			<point x="182" y="678"/>
			<point x="177" y="653" type="curve" smooth="yes"/>
			<point x="52" y="63" type="line" smooth="yes"/>
			<point x="44" y="24"/>
			<point x="64" y="0"/>
			<point x="104" y="0" type="curve" smooth="yes"/>
			<point x="485" y="0" type="line" smooth="yes"/>
			<point x="510" y="0"/>
			<point x="530" y="20"/>
			<point x="530" y="46" type="curve" smooth="yes"/>
			<point x="530" y="71"/>
		</contour>
	</outline>
</glyph>
<glyph name="lslash" format="2">
	<advance width="297"/>
	<unicode hex="0142"/>
	<note>
		lslash
	</note>
	<outline>
		<contour>
			<point x="169" y="112" type="curve" smooth="yes"/>
			<point x="171" y="128"/>
			<point x="174" y="144"/>
			<point x="178" y="162" type="curve" smooth="yes"/>
			<point x="211" y="315" type="line"/>
			<point x="277" y="351" type="line" smooth="yes"/>
			<point x="286" y="356"/>
			<point x="293" y="366"/>
			<point x="293" y="378" type="curve" smooth="yes"/>
			<point x="293" y="395"/>
			<point x="279" y="409"/>
			<point x="262" y="409" type="curve" smooth="yes"/>
			<point x="257" y="409"/>
			<point x="252" y="408"/>
			<point x="247" y="405" type="curve" smooth="yes"/>
			<point x="228" y="395" type="line"/>
			<point x="288" y="676" type="line" smooth="yes"/>
			<point x="295" y="710"/>
			<point x="269" y="741"/>
			<point x="235" y="741" type="curve" smooth="yes"/>
			<point x="210" y="741"/>
			<point x="188" y="723"/>
			<point x="183" y="698" type="curve" smooth="yes"/>
			<point x="105" y="330" type="line"/>
			<point x="39" y="294" type="line" smooth="yes"/>
			<point x="30" y="289"/>
			<point x="23" y="279"/>
			<point x="23" y="267" type="curve" smooth="yes"/>
			<point x="23" y="250"/>
			<point x="37" y="236"/>
			<point x="54" y="236" type="curve" smooth="yes"/>
			<point x="59" y="236"/>
			<point x="64" y="237"/>
			<point x="69" y="240" type="curve" smooth="yes"/>
			<point x="88" y="250" type="line"/>
			<point x="68" y="159" type="line" smooth="yes"/>
			<point x="62" y="127"/>
			<point x="57" y="103"/>
			<point x="53" y="83" type="curve" smooth="yes"/>
			<point x="42" y="15"/>
			<point x="77" y="-6"/>
			<point x="135" y="-6" type="curve" smooth="yes"/>
			<point x="151" y="-6"/>
			<point x="166" y="-5"/>
			<point x="183" y="-4" type="curve" smooth="yes"/>
			<point x="204" y="-3"/>
			<point x="221" y="15"/>
			<point x="221" y="36" type="curve" smooth="yes"/>
			<point x="221" y="56"/>
			<point x="208" y="73"/>
			<point x="190" y="77" type="curve" smooth="yes"/>
			<point x="171" y="81"/>
			<point x="166" y="92"/>
		</contour>
	</outline>
</glyph>
<glyph name="Nacute" format="2">
	<advance width="737"/>
	<unicode hex="0143"/>
	<note>
		Nacute
	</note>
	<outline>
		<contour>
			<point x="504" y="733"/>
			<point x="508" y="737" type="curve" smooth="yes"/>
			<point x="566" y="787" type="line" smooth="yes"/>
			<point x="573" y="793"/>
			<point x="578" y="802"/>
			<point x="578" y="811" type="curve" smooth="yes"/>
			<point x="578" y="829"/>
			<point x="563" y="844"/>
			<point x="546" y="844" type="curve" smooth="yes"/>
			<point x="536" y="844"/>
			<point x="527" y="839"/>
			<point x="521" y="832" type="curve" smooth="yes"/>
			<point x="471" y="773" type="line" smooth="yes"/>
			<point x="468" y="769"/>
			<point x="465" y="762"/>
			<point x="465" y="756" type="curve" smooth="yes"/>
			<point x="465" y="742"/>
			<point x="477" y="731"/>
			<point x="491" y="731" type="curve" smooth="yes"/>
			<point x="497" y="731"/>
		</contour>
		<contour>
			<point x="501" y="0" type="curve" smooth="yes"/>
			<point x="557" y="0" type="line" smooth="yes"/>
			<point x="592" y="0"/>
			<point x="613" y="16"/>
			<point x="620" y="51" type="curve" smooth="yes"/>
			<point x="742" y="632" type="line" smooth="yes"/>
			<point x="749" y="665"/>
			<point x="724" y="696"/>
			<point x="690" y="696" type="curve" smooth="yes"/>
			<point x="665" y="696"/>
			<point x="643" y="678"/>
			<point x="638" y="654" type="curve" smooth="yes"/>
			<point x="576" y="358" type="line" smooth="yes"/>
			<point x="561" y="287"/>
			<point x="542" y="195"/>
			<point x="528" y="117" type="curve"/>
			<point x="356" y="643" type="line" smooth="yes"/>
			<point x="346" y="675"/>
			<point x="324" y="690"/>
			<point x="290" y="690" type="curve" smooth="yes"/>
			<point x="237" y="690" type="line" smooth="yes"/>
			<point x="202" y="690"/>
			<point x="181" y="674"/>
			<point x="174" y="639" type="curve" smooth="yes"/>
			<point x="52" y="59" type="line" smooth="yes"/>
			<point x="45" y="25"/>
			<point x="70" y="-6"/>
			<point x="104" y="-6" type="curve" smooth="yes"/>
			<point x="130" y="-6"/>
			<point x="152" y="12"/>
			<point x="157" y="37" type="curve" smooth="yes"/>
			<point x="219" y="330" type="line" smooth="yes"/>
			<point x="234" y="401"/>
			<point x="252" y="490"/>
			<point x="266" y="569" type="curve"/>
			<point x="436" y="48" type="line" smooth="yes"/>
			<point x="446" y="16"/>
			<point x="467" y="0"/>
		</contour>
	</outline>
</glyph>
<glyph name="uni0145" format="2">
	<advance width="737"/>
	<unicode hex="0145"/>
	<note>
		Ncommaaccent
	</note>
	<outline>
		<contour>
			<point x="501" y="0" type="curve" smooth="yes"/>
			<point x="557" y="0" type="line" smooth="yes"/>
			<point x="592" y="0"/>
			<point x="613" y="16"/>
			<point x="620" y="51" type="curve" smooth="yes"/>
			<point x="742" y="632" type="line" smooth="yes"/>
			<point x="749" y="665"/>
			<point x="724" y="696"/>
			<point x="690" y="696" type="curve" smooth="yes"/>
			<point x="665" y="696"/>
			<point x="643" y="678"/>
			<point x="638" y="654" type="curve" smooth="yes"/>
			<point x="576" y="358" type="line" smooth="yes"/>
			<point x="561" y="287"/>
			<point x="542" y="195"/>
			<point x="528" y="117" type="curve"/>
			<point x="356" y="643" type="line" smooth="yes"/>
			<point x="346" y="675"/>
			<point x="324" y="690"/>
			<point x="290" y="690" type="curve" smooth="yes"/>
			<point x="237" y="690" type="line" smooth="yes"/>
			<point x="202" y="690"/>
			<point x="181" y="674"/>
			<point x="174" y="639" type="curve" smooth="yes"/>
			<point x="52" y="59" type="line" smooth="yes"/>
			<point x="45" y="25"/>
			<point x="70" y="-6"/>
			<point x="104" y="-6" type="curve" smooth="yes"/>
			<point x="130" y="-6"/>
			<point x="152" y="12"/>
			<point x="157" y="37" type="curve" smooth="yes"/>
			<point x="219" y="330" type="line" smooth="yes"/>
			<point x="234" y="401"/>
			<point x="252" y="490"/>
			<point x="266" y="569" type="curve"/>
			<point x="436" y="48" type="line" smooth="yes"/>
			<point x="446" y="16"/>
			<point x="467" y="0"/>
		</contour>
		<contour>
			<point x="266" y="-193" type="curve" smooth="yes"/>
			<point x="330" y="-103" type="line" smooth="yes"/>
			<point x="351" y="-73"/>
			<point x="354" y="-34"/>
			<point x="318" y="-29" type="curve"/>
			<point x="312" y="-29" type="line" smooth="yes"/>
			<point x="291" y="-29"/>
			<point x="283" y="-48"/>
			<point x="273" y="-64" type="curve" smooth="yes"/>
			<point x="216" y="-159" type="line" smooth="yes"/>
			<point x="213" y="-163"/>
			<point x="211" y="-169"/>
			<point x="211" y="-175" type="curve" smooth="yes"/>
			<point x="211" y="-192"/>
			<point x="225" y="-205"/>
			<point x="241" y="-205" type="curve" smooth="yes"/>
			<point x="252" y="-205"/>
			<point x="261" y="-200"/>
		</contour>
	</outline>
</glyph>
<glyph name="Ncaron" format="2">
	<advance width="737"/>
	<unicode hex="0147"/>
	<note>
		Ncaron
	</note>
	<outline>
		<contour>
			<point x="439" y="736"/>
			<point x="467" y="736" type="curve" smooth="yes"/>
			<point x="483" y="736" type="line" smooth="yes"/>
			<point x="518" y="736"/>
			<point x="549" y="755"/>
			<point x="566" y="782" type="curve" smooth="yes"/>
			<point x="580" y="805"/>
			<point x="585" y="832"/>
			<point x="561" y="842" type="curve" smooth="yes"/>
			<point x="558" y="843"/>
			<point x="554" y="844"/>
			<point x="551" y="844" type="curve" smooth="yes"/>
			<point x="542" y="844"/>
			<point x="534" y="839"/>
			<point x="529" y="832" type="curve" smooth="yes"/>
			<point x="489" y="777" type="line"/>
			<point x="480" y="808" type="line" smooth="yes"/>
			<point x="474" y="828"/>
			<point x="469" y="838"/>
			<point x="467" y="838" type="curve" smooth="yes"/>
			<point x="439" y="838"/>
			<point x="416" y="815"/>
			<point x="416" y="787" type="curve" smooth="yes"/>
			<point x="416" y="759"/>
		</contour>
		<contour>
			<point x="266" y="569" type="curve"/>
			<point x="436" y="48" type="line" smooth="yes"/>
			<point x="446" y="16"/>
			<point x="467" y="0"/>
			<point x="501" y="0" type="curve" smooth="yes"/>
			<point x="557" y="0" type="line" smooth="yes"/>
			<point x="592" y="0"/>
			<point x="613" y="16"/>
			<point x="620" y="51" type="curve" smooth="yes"/>
			<point x="742" y="632" type="line" smooth="yes"/>
			<point x="749" y="665"/>
			<point x="724" y="696"/>
			<point x="690" y="696" type="curve" smooth="yes"/>
			<point x="665" y="696"/>
			<point x="643" y="678"/>
			<point x="638" y="654" type="curve" smooth="yes"/>
			<point x="576" y="358" type="line" smooth="yes"/>
			<point x="561" y="287"/>
			<point x="542" y="195"/>
			<point x="528" y="117" type="curve"/>
			<point x="356" y="643" type="line" smooth="yes"/>
			<point x="346" y="675"/>
			<point x="324" y="690"/>
			<point x="290" y="690" type="curve" smooth="yes"/>
			<point x="237" y="690" type="line" smooth="yes"/>
			<point x="202" y="690"/>
			<point x="181" y="674"/>
			<point x="174" y="639" type="curve" smooth="yes"/>
			<point x="52" y="59" type="line" smooth="yes"/>
			<point x="45" y="25"/>
			<point x="70" y="-6"/>
			<point x="104" y="-6" type="curve" smooth="yes"/>
			<point x="130" y="-6"/>
			<point x="152" y="12"/>
			<point x="157" y="37" type="curve" smooth="yes"/>
			<point x="219" y="330" type="line" smooth="yes"/>
			<point x="234" y="401"/>
			<point x="252" y="490"/>
		</contour>
	</outline>
</glyph>
<glyph name="omacron" format="2">
	<advance width="595"/>
	<unicode hex="014D"/>
	<note>
		omacron
	</note>
	<outline>
		<contour>
			<point x="276" y="600" type="curve" smooth="yes"/>
			<point x="477" y="600" type="line" smooth="yes"/>
			<point x="494" y="600"/>
			<point x="509" y="614"/>
			<point x="509" y="632" type="curve" smooth="yes"/>
			<point x="509" y="649"/>
			<point x="494" y="663"/>
			<point x="477" y="663" type="curve" smooth="yes"/>
			<point x="276" y="663" type="line" smooth="yes"/>
			<point x="259" y="663"/>
			<point x="244" y="649"/>
			<point x="244" y="631" type="curve" smooth="yes"/>
			<point x="244" y="614"/>
			<point x="259" y="600"/>
		</contour>
		<contour>
			<point x="358" y="545" type="curve" smooth="yes"/>
			<point x="179" y="545"/>
			<point x="62" y="421"/>
			<point x="29" y="266" type="curve" smooth="yes"/>
			<point x="-4" y="111"/>
			<point x="60" y="-14"/>
			<point x="239" y="-14" type="curve" smooth="yes"/>
			<point x="417" y="-14"/>
			<point x="534" y="111"/>
			<point x="567" y="266" type="curve" smooth="yes"/>
			<point x="600" y="421"/>
			<point x="536" y="545"/>
		</contour>
		<contour>
			<point x="256" y="66" type="curve" smooth="yes"/>
			<point x="159" y="66"/>
			<point x="120" y="146"/>
			<point x="145" y="266" type="curve" smooth="yes"/>
			<point x="171" y="386"/>
			<point x="244" y="465"/>
			<point x="341" y="465" type="curve" smooth="yes"/>
			<point x="437" y="465"/>
			<point x="476" y="386"/>
			<point x="450" y="266" type="curve" smooth="yes"/>
			<point x="425" y="146"/>
			<point x="352" y="66"/>
		</contour>
	</outline>
</glyph>
<glyph name="OE" format="2">
	<advance width="1101"/>
	<unicode hex="0152"/>
	<note>
		OE
	</note>
	<outline>
		<contour>
			<point x="1011" y="88"/>
			<point x="987" y="88" type="curve" smooth="yes"/>
			<point x="668" y="88" type="line"/>
			<point x="714" y="302" type="line"/>
			<point x="1013" y="302" type="line" smooth="yes"/>
			<point x="1037" y="302"/>
			<point x="1057" y="321"/>
			<point x="1057" y="346" type="curve" smooth="yes"/>
			<point x="1057" y="370"/>
			<point x="1037" y="389"/>
			<point x="1013" y="389" type="curve" smooth="yes"/>
			<point x="732" y="389" type="line"/>
			<point x="778" y="603" type="line"/>
			<point x="1105" y="603" type="line" smooth="yes"/>
			<point x="1129" y="603"/>
			<point x="1149" y="622"/>
			<point x="1149" y="647" type="curve" smooth="yes"/>
			<point x="1149" y="671"/>
			<point x="1129" y="690"/>
			<point x="1105" y="690" type="curve" smooth="yes"/>
			<point x="738" y="690" type="line" smooth="yes"/>
			<point x="703" y="690"/>
			<point x="682" y="674"/>
			<point x="675" y="639" type="curve" smooth="yes"/>
			<point x="658" y="559" type="line"/>
			<point x="652" y="594" type="line" smooth="yes"/>
			<point x="647" y="619"/>
			<point x="640" y="637"/>
			<point x="621" y="656" type="curve" smooth="yes"/>
			<point x="584" y="691"/>
			<point x="536" y="704"/>
			<point x="457" y="704" type="curve" smooth="yes"/>
			<point x="263" y="704"/>
			<point x="110" y="551"/>
			<point x="66" y="345" type="curve" smooth="yes"/>
			<point x="22" y="140"/>
			<point x="111" y="-14"/>
			<point x="305" y="-14" type="curve" smooth="yes"/>
			<point x="381" y="-14"/>
			<point x="440" y="0"/>
			<point x="495" y="38" type="curve" smooth="yes"/>
			<point x="517" y="53"/>
			<point x="529" y="69"/>
			<point x="543" y="91" type="curve" smooth="yes"/>
			<point x="567" y="129" type="line"/>
			<point x="553" y="63" type="line" smooth="yes"/>
			<point x="545" y="24"/>
			<point x="565" y="0"/>
			<point x="605" y="0" type="curve" smooth="yes"/>
			<point x="987" y="0" type="line" smooth="yes"/>
			<point x="1011" y="0"/>
			<point x="1031" y="20"/>
			<point x="1031" y="44" type="curve" smooth="yes"/>
			<point x="1031" y="68"/>
		</contour>
		<contour>
			<point x="341" y="70" type="curve" smooth="yes"/>
			<point x="206" y="70"/>
			<point x="149" y="180"/>
			<point x="184" y="345" type="curve" smooth="yes"/>
			<point x="220" y="512"/>
			<point x="322" y="620"/>
			<point x="457" y="620" type="curve" smooth="yes"/>
			<point x="591" y="620"/>
			<point x="649" y="512"/>
			<point x="613" y="345" type="curve" smooth="yes"/>
			<point x="578" y="180"/>
			<point x="475" y="70"/>
		</contour>
	</outline>
</glyph>
<glyph name="oe" format="2">
	<advance width="984"/>
	<unicode hex="0153"/>
	<note>
		oe
	</note>
	<outline>
		<contour>
			<point x="957" y="316" type="curve" smooth="yes"/>
			<point x="972" y="448"/>
			<point x="911" y="545"/>
			<point x="773" y="545" type="curve" smooth="yes"/>
			<point x="687" y="545"/>
			<point x="607" y="509"/>
			<point x="543" y="424" type="curve"/>
			<point x="517" y="506"/>
			<point x="454" y="545"/>
			<point x="358" y="545" type="curve" smooth="yes"/>
			<point x="179" y="545"/>
			<point x="62" y="421"/>
			<point x="29" y="266" type="curve" smooth="yes"/>
			<point x="-4" y="111"/>
			<point x="60" y="-14"/>
			<point x="239" y="-14" type="curve" smooth="yes"/>
			<point x="333" y="-14"/>
			<point x="411" y="23"/>
			<point x="471" y="103" type="curve"/>
			<point x="497" y="19"/>
			<point x="561" y="-14"/>
			<point x="642" y="-14" type="curve" smooth="yes"/>
			<point x="732" y="-14"/>
			<point x="820" y="23"/>
			<point x="878" y="101" type="curve" smooth="yes"/>
			<point x="884" y="109"/>
			<point x="888" y="119"/>
			<point x="888" y="130" type="curve" smooth="yes"/>
			<point x="888" y="156"/>
			<point x="866" y="178"/>
			<point x="840" y="178" type="curve" smooth="yes"/>
			<point x="821" y="178"/>
			<point x="805" y="167"/>
			<point x="797" y="152" type="curve" smooth="yes"/>
			<point x="768" y="96"/>
			<point x="718" y="66"/>
			<point x="661" y="66" type="curve" smooth="yes"/>
			<point x="590" y="66"/>
			<point x="542" y="114"/>
			<point x="560" y="235" type="curve"/>
			<point x="888" y="235" type="line" smooth="yes"/>
			<point x="902" y="235"/>
			<point x="915" y="243"/>
			<point x="926" y="251" type="curve" smooth="yes"/>
			<point x="947" y="269"/>
			<point x="954" y="289"/>
		</contour>
		<contour>
			<point x="256" y="66" type="curve" smooth="yes"/>
			<point x="159" y="66"/>
			<point x="120" y="146"/>
			<point x="145" y="266" type="curve" smooth="yes"/>
			<point x="171" y="386"/>
			<point x="244" y="465"/>
			<point x="341" y="465" type="curve" smooth="yes"/>
			<point x="437" y="465"/>
			<point x="476" y="386"/>
			<point x="450" y="266" type="curve" smooth="yes"/>
			<point x="425" y="146"/>
			<point x="352" y="66"/>
		</contour>
		<contour>
			<point x="845" y="312" type="curve"/>
			<point x="577" y="312" type="line"/>
			<point x="610" y="413"/>
			<point x="674" y="465"/>
			<point x="750" y="465" type="curve" smooth="yes"/>
			<point x="827" y="465"/>
			<point x="857" y="410"/>
		</contour>
	</outline>
</glyph>
<glyph name="uni0157" format="2">
	<advance width="353"/>
	<unicode hex="0157"/>
	<note>
		rcommaaccent
	</note>
	<outline>
		<contour>
			<point x="328" y="538" type="curve" smooth="yes"/>
			<point x="310" y="532" type="line" smooth="yes"/>
			<point x="284" y="521"/>
			<point x="271" y="507"/>
			<point x="254" y="486" type="curve" smooth="yes"/>
			<point x="216" y="441" type="line"/>
			<point x="223" y="471" type="line" smooth="yes"/>
			<point x="230" y="505"/>
			<point x="205" y="537"/>
			<point x="171" y="537" type="curve" smooth="yes"/>
			<point x="145" y="537"/>
			<point x="123" y="519"/>
			<point x="118" y="494" type="curve" smooth="yes"/>
			<point x="26" y="59" type="line" smooth="yes"/>
			<point x="19" y="25"/>
			<point x="44" y="-5"/>
			<point x="78" y="-5" type="curve" smooth="yes"/>
			<point x="104" y="-5"/>
			<point x="126" y="12"/>
			<point x="131" y="37" type="curve" smooth="yes"/>
			<point x="181" y="276" type="line" smooth="yes"/>
			<point x="206" y="392"/>
			<point x="266" y="446"/>
			<point x="353" y="451" type="curve" smooth="yes"/>
			<point x="377" y="452"/>
			<point x="397" y="473"/>
			<point x="397" y="499" type="curve" smooth="yes"/>
			<point x="397" y="509"/>
			<point x="394" y="519"/>
			<point x="388" y="527" type="curve" smooth="yes"/>
			<point x="376" y="544"/>
			<point x="354" y="546"/>
		</contour>
		<contour>
			<point x="23" y="-48"/>
			<point x="13" y="-64" type="curve" smooth="yes"/>
			<point x="-45" y="-159" type="line" smooth="yes"/>
			<point x="-48" y="-163"/>
			<point x="-49" y="-169"/>
			<point x="-49" y="-175" type="curve" smooth="yes"/>
			<point x="-49" y="-192"/>
			<point x="-35" y="-206"/>
			<point x="-19" y="-206" type="curve" smooth="yes"/>
			<point x="-8" y="-206"/>
			<point x="1" y="-200"/>
			<point x="6" y="-193" type="curve" smooth="yes"/>
			<point x="70" y="-104" type="line" smooth="yes"/>
			<point x="91" y="-74"/>
			<point x="94" y="-34"/>
			<point x="58" y="-29" type="curve"/>
			<point x="51" y="-29" type="line" smooth="yes"/>
			<point x="31" y="-29"/>
		</contour>
	</outline>
</glyph>
<glyph name="Scedilla" format="2">
	<advance width="595"/>
	<unicode hex="015E"/>
	<note>
		Scedilla
	</note>
	<outline>
		<contour>
			<point x="549" y="187" type="curve" smooth="yes"/>
			<point x="574" y="302"/>
			<point x="516" y="367"/>
			<point x="371" y="402" type="curve" smooth="yes"/>
			<point x="269" y="427"/>
			<point x="235" y="458"/>
			<point x="249" y="525" type="curve" smooth="yes"/>
			<point x="263" y="590"/>
			<point x="320" y="620"/>
			<point x="385" y="620" type="curve" smooth="yes"/>
			<point x="448" y="620"/>
			<point x="484" y="591"/>
			<point x="492" y="537" type="curve" smooth="yes"/>
			<point x="496" y="510"/>
			<point x="520" y="488"/>
			<point x="549" y="488" type="curve" smooth="yes"/>
			<point x="584" y="488"/>
			<point x="610" y="518"/>
			<point x="606" y="553" type="curve" smooth="yes"/>
			<point x="594" y="644"/>
			<point x="534" y="704"/>
			<point x="409" y="704" type="curve" smooth="yes"/>
			<point x="280" y="704"/>
			<point x="155" y="629"/>
			<point x="129" y="507" type="curve" smooth="yes"/>
			<point x="104" y="387"/>
			<point x="181" y="338"/>
			<point x="305" y="307" type="curve" smooth="yes"/>
			<point x="411" y="281"/>
			<point x="446" y="244"/>
			<point x="430" y="172" type="curve" smooth="yes"/>
			<point x="417" y="109"/>
			<point x="352" y="70"/>
			<point x="280" y="70" type="curve" smooth="yes"/>
			<point x="214" y="70"/>
			<point x="168" y="100"/>
			<point x="153" y="160" type="curve" smooth="yes"/>
			<point x="147" y="186"/>
			<point x="123" y="206"/>
			<point x="94" y="206" type="curve" smooth="yes"/>
			<point x="55" y="206"/>
			<point x="30" y="170"/>
			<point x="35" y="137" type="curve" smooth="yes"/>
			<point x="48" y="50"/>
			<point x="110" y="0"/>
			<point x="212" y="-11" type="curve"/>
			<point x="187" y="-46" type="line" smooth="yes"/>
			<point x="171" y="-68"/>
			<point x="188" y="-71"/>
			<point x="228" y="-85" type="curve" smooth="yes"/>
			<point x="247" y="-92"/>
			<point x="252" y="-104"/>
			<point x="249" y="-122" type="curve" smooth="yes"/>
			<point x="244" y="-146"/>
			<point x="220" y="-161"/>
			<point x="178" y="-161" type="curve" smooth="yes"/>
			<point x="167" y="-161"/>
			<point x="157" y="-160"/>
			<point x="146" y="-158" type="curve" smooth="yes"/>
			<point x="131" y="-155"/>
			<point x="115" y="-167"/>
			<point x="115" y="-183" type="curve" smooth="yes"/>
			<point x="115" y="-195"/>
			<point x="124" y="-206"/>
			<point x="136" y="-208" type="curve" smooth="yes"/>
			<point x="146" y="-209"/>
			<point x="156" y="-210"/>
			<point x="166" y="-210" type="curve" smooth="yes"/>
			<point x="244" y="-210"/>
			<point x="306" y="-181"/>
			<point x="319" y="-122" type="curve" smooth="yes"/>
			<point x="329" y="-76"/>
			<point x="305" y="-48"/>
			<point x="252" y="-41" type="curve"/>
			<point x="272" y="-14" type="line"/>
			<point x="402" y="-10"/>
			<point x="523" y="65"/>
		</contour>
	</outline>
</glyph>
<glyph name="scaron" format="2">
	<advance width="476"/>
	<unicode hex="0161"/>
	<note>
		scaron
	</note>
	<outline>
		<contour>
			<point x="353" y="583"/>
			<point x="364" y="597" type="curve" smooth="yes"/>
			<point x="407" y="651" type="line" smooth="yes"/>
			<point x="411" y="656"/>
			<point x="413" y="662"/>
			<point x="413" y="669" type="curve" smooth="yes"/>
			<point x="413" y="685"/>
			<point x="400" y="697"/>
			<point x="385" y="697" type="curve" smooth="yes"/>
			<point x="375" y="697"/>
			<point x="366" y="694"/>
			<point x="361" y="686" type="curve" smooth="yes"/>
			<point x="319" y="626" type="line"/>
			<point x="310" y="659" type="line" smooth="yes"/>
			<point x="304" y="681"/>
			<point x="299" y="692"/>
			<point x="298" y="692" type="curve" smooth="yes"/>
			<point x="268" y="692"/>
			<point x="244" y="668"/>
			<point x="244" y="638" type="curve" smooth="yes"/>
			<point x="244" y="625"/>
			<point x="248" y="614"/>
			<point x="255" y="604" type="curve" smooth="yes"/>
			<point x="270" y="586"/>
			<point x="290" y="572"/>
			<point x="314" y="572" type="curve" smooth="yes"/>
			<point x="334" y="572"/>
		</contour>
		<contour>
			<point x="283" y="310" type="curve" smooth="yes"/>
			<point x="208" y="331"/>
			<point x="173" y="351"/>
			<point x="183" y="399" type="curve" smooth="yes"/>
			<point x="192" y="439"/>
			<point x="223" y="468"/>
			<point x="275" y="468" type="curve" smooth="yes"/>
			<point x="315" y="468"/>
			<point x="340" y="450"/>
			<point x="349" y="415" type="curve" smooth="yes"/>
			<point x="356" y="390"/>
			<point x="378" y="373"/>
			<point x="405" y="373" type="curve" smooth="yes"/>
			<point x="436" y="373"/>
			<point x="462" y="398"/>
			<point x="462" y="430" type="curve" smooth="yes"/>
			<point x="462" y="436"/>
			<point x="461" y="441"/>
			<point x="460" y="446" type="curve" smooth="yes"/>
			<point x="443" y="507"/>
			<point x="390" y="545"/>
			<point x="300" y="545" type="curve" smooth="yes"/>
			<point x="182" y="545"/>
			<point x="91" y="485"/>
			<point x="70" y="386" type="curve" smooth="yes"/>
			<point x="50" y="293"/>
			<point x="113" y="252"/>
			<point x="205" y="227" type="curve" smooth="yes"/>
			<point x="290" y="203"/>
			<point x="321" y="178"/>
			<point x="311" y="132" type="curve" smooth="yes"/>
			<point x="301" y="86"/>
			<point x="255" y="64"/>
			<point x="204" y="64" type="curve" smooth="yes"/>
			<point x="161" y="64"/>
			<point x="128" y="81"/>
			<point x="116" y="123" type="curve" smooth="yes"/>
			<point x="109" y="148"/>
			<point x="87" y="165"/>
			<point x="61" y="165" type="curve" smooth="yes"/>
			<point x="29" y="165"/>
			<point x="3" y="140"/>
			<point x="3" y="108" type="curve" smooth="yes"/>
			<point x="3" y="103"/>
			<point x="4" y="98"/>
			<point x="5" y="94" type="curve" smooth="yes"/>
			<point x="25" y="19"/>
			<point x="91" y="-14"/>
			<point x="184" y="-14" type="curve" smooth="yes"/>
			<point x="300" y="-14"/>
			<point x="402" y="37"/>
			<point x="423" y="140" type="curve" smooth="yes"/>
			<point x="443" y="234"/>
			<point x="392" y="280"/>
		</contour>
	</outline>
</glyph>
<glyph name="uni0162" format="2">
	<advance width="617"/>
	<unicode hex="0162"/>
	<note>
		Tcedilla
	</note>
	<outline>
		<contour>
			<point x="270" y="-41" type="curve"/>
			<point x="300" y="0" type="line"/>
			<point x="312" y="0" type="line" smooth="yes"/>
			<point x="319" y="0"/>
			<point x="327" y="16"/>
			<point x="334" y="51" type="curve" smooth="yes"/>
			<point x="451" y="603" type="line"/>
			<point x="662" y="603" type="line" smooth="yes"/>
			<point x="686" y="603"/>
			<point x="706" y="622"/>
			<point x="706" y="646" type="curve" smooth="yes"/>
			<point x="706" y="671"/>
			<point x="686" y="690"/>
			<point x="662" y="690" type="curve" smooth="yes"/>
			<point x="149" y="690" type="line" smooth="yes"/>
			<point x="125" y="690"/>
			<point x="105" y="671"/>
			<point x="105" y="647" type="curve" smooth="yes"/>
			<point x="105" y="622"/>
			<point x="125" y="603"/>
			<point x="149" y="603" type="curve" smooth="yes"/>
			<point x="342" y="603" type="line"/>
			<point x="227" y="63" type="line" smooth="yes"/>
			<point x="219" y="23"/>
			<point x="224" y="0"/>
			<point x="239" y="0" type="curve"/>
			<point x="209" y="-41" type="line" smooth="yes"/>
			<point x="190" y="-67"/>
			<point x="206" y="-71"/>
			<point x="246" y="-85" type="curve" smooth="yes"/>
			<point x="265" y="-92"/>
			<point x="270" y="-104"/>
			<point x="267" y="-122" type="curve" smooth="yes"/>
			<point x="262" y="-146"/>
			<point x="238" y="-161"/>
			<point x="196" y="-161" type="curve" smooth="yes"/>
			<point x="185" y="-161"/>
			<point x="175" y="-160"/>
			<point x="164" y="-158" type="curve" smooth="yes"/>
			<point x="149" y="-155"/>
			<point x="133" y="-167"/>
			<point x="133" y="-183" type="curve" smooth="yes"/>
			<point x="133" y="-195"/>
			<point x="142" y="-206"/>
			<point x="154" y="-208" type="curve" smooth="yes"/>
			<point x="164" y="-209"/>
			<point x="174" y="-210"/>
			<point x="184" y="-210" type="curve" smooth="yes"/>
			<point x="262" y="-210"/>
			<point x="324" y="-181"/>
			<point x="337" y="-122" type="curve" smooth="yes"/>
			<point x="347" y="-76"/>
			<point x="323" y="-48"/>
		</contour>
	</outline>
</glyph>
<glyph name="uni0163" format="2">
	<advance width="335"/>
	<unicode hex="0163"/>
	<note>
		tcedilla
	</note>
	<outline>
		<contour>
			<point x="180" y="172" type="curve" smooth="yes"/>
			<point x="239" y="450" type="line"/>
			<point x="318" y="450" type="line" smooth="yes"/>
			<point x="339" y="450"/>
			<point x="356" y="467"/>
			<point x="356" y="489" type="curve" smooth="yes"/>
			<point x="356" y="510"/>
			<point x="339" y="527"/>
			<point x="318" y="527" type="curve" smooth="yes"/>
			<point x="256" y="527" type="line"/>
			<point x="270" y="595" type="line" smooth="yes"/>
			<point x="277" y="629"/>
			<point x="252" y="660"/>
			<point x="218" y="660" type="curve" smooth="yes"/>
			<point x="193" y="660"/>
			<point x="171" y="642"/>
			<point x="166" y="617" type="curve" smooth="yes"/>
			<point x="147" y="527" type="line"/>
			<point x="97" y="527" type="line" smooth="yes"/>
			<point x="76" y="527"/>
			<point x="59" y="510"/>
			<point x="59" y="489" type="curve" smooth="yes"/>
			<point x="59" y="467"/>
			<point x="76" y="450"/>
			<point x="97" y="450" type="curve" smooth="yes"/>
			<point x="130" y="450" type="line"/>
			<point x="69" y="162" type="line" smooth="yes"/>
			<point x="63" y="132"/>
			<point x="58" y="109"/>
			<point x="55" y="91" type="curve" smooth="yes"/>
			<point x="48" y="41"/>
			<point x="61" y="10"/>
			<point x="100" y="-3" type="curve"/>
			<point x="71" y="-42" type="line" smooth="yes"/>
			<point x="53" y="-67"/>
			<point x="69" y="-71"/>
			<point x="109" y="-85" type="curve" smooth="yes"/>
			<point x="128" y="-92"/>
			<point x="133" y="-104"/>
			<point x="130" y="-122" type="curve" smooth="yes"/>
			<point x="125" y="-146"/>
			<point x="101" y="-161"/>
			<point x="59" y="-161" type="curve" smooth="yes"/>
			<point x="48" y="-161"/>
			<point x="38" y="-160"/>
			<point x="27" y="-158" type="curve" smooth="yes"/>
			<point x="12" y="-155"/>
			<point x="-4" y="-167"/>
			<point x="-4" y="-183" type="curve" smooth="yes"/>
			<point x="-4" y="-195"/>
			<point x="5" y="-206"/>
			<point x="17" y="-208" type="curve" smooth="yes"/>
			<point x="27" y="-209"/>
			<point x="37" y="-210"/>
			<point x="47" y="-210" type="curve" smooth="yes"/>
			<point x="125" y="-210"/>
			<point x="187" y="-181"/>
			<point x="200" y="-122" type="curve" smooth="yes"/>
			<point x="210" y="-76"/>
			<point x="186" y="-48"/>
			<point x="133" y="-41" type="curve"/>
			<point x="156" y="-10" type="line"/>
			<point x="158" y="-10" type="line" smooth="yes"/>
			<point x="177" y="-10"/>
			<point x="195" y="-9"/>
			<point x="216" y="-7" type="curve" smooth="yes"/>
			<point x="236" y="-6"/>
			<point x="252" y="11"/>
			<point x="252" y="31" type="curve" smooth="yes"/>
			<point x="252" y="52"/>
			<point x="236" y="69"/>
			<point x="216" y="70" type="curve" smooth="yes"/>
			<point x="175" y="72"/>
			<point x="167" y="88"/>
			<point x="172" y="128" type="curve" smooth="yes"/>
			<point x="174" y="142"/>
			<point x="176" y="154"/>
		</contour>
	</outline>
</glyph>
<glyph name="Tcaron" format="2">
	<advance width="617"/>
	<unicode hex="0164"/>
	<note>
		Tcaron
	</note>
	<outline>
		<contour>
			<point x="384" y="736"/>
			<point x="412" y="736" type="curve" smooth="yes"/>
			<point x="428" y="736" type="line" smooth="yes"/>
			<point x="463" y="736"/>
			<point x="494" y="755"/>
			<point x="511" y="782" type="curve" smooth="yes"/>
			<point x="525" y="805"/>
			<point x="530" y="832"/>
			<point x="506" y="842" type="curve" smooth="yes"/>
			<point x="503" y="843"/>
			<point x="499" y="844"/>
			<point x="496" y="844" type="curve" smooth="yes"/>
			<point x="487" y="844"/>
			<point x="479" y="839"/>
			<point x="474" y="832" type="curve" smooth="yes"/>
			<point x="434" y="777" type="line"/>
			<point x="425" y="808" type="line" smooth="yes"/>
			<point x="419" y="828"/>
			<point x="414" y="838"/>
			<point x="412" y="838" type="curve" smooth="yes"/>
			<point x="384" y="838"/>
			<point x="361" y="815"/>
			<point x="361" y="787" type="curve" smooth="yes"/>
			<point x="361" y="759"/>
		</contour>
		<contour>
			<point x="451" y="603" type="line"/>
			<point x="662" y="603" type="line" smooth="yes"/>
			<point x="686" y="603"/>
			<point x="706" y="622"/>
			<point x="706" y="646" type="curve" smooth="yes"/>
			<point x="706" y="671"/>
			<point x="686" y="690"/>
			<point x="662" y="690" type="curve" smooth="yes"/>
			<point x="149" y="690" type="line" smooth="yes"/>
			<point x="125" y="690"/>
			<point x="105" y="671"/>
			<point x="105" y="647" type="curve" smooth="yes"/>
			<point x="105" y="622"/>
			<point x="125" y="603"/>
			<point x="149" y="603" type="curve" smooth="yes"/>
			<point x="342" y="603" type="line"/>
			<point x="226" y="59" type="line" smooth="yes"/>
			<point x="219" y="25"/>
			<point x="245" y="-5"/>
			<point x="279" y="-5" type="curve" smooth="yes"/>
			<point x="304" y="-5"/>
			<point x="326" y="12"/>
			<point x="331" y="37" type="curve" smooth="yes"/>
		</contour>
	</outline>
</glyph>
